<?xml version="1.0" encoding="UTF-8"?>
<svg version="1.1" xmlns="http://www.w3.org/2000/svg" width="640" height="194">
<path d="M0 0 C6.29991505 0.32726831 10.22921332 5.57044893 14.375 9.8125 C15.18710938 10.61300781 15.99921875 11.41351563 16.8359375 12.23828125 C19.03485703 14.41163194 21.20703798 16.60833824 23.375 18.8125 C26.80642846 22.24868684 30.24480235 25.67787581 33.68432617 29.10595703 C38.79900028 34.20435293 43.91117907 39.305243 49.02190685 44.40759468 C52.10728377 47.48773286 55.19359842 50.5669197 58.28198242 53.64404297 C61.27900046 56.63020793 64.27357949 59.61879873 67.26647377 62.60909653 C68.40549089 63.74626689 69.54538739 64.88255715 70.68617821 66.01794815 C72.27773574 67.60226105 73.86615085 69.18966125 75.45385742 70.77783203 C76.35810959 71.67986359 77.26236176 72.58189514 78.1940155 73.51126099 C81.7403766 77.25316036 82.81806641 79.6074949 82.703125 84.80859375 C82.19007845 87.94184234 80.60490034 89.64818496 78.375 91.8125 C76.02561112 92.98719444 74.42426795 93.01284889 71.8046875 93.12890625 C70.90878906 93.17080078 70.01289063 93.21269531 69.08984375 93.25585938 C68.15269531 93.29517578 67.21554688 93.33449219 66.25 93.375 C65.30511719 93.41818359 64.36023438 93.46136719 63.38671875 93.50585938 C61.04962908 93.61209072 58.7124317 93.71413176 56.375 93.8125 C55.66758923 103.16042799 55.33044034 112.46968158 55.4140625 121.84375 C55.42291473 123.03614288 55.42291473 123.03614288 55.4319458 124.25262451 C55.46387243 128.28784668 55.51372326 132.3217819 55.58789062 136.35644531 C55.60344083 137.87824943 55.61843735 139.40005933 55.6328125 140.921875 C55.65147369 141.61301392 55.67013489 142.30415283 55.68936157 143.01623535 C55.71558539 148.08184171 54.65777957 151.39034712 52.375 155.8125 C50.09224318 157.96097701 48.55424984 158.71681345 45.42829895 158.97045898 C38.02748007 158.6353796 34.65435552 155.10817027 29.76171875 149.875 C28.98488235 149.079729 28.20804596 148.28445801 27.40766907 147.46508789 C24.93950855 144.9325295 22.50005671 142.37449798 20.0625 139.8125 C17.60288037 137.25509145 15.13760683 134.70357351 12.66377258 132.15991211 C11.12858402 130.57855525 9.60233843 128.98845679 8.08610535 127.38891602 C7.39470963 126.67147217 6.7033139 125.95402832 5.9909668 125.21484375 C5.38745895 124.58054443 4.78395111 123.94624512 4.16215515 123.29272461 C2.21997423 121.68409875 0.84028653 121.21182803 -1.625 120.8125 C-2.12519653 121.41880249 -2.12519653 121.41880249 -2.63549805 122.03735352 C-8.52422578 128.97235325 -14.99487213 135.33336158 -21.43334961 141.7512207 C-23.45349057 143.76594771 -25.46816383 145.78603385 -27.48242188 147.80664062 C-28.76530401 149.0888629 -30.04849581 150.37077545 -31.33203125 151.65234375 C-31.9340889 152.25642563 -32.53614655 152.86050751 -33.15644836 153.4828949 C-38.50547177 158.80169374 -38.50547177 158.80169374 -41.6484375 158.83203125 C-48.01270389 158.27172208 -48.01270389 158.27172208 -51.125 155.9375 C-53.62380434 152.39752718 -53.76519697 149.45403866 -53.83032227 145.23950195 C-53.85026749 144.09854568 -53.87021271 142.95758942 -53.89076233 141.78205872 C-53.90747482 140.55073715 -53.92418732 139.31941559 -53.94140625 138.05078125 C-53.96218735 136.78985153 -53.98296844 135.52892181 -54.00437927 134.2297821 C-54.05872122 130.88104542 -54.10896166 127.53229795 -54.15722656 124.18347168 C-54.20750357 120.76483771 -54.26315724 117.34629174 -54.31835938 113.92773438 C-54.425535 107.22272638 -54.52730512 100.51765247 -54.625 93.8125 C-55.20467529 93.8031543 -55.78435059 93.79380859 -56.3815918 93.78417969 C-59.02606946 93.7302593 -61.66881893 93.64665871 -64.3125 93.5625 C-65.68051758 93.54123047 -65.68051758 93.54123047 -67.07617188 93.51953125 C-71.39691384 93.36241336 -73.97508457 93.21777046 -77.70703125 90.890625 C-80.11152145 88.28535252 -80.56637635 87.23124034 -81.0625 83.6875 C-80.18013288 75.8722484 -73.26067526 70.15621794 -67.85693359 64.81738281 C-67.20899338 64.16915054 -66.56105316 63.52091827 -65.89347839 62.8530426 C-63.774843 60.73578762 -61.64923543 58.62568631 -59.5234375 56.515625 C-58.03900041 55.03492432 -56.55500889 53.55377681 -55.07144165 52.07220459 C-51.18121498 48.18957905 -47.2850223 44.31299542 -43.38751221 40.43768311 C-39.42138493 36.49203689 -35.46092625 32.54070991 -31.5 28.58984375 C-25.10643481 22.21382455 -18.70940091 15.84131057 -12.30793762 9.47322083 C-11.46707359 8.63669228 -11.46707359 8.63669228 -10.60922241 7.78326416 C-9.829023 7.01233807 -9.829023 7.01233807 -9.03306198 6.22583771 C-7.80903865 4.9972282 -6.62318201 3.7308232 -5.44473267 2.45843506 C-3.625 0.8125 -3.625 0.8125 0 0 Z " fill="#A01EBA" transform="translate(115.625,13.1875)"/>
<path d="M0 0 C6.49258284 5.34907065 12.39652013 11.25061105 18.33203125 17.19921875 C19.41568169 18.2821944 20.49948044 19.36502166 21.5834198 20.44770813 C23.84166394 22.70448606 26.09810969 24.96304246 28.35327148 27.22290039 C31.24273229 30.11808533 34.13669688 33.00872036 37.03200245 35.89805889 C39.26512936 38.12757438 41.49587177 40.3594634 43.72589684 42.59208107 C44.79248371 43.65933418 45.8598116 44.72584727 46.9278965 45.79160118 C48.41635957 47.27752523 49.90158069 48.76661592 51.38598633 50.2565918 C52.65337395 51.52517281 52.65337395 51.52517281 53.94636536 52.81938171 C57.42249578 56.51045383 58.44101213 58.88795114 58.328125 63.99609375 C57.81507845 67.12934234 56.22990034 68.83568496 54 71 C51.65061112 72.17469444 50.04926795 72.20034889 47.4296875 72.31640625 C46.53378906 72.35830078 45.63789063 72.40019531 44.71484375 72.44335938 C43.77769531 72.48267578 42.84054688 72.52199219 41.875 72.5625 C40.93011719 72.60568359 39.98523438 72.64886719 39.01171875 72.69335938 C36.67462908 72.79959072 34.3374317 72.90163176 32 73 C31.96241577 73.84763916 31.96241577 73.84763916 31.92407227 74.71240234 C31.80820044 77.26683742 31.68543463 79.8208955 31.5625 82.375 C31.52318359 83.26445313 31.48386719 84.15390625 31.44335938 85.0703125 C31.38051758 86.34648437 31.38051758 86.34648437 31.31640625 87.6484375 C31.27974854 88.43395996 31.24309082 89.21948242 31.20532227 90.02880859 C31 92 31 92 30 94 C29.8216435 96.65969235 29.69578312 99.30195844 29.60546875 101.96484375 C29.53669452 103.58532436 29.46700468 105.20576632 29.39648438 106.82617188 C29.28904345 109.38483941 29.18730845 111.94320138 29.10131836 114.50268555 C29.01598222 116.97030247 28.90648034 119.43588356 28.79296875 121.90234375 C28.77300339 122.66804184 28.75303802 123.43373993 28.73246765 124.22264099 C28.46008517 129.54967006 28.46008517 129.54967006 25.95043945 132.00610352 C25.30679443 132.33408936 24.66314941 132.6620752 24 133 C24 132.34 24 131.68 24 131 C21.35261084 129.5393715 20.10551666 129 17 129 C16.01 129.33 15.02 129.66 14 130 C13.67 130.99 13.34 131.98 13 133 C11 128.25 11 128.25 11 126 C9.02 126.495 9.02 126.495 7 127 C3 122.5 3 122.5 3 118 C0.525 118.495 0.525 118.495 -2 119 C-2.23074219 118.43410156 -2.46148437 117.86820312 -2.69921875 117.28515625 C-3.68419897 115.06992405 -4.65723912 113.02061766 -6 111 C-8.56282742 110.27034634 -8.56282742 110.27034634 -11 110 C-12.25 107.5625 -12.25 107.5625 -13 105 C-13.33 104.34 -13.66 103.68 -14 103 C-14.99 103 -15.98 103 -17 103 C-20 101 -20 101 -21.125 97.875 C-20.96191087 92.81923693 -19.11707353 91.09066481 -15.76171875 87.50390625 C-14 86 -14 86 -12 86 C-10.92474806 83.34771188 -9.90543849 80.71631546 -9 78 C-8.34 78 -7.68 78 -7 78 C-6.7525 77.443125 -6.505 76.88625 -6.25 76.3125 C-5 74 -5 74 -3.0625 71.625 C0.3518904 67.27941222 3.05217393 62.55652256 2.9375 56.9375 C3 54 3 54 5 52 C5.6425235 49.93125966 5.6425235 49.93125966 6 48 C6.66 48 7.32 48 8 48 C8 45.69 8 43.38 8 41 C-0.58 41 -9.16 41 -18 41 C-17.00424757 37.01699027 -15.65362053 33.73862033 -14 30 C-13.34 30 -12.68 30 -12 30 C-11.896875 29.13632812 -11.79375 28.27265625 -11.6875 27.3828125 C-10.95265105 23.76702166 -9.728394 21.12404835 -8 17.875 C-5.482334 13.12758577 -5.482334 13.12758577 -4 8 C-3.34 8 -2.68 8 -2 8 C-2.04125 7.236875 -2.0825 6.47375 -2.125 5.6875 C-2 3 -2 3 0 0 Z " fill="#1688BC" transform="translate(140,34)"/>
<path d="M0 0 C6.29987984 0.32726649 10.22913898 5.57081785 14.375 9.8125 C15.22191406 10.6478125 16.06882812 11.483125 16.94140625 12.34375 C19.10454732 14.48258611 21.24478483 16.640966 23.375 18.8125 C24.365 19.8025 24.365 19.8025 25.375 20.8125 C24.385 22.2975 24.385 22.2975 23.375 23.8125 C22.99000109 25.46799531 22.64706865 27.1347433 22.375 28.8125 C21.715 28.8125 21.055 28.8125 20.375 28.8125 C20.271875 29.67617188 20.16875 30.53984375 20.0625 31.4296875 C19.32765105 35.04547834 18.103394 37.68845165 16.375 40.9375 C13.857334 45.68491423 13.857334 45.68491423 12.375 50.8125 C11.715 50.8125 11.055 50.8125 10.375 50.8125 C10.271875 51.51375 10.16875 52.215 10.0625 52.9375 C9.375 55.8125 9.375 55.8125 6.375 61.8125 C14.955 61.8125 23.535 61.8125 32.375 61.8125 C33.375 66.8125 33.375 66.8125 32.375 68.8125 C31.715 68.8125 31.055 68.8125 30.375 68.8125 C30.08625 69.410625 29.7975 70.00875 29.5 70.625 C28.375 72.8125 28.375 72.8125 26.375 75.8125 C25.715 75.8125 25.055 75.8125 24.375 75.8125 C24.00375 76.67875 24.00375 76.67875 23.625 77.5625 C22.15997722 80.19954101 20.69997923 81.88608864 18.375 83.8125 C17.075625 84.0290625 17.075625 84.0290625 15.75 84.25 C14.96625 84.435625 14.1825 84.62125 13.375 84.8125 C12.64595914 86.45284193 11.98844757 88.12551918 11.375 89.8125 C8.875 92.625 8.875 92.625 6.375 94.8125 C5.715 94.8125 5.055 94.8125 4.375 94.8125 C4.2925 95.43125 4.21 96.05 4.125 96.6875 C3.8775 97.38875 3.63 98.09 3.375 98.8125 C2.75625 99.10125 2.1375 99.39 1.5 99.6875 C-0.94671113 100.70071507 -0.94671113 100.70071507 -1.9375 103.8125 C-3.625 106.8125 -3.625 106.8125 -7.3125 108.1875 C-8.9521875 108.496875 -8.9521875 108.496875 -10.625 108.8125 C-10.563125 109.72 -10.50125 110.6275 -10.4375 111.5625 C-10.64186856 115.10488832 -11.15153696 116.33903696 -13.625 118.8125 C-14.285 118.8125 -14.945 118.8125 -15.625 118.8125 C-15.625 119.4725 -15.625 120.1325 -15.625 120.8125 C-16.285 120.8125 -16.945 120.8125 -17.625 120.8125 C-18.12 122.2975 -18.12 122.2975 -18.625 123.8125 C-21.47680637 120.96069363 -22.41769227 117.76564394 -22.625 113.8125 C-21.62269694 111.14862504 -20.23602599 109.20602433 -18.625 106.8125 C-18.480625 106.07 -18.33625 105.3275 -18.1875 104.5625 C-17.9090625 103.69625 -17.9090625 103.69625 -17.625 102.8125 C-16.3875 102.255625 -16.3875 102.255625 -15.125 101.6875 C-12.44227038 100.07670089 -12.44227038 100.07670089 -12.00390625 97.5078125 C-11.24215904 91.84892688 -11.24215904 91.84892688 -13.625 86.8125 C-17.42604859 85.59616445 -20.76029896 85.87559268 -24.6875 86.3125 C-28.30203975 86.71360908 -31.14442949 86.94765009 -34.625 85.8125 C-33.78525014 76.57525153 -30.93458117 68.98584361 -26.625 60.8125 C-27.285 60.8125 -27.945 60.8125 -28.625 60.8125 C-28.90214844 61.65683594 -29.17929688 62.50117187 -29.46484375 63.37109375 C-31.05992497 68.10263096 -32.78819659 72.78372865 -34.50390625 77.47265625 C-35.44193629 80.26713598 -36.13706005 82.91227264 -36.625 85.8125 C-36.955 85.8125 -37.285 85.8125 -37.625 85.8125 C-37.29444259 78.87079437 -36.87071282 73.02168975 -33.625 66.8125 C-35.605 66.8125 -37.585 66.8125 -39.625 66.8125 C-39.356875 66.02875 -39.08875 65.245 -38.8125 64.4375 C-37.33266479 59.92010831 -35.97597726 55.36979662 -34.625 50.8125 C-33.965 50.8125 -33.305 50.8125 -32.625 50.8125 C-32.45484375 50.14605469 -32.2846875 49.47960938 -32.109375 48.79296875 C-30.31690972 41.97588007 -28.13436426 35.39798894 -25.625 28.8125 C-27.57716435 30.76466435 -28.47326645 32.34449953 -29.625 34.8125 C-30.615 34.8125 -31.605 34.8125 -32.625 34.8125 C-33.615 35.3075 -33.615 35.3075 -34.625 35.8125 C-34.893125 36.781875 -35.16125 37.75125 -35.4375 38.75 C-36.625 41.8125 -36.625 41.8125 -39.125 42.9375 C-39.95 43.22625 -40.775 43.515 -41.625 43.8125 C-43.10078409 46.09996533 -43.75967549 48.21652647 -44.625 50.8125 C-45.615 50.4825 -46.605 50.1525 -47.625 49.8125 C-51.90570998 53.58843959 -51.90570998 53.58843959 -53.625 58.8125 C-54.615 57.8225 -55.605 56.8325 -56.625 55.8125 C-54.52804444 52.01940294 -52.19431683 49.13769511 -49.12524414 46.08569336 C-48.21742691 45.17802719 -47.30960968 44.27036102 -46.37428284 43.33518982 C-45.3863448 42.3574692 -44.3983 41.37985646 -43.41015625 40.40234375 C-42.39225717 39.38818045 -41.37480292 38.3735705 -40.35777283 37.35853577 C-37.68568743 34.69406291 -35.00765585 32.03564622 -32.32830811 29.378479 C-29.60915598 26.67975871 -26.8956226 23.97540225 -24.18164062 21.27148438 C-19.40294099 16.51189223 -14.61935651 11.75726671 -9.83216858 7.00621033 C-8.37746153 5.56037338 -6.95275694 4.08361716 -5.5622406 2.57594299 C-3.625 0.8125 -3.625 0.8125 0 0 Z M-24.625 25.8125 C-24.955 26.4725 -25.285 27.1325 -25.625 27.8125 C-24.965 27.8125 -24.305 27.8125 -23.625 27.8125 C-23.955 27.1525 -24.285 26.4925 -24.625 25.8125 Z " fill="#F448A8" transform="translate(115.625,13.1875)"/>
<path d="M0 0 C2.25406148 -0.1909853 2.25406148 -0.1909853 4.375 -0.625 C11.16360877 -1.51643348 16.41229763 1.33307032 22 5 C22.474375 4.38125 22.94875 3.7625 23.4375 3.125 C27.91766085 -0.59025533 33.39582022 -1.33199683 39.125 -0.875 C44.91701534 0.43287443 48.58694247 2.21508522 52.375 7 C55.04444021 11.92819732 55.11990971 15.78275339 55.09765625 21.390625 C55.0962413 22.09523865 55.09482635 22.79985229 55.09336853 23.52581787 C55.08778933 25.76725584 55.07524073 28.00859243 55.0625 30.25 C55.05748231 31.77343605 55.05291987 33.29687368 55.04882812 34.8203125 C55.03782674 38.54690772 55.02057646 42.27344396 55 46 C50.71 46 46.42 46 42 46 C41.98541748 45.07662842 41.97083496 44.15325684 41.95581055 43.2019043 C41.89473692 39.77422796 41.8205839 36.34735338 41.73754883 32.92016602 C41.70430577 31.43720146 41.67627177 29.95411056 41.65356445 28.47094727 C41.62000532 26.33815707 41.56769362 24.20652388 41.51171875 22.07421875 C41.48553467 20.79119873 41.45935059 19.50817871 41.43237305 18.1862793 C41.26246551 15.04130521 41.26246551 15.04130521 39.6027832 13.08276367 C37.4801155 11.6487909 36.0469008 11.59953099 33.5 11.625 C32.33984375 11.61339844 32.33984375 11.61339844 31.15625 11.6015625 C28.46492224 12.09887306 27.61965971 12.81740978 26 15 C24.88624812 18.40774103 24.80136604 21.73005722 24.68359375 25.296875 C24.62075195 27.10478516 24.62075195 27.10478516 24.55664062 28.94921875 C24.51732422 30.20347656 24.47800781 31.45773438 24.4375 32.75 C24.37272461 34.65458984 24.37272461 34.65458984 24.30664062 36.59765625 C24.20060345 39.7316438 24.09980152 42.86580768 24 46 C20.04 46 16.08 46 12 46 C11.98541748 45.14768799 11.97083496 44.29537598 11.95581055 43.41723633 C11.89456715 40.23928825 11.82037971 37.06197454 11.73754883 33.88452148 C11.70440194 32.51224042 11.67633829 31.13982638 11.65356445 29.76733398 C11.61983234 27.78862234 11.5659851 25.81028624 11.51171875 23.83203125 C11.48553467 22.64327393 11.45935059 21.4545166 11.43237305 20.22973633 C10.96309835 16.7243524 10.1697513 14.77608571 8 12 C5.08617271 11.24939151 5.08617271 11.24939151 2 12 C-0.75256794 13.85164036 -0.75256794 13.85164036 -3 16 C-3.66 16.33 -4.32 16.66 -5 17 C-5.33 26.57 -5.66 36.14 -6 46 C-10.29 46 -14.58 46 -19 46 C-19 30.82 -19 15.64 -19 0 C-6 -1 -6 -1 0 0 Z M-7 1 C-6 4 -6 4 -6 4 Z " fill="#363D43" transform="translate(380,76)"/>
<path d="M0 0 C0 0.99 0 1.98 0 3 C-0.33 3.33 -0.66 3.66 -1 4 C-0.95875 5.258125 -0.9175 6.51625 -0.875 7.8125 C-0.82806484 11.58072269 -1.37975882 13.18566688 -4 16 C-4.680625 17.1446875 -4.680625 17.1446875 -5.375 18.3125 C-6.71643024 20.53101925 -8.09458801 22.67735529 -9.5625 24.8125 C-9.97628906 25.41707031 -10.39007813 26.02164063 -10.81640625 26.64453125 C-11.20699219 27.09183594 -11.59757812 27.53914063 -12 28 C-12.66 28 -13.32 28 -14 28 C-14.185625 28.86625 -14.185625 28.86625 -14.375 29.75 C-15.77105018 34.77578064 -18.28099412 37.36954188 -22 41 C-23.35555293 42.64864545 -24.69631653 44.31003995 -26 46 C-25.01 46.495 -25.01 46.495 -24 47 C-24 48.32 -24 49.64 -24 51 C-21.35261084 52.4606285 -20.10551666 53 -17 53 C-16.505 56.465 -16.505 56.465 -16 60 C-14.35 60 -12.7 60 -11 60 C-9.68 62.64 -8.36 65.28 -7 68 C-5.35 68 -3.7 68 -2 68 C-1.731875 68.94875 -1.46375 69.8975 -1.1875 70.875 C-0.25013412 74.25267273 -0.25013412 74.25267273 3 76 C3.99 76 4.98 76 6 76 C6.66 77.98 7.32 79.96 8 82 C8.598125 81.360625 9.19625 80.72125 9.8125 80.0625 C12 78 12 78 15 77 C15.33 77.66 15.66 78.32 16 79 C17.9001177 80.24174796 17.9001177 80.24174796 20 81 C20.66 80.67 21.32 80.34 22 80 C22.66 68.12 23.32 56.24 24 44 C24.33 44 24.66 44 25 44 C25.21828943 48.71329316 25.41488574 53.42682693 25.59204102 58.1418457 C25.65519564 59.74332433 25.72411651 61.34458695 25.79907227 62.94555664 C25.90623259 65.25633588 25.99214437 67.56711602 26.07421875 69.87890625 C26.11157639 70.58648575 26.14893402 71.29406525 26.18742371 72.02308655 C26.34195831 77.21442691 25.35710323 80.48690191 23 85 C20.71724318 87.14847701 19.17924984 87.90431345 16.05329895 88.15795898 C8.65248007 87.8228796 5.27935552 84.29567027 0.38671875 79.0625 C-0.39011765 78.267229 -1.16695404 77.47195801 -1.96733093 76.65258789 C-4.43549145 74.1200295 -6.87494329 71.56199798 -9.3125 69 C-11.77211963 66.44259145 -14.23739317 63.89107351 -16.71122742 61.34741211 C-18.24641598 59.76605525 -19.77266157 58.17595679 -21.28889465 56.57641602 C-21.98029037 55.85897217 -22.6716861 55.14152832 -23.3840332 54.40234375 C-23.98754105 53.76804443 -24.59104889 53.13374512 -25.21284485 52.48022461 C-27.15502577 50.87159875 -28.53471347 50.39932803 -31 50 C-31.33346436 50.40420166 -31.66692871 50.80840332 -32.01049805 51.22485352 C-37.89922578 58.15985325 -44.36987213 64.52086158 -50.80834961 70.9387207 C-52.82849057 72.95344771 -54.84316383 74.97353385 -56.85742188 76.99414062 C-58.14030401 78.2763629 -59.42349581 79.55827545 -60.70703125 80.83984375 C-61.3090889 81.44392563 -61.91114655 82.04800751 -62.53144836 82.6703949 C-67.88047177 87.98919374 -67.88047177 87.98919374 -71.0234375 88.01953125 C-77.38770389 87.45922208 -77.38770389 87.45922208 -80.5 85.125 C-83.01688649 81.5594108 -83.12288802 78.66827462 -83.11352539 74.42700195 C-83.11344986 73.28604568 -83.11337433 72.14508942 -83.11329651 70.96955872 C-83.10813522 69.73823715 -83.10297394 68.50691559 -83.09765625 67.23828125 C-83.0962413 65.97735153 -83.09482635 64.71642181 -83.09336853 63.4172821 C-83.08871575 60.06848291 -83.07973342 56.71975189 -83.06866455 53.37097168 C-83.05842687 49.95239857 -83.05386586 46.53381841 -83.04882812 43.11523438 C-83.03779099 36.41013739 -83.02104686 29.70507263 -83 23 C-82.67 23 -82.34 23 -82 23 C-80.86434206 34.75371132 -80.67590224 46.51402195 -80.4375 58.3125 C-80.39420739 60.32487686 -80.35059009 62.33724676 -80.30664062 64.34960938 C-80.20068589 69.23300081 -80.09911762 74.1164652 -80 79 C-79.505 78.01 -79.505 78.01 -79 77 C-78.34 77 -77.68 77 -77 77 C-76.85691406 75.7315625 -76.85691406 75.7315625 -76.7109375 74.4375 C-75.91602267 70.59395579 -74.44112812 67.43713504 -72.625 64 C-72.32078125 63.40960938 -72.0165625 62.81921875 -71.703125 62.2109375 C-70.80663952 60.47160243 -69.903385 58.73576158 -69 57 C-67.07193667 53.26913036 -65.61327405 50.17026355 -65 46 C-64.34 46 -63.68 46 -63 46 C-62.731875 45.278125 -62.46375 44.55625 -62.1875 43.8125 C-61 41 -61 41 -59.5 38.5625 C-57.87467861 35.78590929 -56.92875257 33.07202774 -56 30 C-54.68 30 -53.36 30 -52 30 C-51.67 29.34 -51.34 28.68 -51 28 C-49.68 28 -48.36 28 -47 28 C-49.51610356 36.39622835 -53.19792113 44.16313244 -56.9375 52.0625 C-57.56488838 53.39888429 -58.19184436 54.73547167 -58.81835938 56.07226562 C-61.8001504 62.42159457 -64.82135458 68.74627406 -68 75 C-67.67 75.33 -67.34 75.66 -67 76 C-61.701554 70.33144196 -56.45153628 64.69561854 -51.6875 58.5625 C-49.51847855 55.78010773 -47.45767291 53.37376392 -44.6875 51.1875 C-41.92759883 49.19974223 -41.92759883 49.19974223 -40.5625 46.5625 C-39.05686855 44.09326443 -37.8949383 42.97080168 -35.6875 41.1875 C-31.03219144 37.37861117 -27.84490221 32.67417644 -24.453125 27.7578125 C-23.73382813 26.88769531 -23.73382813 26.88769531 -23 26 C-22.34 26 -21.68 26 -21 26 C-20.7525 25.44828125 -20.505 24.8965625 -20.25 24.328125 C-18.75765526 21.54863293 -16.96327477 19.2185293 -15 16.75 C-13.948125 15.41195312 -13.948125 15.41195312 -12.875 14.046875 C-12.25625 13.37140625 -11.6375 12.6959375 -11 12 C-10.34 12 -9.68 12 -9 12 C-8.71125 11.401875 -8.4225 10.80375 -8.125 10.1875 C-7 8 -7 8 -5 5 C-4.34 5 -3.68 5 -3 5 C-2.5359375 4.0409375 -2.5359375 4.0409375 -2.0625 3.0625 C-1 1 -1 1 0 0 Z " fill="#2527A1" transform="translate(145,84)"/>
<path d="M0 0 C2.27113803 0.14100857 4.54190725 0.28796755 6.8125 0.4375 C8.07707031 0.51871094 9.34164063 0.59992188 10.64453125 0.68359375 C14 1 14 1 17 2 C19.29393806 1.68242328 19.29393806 1.68242328 21.75 1.0625 C25.97178278 0.1401457 29.69213441 -0.1872985 34 0 C34 0.66 34 1.32 34 2 C35.36125 2.37125 35.36125 2.37125 36.75 2.75 C40.10351489 4.03981342 41.67708236 5.31971042 44 8 C44.66 7.34 45.32 6.68 46 6 C46.1546875 6.9590625 46.1546875 6.9590625 46.3125 7.9375 C46.539375 8.618125 46.76625 9.29875 47 10 C47.99 10.33 48.98 10.66 50 11 C49.835 11.886875 49.67 12.77375 49.5 13.6875 C48.94716264 17.28094286 49.09566333 20.68558816 49.25 24.3125 C49.32464105 31.50292108 47.31413801 37.17459001 42.58203125 42.63671875 C36.94089065 47.49784979 30.60791933 48.43383257 23.3828125 48.23828125 C21 48 21 48 18 47 C17.67 47.66 17.34 48.32 17 49 C16.505 48.505 16.505 48.505 16 48 C15.67 50.64 15.34 53.28 15 56 C14.67 56 14.34 56 14 56 C14 52.04 14 48.08 14 44 C13.67 50.27 13.34 56.54 13 63 C9.04 63 5.08 63 1 63 C1 43.53 1 24.06 1 4 C0.34 4 -0.32 4 -1 4 C-0.67 2.68 -0.34 1.36 0 0 Z M12 2 C12.33 3.32 12.66 4.64 13 6 C13.66 5.01 14.32 4.02 15 3 C14.01 2.67 13.02 2.34 12 2 Z M16 14 C13.00036407 18.06402287 12.47448862 21.89046263 12.640625 26.81640625 C13.20497941 30.24547271 14.7766686 32.39552608 17 35 C21.06303356 37.70868904 24.23736064 37.51148063 29 37 C31.99971118 35.9566222 33.33616791 35.04459615 35.03515625 32.37109375 C37.32190086 27.47092674 37.17054136 23.39559047 35.85546875 18.20703125 C34.57414935 14.9013442 33.14017987 13.60498082 30 12 C24.43298787 10.45360774 20.96133678 11.04228 16 14 Z M47 13 C48 15 48 15 48 15 Z " fill="#363D43" transform="translate(444,75)"/>
<path d="M0 0 C4.929375 -0.061875 9.85875 -0.12375 14.9375 -0.1875 C16.47398193 -0.21481201 18.01046387 -0.24212402 19.59350586 -0.27026367 C29.60777051 -0.33095618 38.02813388 0.22338436 45.55859375 7.421875 C50.43216525 12.75770938 50.47481144 17.98264495 50.27734375 24.94140625 C49.78083077 30.41703537 47.77693859 33.45672477 43.9375 37.1875 C34.78608028 44.40632177 24.03796857 43.26280878 13 43 C13 48.61 13 54.22 13 60 C8.71 59.67 4.42 59.34 0 59 C0 39.53 0 20.06 0 0 Z M13 11 C13 17.27 13 23.54 13 30 C13.99 30 14.98 30 16 30 C17.19367188 30.13019531 18.38734375 30.26039062 19.6171875 30.39453125 C20.30683594 30.46220703 20.99648437 30.52988281 21.70703125 30.59960938 C23.14664587 30.74097694 24.58444589 30.90231146 26.01953125 31.08398438 C30.04222941 31.43980963 31.7085783 31.21913994 34.9765625 28.76171875 C37.45358108 25.38092312 37.63539162 23.93939344 37.35546875 19.9296875 C36.82186315 17.03297137 35.9089514 15.23808095 34 13 C29.67091416 10.67392403 25.47382383 10.76465529 20.6875 10.875 C18.150625 10.91625 15.61375 10.9575 13 11 Z M13 31 C13 31.33 13 31.66 13 32 C17.95 32 22.9 32 28 32 C28 31.67 28 31.34 28 31 C23.05 31 18.1 31 13 31 Z " fill="#363D43" transform="translate(218,63)"/>
<path d="M0 0 C0.15855469 1.50626953 0.15855469 1.50626953 0.3203125 3.04296875 C0.90008499 7.08205046 2.25551454 10.5619006 3.875 14.3125 C4.38804687 15.52550781 4.90109375 16.73851563 5.4296875 17.98828125 C6.80681362 21.21883695 6.80681362 21.21883695 10 23 C10 23.66 10 24.32 10 25 C10.66 25 11.32 25 12 25 C12 24.34 12 23.68 12 23 C12.99 22.67 13.98 22.34 15 22 C16.04224396 20.36276532 16.04224396 20.36276532 16.7890625 18.32421875 C17.09070313 17.57849609 17.39234375 16.83277344 17.703125 16.06445312 C18.00734375 15.28005859 18.3115625 14.49566406 18.625 13.6875 C18.93695312 12.91470703 19.24890625 12.14191406 19.5703125 11.34570312 C20.95015607 7.88717281 22.09310907 4.6275637 23 1 C27.29 1 31.58 1 36 1 C35.34 4.3 34.68 7.6 34 11 C33.34 11 32.68 11 32 11 C31.63519531 12.15371094 31.27039063 13.30742188 30.89453125 14.49609375 C28.70039538 21.06564761 26.13273495 27.48782911 23.54907227 33.91137695 C22.97481147 35.34515759 22.40579129 36.78104838 21.84204102 38.21899414 C14.66113234 56.53125035 14.66113234 56.53125035 7.3125 62 C5 63 5 63 2 63 C1.505 63.99 1.505 63.99 1 65 C-0.93922422 64.54901762 -2.87633594 64.08894441 -4.8125 63.625 C-6.43091797 63.24214844 -6.43091797 63.24214844 -8.08203125 62.8515625 C-11 62 -11 62 -14 60 C-13.67 57.03 -13.34 54.06 -13 51 C-11.515 50.505 -11.515 50.505 -10 50 C-9.4225 50.309375 -8.845 50.61875 -8.25 50.9375 C-5.04090002 52.45290832 -2.50028973 52.31820816 1 52 C3.10938785 50.97578739 3.10938785 50.97578739 4 49 C3.49413503 44.77002771 1.9069441 41.17856801 0.19921875 37.30078125 C-0.07842819 36.66569138 -0.35607513 36.0306015 -0.64213562 35.37626648 C-1.52760346 33.35293132 -2.41969285 31.33260598 -3.3125 29.3125 C-14 5.01469981 -14 5.01469981 -14 1 C-9.27616037 0.34843591 -4.78025483 -0.11950637 0 0 Z M9 27 C10 29 10 29 10 29 Z M12 28 C13 30 13 30 13 30 Z M10 30 C10.99 31.485 10.99 31.485 12 33 C12 32.01 12 31.02 12 30 C11.34 30 10.68 30 10 30 Z M-12 52 C-11 54 -11 54 -11 54 Z " fill="#373E44" transform="translate(564,75)"/>
<path d="M0 0 C1.46373047 0.01353516 1.46373047 0.01353516 2.95703125 0.02734375 C4.06111328 0.04474609 4.06111328 0.04474609 5.1875 0.0625 C5.1875 0.7225 5.1875 1.3825 5.1875 2.0625 C5.909375 1.959375 6.63125 1.85625 7.375 1.75 C12.26929695 2.29381077 14.43610992 6.18926288 17.5 9.75 C19.1875 12.0625 19.1875 12.0625 19.1875 14.0625 C20.1775 14.3925 21.1675 14.7225 22.1875 15.0625 C21.5275 15.0625 20.8675 15.0625 20.1875 15.0625 C20.6825 16.0525 20.6825 16.0525 21.1875 17.0625 C22.48836423 32.26402773 22.48836423 32.26402773 17.7421875 38.41796875 C11.50204053 45.01872723 6.67252392 48.06089144 -2.625 48.4375 C-9.51234095 48.28406914 -14.74903074 46.92643294 -19.8515625 42.15625 C-25.30101956 36.14614921 -27.66419302 31.20590139 -27.8125 23.0625 C-27.24958214 16.50763431 -24.170911 10.91030885 -19.8125 6.0625 C-13.55616893 1.42532504 -7.7261237 -0.09308583 0 0 Z M-12.5625 16.0625 C-15.05105746 20.04419194 -15.12448396 23.46073653 -14.8125 28.0625 C-13.54124932 31.5417124 -12.43683795 33.52735319 -9.625 35.9375 C-4.88006977 37.83547209 -0.77337321 37.80327432 4 36 C6.92207125 33.41187975 8.36160293 30.8225051 9.1875 27.0625 C9.4605137 22.44535649 8.84837342 18.41522298 6.1875 14.5625 C-0.15500729 9.27707726 -7.11118948 9.83243083 -12.5625 16.0625 Z " fill="#353C41" transform="translate(332.8125,74.9375)"/>
<path d="M0 0 C4.29 0 8.58 0 13 0 C13 3.63 13 7.26 13 11 C16.63 11 20.26 11 24 11 C24 14.3 24 17.6 24 21 C20.37 21 16.74 21 13 21 C13.33 28.59 13.66 36.18 14 44 C15.32 44 16.64 44 18 44 C20.33634657 44.31151288 22.67038557 44.64159778 25 45 C25.88935377 48.303314 26.46274105 51.62294375 27 55 C21.21852526 57.60896875 14.94869653 58.31860805 8.8359375 56.27734375 C3.54717411 53.4979298 1.75507038 50.10624896 -0.1875 44.6875 C-1.08955906 40.59353965 -1.14651074 37.17555606 -1 33 C-0.34 33 0.32 33 1 33 C0.67 29.37 0.34 25.74 0 22 C-1.98 21.67 -3.96 21.34 -6 21 C-6 17.7 -6 14.4 -6 11 C-4.02 10.67 -2.04 10.34 0 10 C0 6.7 0 3.4 0 0 Z " fill="#373D42" transform="translate(501,66)"/>
<path d="M0 0 C4.29 0 8.58 0 13 0 C12.98839844 1.546875 12.97679687 3.09375 12.96484375 4.6875 C12.91044977 15.42297205 12.94703017 26.05849453 13.87890625 36.7578125 C14.00086691 40.02321089 13.57575034 42.79344882 13 46 C12.91077238 48.18607658 12.86983379 50.37460931 12.875 52.5625 C12.87242187 53.65691406 12.86984375 54.75132813 12.8671875 55.87890625 C12.98749315 58.70608913 13.35500028 61.2510726 14 64 C12.02 64.495 12.02 64.495 10 65 C10 64.67 10 64.34 10 64 C6.7 63.67 3.4 63.34 0 63 C0 42.21 0 21.42 0 0 Z " fill="#373D43" transform="translate(533,59)"/>
<path d="M0 0 C3.58727872 0.34263444 7.09838716 0.32575272 10.69921875 0.2578125 C10.69921875 3.8878125 10.69921875 7.5178125 10.69921875 11.2578125 C8.38802083 11.453125 6.07682292 11.6484375 3.765625 11.84375 C3.08371094 11.98039062 2.40179688 12.11703125 1.69921875 12.2578125 C1.36921875 12.9178125 1.03921875 13.5778125 0.69921875 14.2578125 C-0.30286621 15.10811035 -0.30286621 15.10811035 -1.32519531 15.97558594 C-3.93777447 18.99367664 -3.83827128 20.81976408 -3.91015625 24.7734375 C-3.94238281 26.02382812 -3.97460938 27.27421875 -4.0078125 28.5625 C-4.02908203 30.51542969 -4.02908203 30.51542969 -4.05078125 32.5078125 C-4.08042969 33.82523438 -4.11007812 35.14265625 -4.140625 36.5 C-4.21132661 39.75227384 -4.25831695 43.00504742 -4.30078125 46.2578125 C-8.59078125 46.2578125 -12.88078125 46.2578125 -17.30078125 46.2578125 C-17.32542525 39.86743453 -17.34361442 33.47708398 -17.35571289 27.08666992 C-17.36075433 24.91088377 -17.36758732 22.73510103 -17.3762207 20.55932617 C-17.38829463 17.43928183 -17.3940113 14.31928212 -17.3984375 11.19921875 C-17.40359879 10.22005997 -17.40876007 9.24090118 -17.41407776 8.23207092 C-17.41415329 7.33121262 -17.41422882 6.43035431 -17.41430664 5.50219727 C-17.41652725 4.70499771 -17.41874786 3.90779816 -17.42103577 3.08644104 C-17.30078125 1.2578125 -17.30078125 1.2578125 -16.30078125 0.2578125 C-10.65784784 -0.78717517 -5.68997574 -0.61899318 0 0 Z " fill="#363C42" transform="translate(292.30078125,75.7421875)"/>
<path d="M0 0 C0 0.99 0 1.98 0 3 C-0.33 3.33 -0.66 3.66 -1 4 C-0.95875 5.258125 -0.9175 6.51625 -0.875 7.8125 C-0.82806484 11.58072269 -1.37975882 13.18566688 -4 16 C-4.680625 17.1446875 -4.680625 17.1446875 -5.375 18.3125 C-6.71643024 20.53101925 -8.09458801 22.67735529 -9.5625 24.8125 C-10.18318359 25.71935547 -10.18318359 25.71935547 -10.81640625 26.64453125 C-11.20699219 27.09183594 -11.59757812 27.53914063 -12 28 C-12.66 28 -13.32 28 -14 28 C-14.12375 28.5775 -14.2475 29.155 -14.375 29.75 C-15.77105018 34.77578064 -18.28099412 37.36954188 -22 41 C-23.35555293 42.64864545 -24.69631653 44.31003995 -26 46 C-25.34 46.33 -24.68 46.66 -24 47 C-24 48.32 -24 49.64 -24 51 C-21.35261084 52.4606285 -20.10551666 53 -17 53 C-16.67 55.31 -16.34 57.62 -16 60 C-14.35 60 -12.7 60 -11 60 C-9.68 62.64 -8.36 65.28 -7 68 C-5.35 68 -3.7 68 -2 68 C-1.731875 68.94875 -1.46375 69.8975 -1.1875 70.875 C-0.25013412 74.25267273 -0.25013412 74.25267273 3 76 C3.99 76 4.98 76 6 76 C6.66 77.98 7.32 79.96 8 82 C8.598125 81.360625 9.19625 80.72125 9.8125 80.0625 C12 78 12 78 15 77 C15.33 77.66 15.66 78.32 16 79 C17.9001177 80.24174796 17.9001177 80.24174796 20 81 C20.66 80.67 21.32 80.34 22 80 C22.66 68.12 23.32 56.24 24 44 C24.33 44 24.66 44 25 44 C25.21828943 48.71329316 25.41488574 53.42682693 25.59204102 58.1418457 C25.65519564 59.74332433 25.72411651 61.34458695 25.79907227 62.94555664 C25.90623259 65.25633588 25.99214437 67.56711602 26.07421875 69.87890625 C26.11157639 70.58648575 26.14893402 71.29406525 26.18742371 72.02308655 C26.34195831 77.21442691 25.35710323 80.48690191 23 85 C20.71674085 87.14894979 19.17901463 87.90514132 16.05206299 88.15672302 C8.66692808 87.81926672 5.30503742 84.32216272 0.421875 79.09765625 C-0.35258972 78.30475693 -1.12705444 77.5118576 -1.92498779 76.69493103 C-4.38643307 74.16909091 -6.81918066 71.6177977 -9.25 69.0625 C-11.69928265 66.51533262 -14.15424547 63.97409048 -16.61785889 61.44078064 C-18.14646313 59.8661217 -19.66611785 58.28271314 -21.17559814 56.68971252 C-21.86691833 55.97234421 -22.55823853 55.25497589 -23.27050781 54.51586914 C-23.87179504 53.88379044 -24.47308228 53.25171173 -25.09259033 52.60047913 C-27.30203492 50.74656699 -29.25170999 49.85150569 -32 49 C-34.7336432 49.29519768 -34.7336432 49.29519768 -37 50 C-35.71680266 40.90096431 -29.29599713 32.44241566 -23 26 C-22.34 26 -21.68 26 -21 26 C-20.7525 25.44828125 -20.505 24.8965625 -20.25 24.328125 C-18.75765526 21.54863293 -16.96327477 19.2185293 -15 16.75 C-14.29875 15.85796875 -13.5975 14.9659375 -12.875 14.046875 C-12.25625 13.37140625 -11.6375 12.6959375 -11 12 C-10.34 12 -9.68 12 -9 12 C-8.566875 11.1028125 -8.566875 11.1028125 -8.125 10.1875 C-7 8 -7 8 -5 5 C-4.34 5 -3.68 5 -3 5 C-2.690625 4.360625 -2.38125 3.72125 -2.0625 3.0625 C-1 1 -1 1 0 0 Z " fill="#1F3A9D" transform="translate(145,84)"/>
<path d="M0 0 C1.37077135 4.11231406 0.11627929 5.72827366 -1.5625 9.6875 C-2.12670303 11.040958 -2.68914643 12.3951506 -3.25 13.75 C-3.54132813 14.44996094 -3.83265625 15.14992188 -4.1328125 15.87109375 C-5.52168983 19.28072503 -6.78958893 22.73328791 -8.0625 26.1875 C-11.09860875 34.34844336 -14.35754699 42.38590476 -17.94921875 50.3203125 C-24.72776359 65.22956812 -24.72776359 65.22956812 -29 81 C-29.33 81 -29.66 81 -30 81 C-29.66944259 74.05829437 -29.24571282 68.20918975 -26 62 C-27.98 62 -29.96 62 -32 62 C-31.731875 61.21625 -31.46375 60.4325 -31.1875 59.625 C-29.70766479 55.10760831 -28.35097726 50.55729662 -27 46 C-26.34 46 -25.68 46 -25 46 C-24.82984375 45.33355469 -24.6596875 44.66710938 -24.484375 43.98046875 C-22.69190972 37.16338007 -20.50936426 30.58548894 -18 24 C-19.95216435 25.95216435 -20.84826645 27.53199953 -22 30 C-22.99 30 -23.98 30 -25 30 C-25.66 30.33 -26.32 30.66 -27 31 C-27.268125 31.969375 -27.53625 32.93875 -27.8125 33.9375 C-29 37 -29 37 -31.5 38.125 C-32.325 38.41375 -33.15 38.7025 -34 39 C-35.47578409 41.28746533 -36.13467549 43.40402647 -37 46 C-37.99 45.67 -38.98 45.34 -40 45 C-44.28070998 48.77593959 -44.28070998 48.77593959 -46 54 C-46.99 53.01 -47.98 52.02 -49 51 C-46.89008427 47.17788632 -44.5280552 44.28406586 -41.43676758 41.2097168 C-40.51603958 40.28913986 -39.59531158 39.36856293 -38.64668274 38.42008972 C-37.64607281 37.42969105 -36.64535309 36.43940329 -35.64453125 35.44921875 C-34.61705071 34.42547186 -33.59001344 33.4012799 -32.56340027 32.37666321 C-29.87005638 29.69092803 -27.17075916 27.01125547 -24.47015381 24.33282471 C-21.71148921 21.59467817 -18.95853054 18.85080792 -16.20507812 16.10742188 C-10.80893606 10.73268097 -5.40648828 5.36433559 0 0 Z M-17 21 C-17.33 21.66 -17.66 22.32 -18 23 C-17.34 23 -16.68 23 -16 23 C-16.33 22.34 -16.66 21.68 -17 21 Z " fill="#E70E85" transform="translate(108,18)"/>
<path d="M0 0 C2.31 1.98 4.62 3.96 7 6 C6.01 6.495 6.01 6.495 5 7 C4.64855361 8.66294147 4.31813935 10.33036643 4 12 C3.28091872 13.56647446 2.50664072 15.10844845 1.6875 16.625 C-1.05574824 21.92010707 -3.08117552 27.36144315 -5 33 C-4.10796875 32.97679687 -3.2159375 32.95359375 -2.296875 32.9296875 C-1.12640625 32.91164062 0.0440625 32.89359375 1.25 32.875 C2.41015625 32.85179687 3.5703125 32.82859375 4.765625 32.8046875 C9.13914385 33.06878888 11.0661769 34.14399549 14.25 37.0625 C16.68520182 41.15016019 17.01007125 44.35680426 16 49 C14.40732261 52.03510221 12.2577477 54.43665817 10 57 C8.3712141 58.996918 6.74633304 60.99702617 5.125 63 C3.75161884 64.66800089 2.37718401 66.33513755 1 68 C0.505 67.01 0.505 67.01 0 66 C0.495 65.505 0.99 65.01 1.5 64.5 C3.11836676 61.80272206 3.15630005 60.90970734 3.0625 57.875 C3.041875 56.59625 3.02125 55.3175 3 54 C3.66 53.34 4.32 52.68 5 52 C5.6425235 49.93125966 5.6425235 49.93125966 6 48 C6.66 48 7.32 48 8 48 C8 45.69 8 43.38 8 41 C-0.58 41 -9.16 41 -18 41 C-17.00424757 37.01699027 -15.65362053 33.73862033 -14 30 C-13.34 30 -12.68 30 -12 30 C-11.896875 29.13632812 -11.79375 28.27265625 -11.6875 27.3828125 C-10.95265105 23.76702166 -9.728394 21.12404835 -8 17.875 C-5.482334 13.12758577 -5.482334 13.12758577 -4 8 C-3.34 8 -2.68 8 -2 8 C-2.061875 6.8553125 -2.061875 6.8553125 -2.125 5.6875 C-2 3 -2 3 0 0 Z " fill="#0F8F96" transform="translate(140,34)"/>
<path d="M0 0 C0.66 0 1.32 0 2 0 C-0 5 -0 5 -1 7.375 C-2.75730605 11.98792837 -4 16.04221232 -4 21 C-4.66 21.33 -5.32 21.66 -6 22 C-6 22.99 -6 23.98 -6 25 C-5.01 24.67 -4.02 24.34 -3 24 C-2.37996094 24.15597656 -1.75992188 24.31195313 -1.12109375 24.47265625 C1.44052994 25.10952402 3.33419718 24.81856898 5.9375 24.4375 C9.84475173 24.00016402 12.58458177 23.75863179 16 26 C18.34899856 29.76002894 18.24784322 32.60399937 17.6875 36.890625 C16.58734373 40.26610447 13.95656276 41.27533839 11 43 C10.23870425 45.38901957 10.23870425 45.38901957 10 48 C9.4225 48.928125 8.845 49.85625 8.25 50.8125 C6.8501835 54.38203208 7.01755483 54.95995854 8.3125 58.375 C8.869375 59.57125 9.42625 60.7675 10 62 C10.33 61.34 10.66 60.68 11 60 C11.66 60 12.32 60 13 60 C13 59.34 13 58.68 13 58 C13.9590625 57.13375 13.9590625 57.13375 14.9375 56.25 C17.2848402 54.11612112 17.2848402 54.11612112 17.4375 50.875 C17.623125 49.92625 17.80875 48.9775 18 48 C20.47590076 46.60333803 22.16264185 46 25 46 C25.226875 45.071875 25.45375 44.14375 25.6875 43.1875 C27.23425568 39.43109336 28.52552918 38.8708689 32 37 C32.33 36.01 32.66 35.02 33 34 C35 32 35 32 37.5 30.125 C40.06990372 28.22939518 40.06990372 28.22939518 41.0625 25.8125 C42 24 42 24 44.125 23.25 C45.053125 23.12625 45.053125 23.12625 46 23 C42.7673046 30.02275207 37.40812513 35.59187487 32 41 C31.02753687 42.30206547 30.07029736 43.61558021 29.125 44.9375 C26.6034183 48.40386038 23.84892278 50.94421052 20.53125 53.62890625 C18.47534266 55.46978246 17.32678462 57.59915164 16 60 C13.9375 62.3125 13.9375 62.3125 12 64 C11.34 64 10.68 64 10 64 C9.76667969 64.55171875 9.53335938 65.1034375 9.29296875 65.671875 C7.65980716 68.61255267 5.60660793 70.79077251 3.3125 73.25 C-0.41986955 77.27944672 -4.07047909 81.35224701 -7.625 85.5390625 C-9 87 -9 87 -11 88 C-10.41126685 84.47887059 -9.49016983 81.59471365 -7.91796875 78.39453125 C-7.48605225 77.50572266 -7.05413574 76.61691406 -6.60913086 75.70117188 C-6.13999268 74.74791016 -5.67085449 73.79464844 -5.1875 72.8125 C-4.19127932 70.75720246 -3.19654655 68.7011832 -2.203125 66.64453125 C-1.42098633 65.02732178 -1.42098633 65.02732178 -0.62304688 63.37744141 C2.15052248 57.60584717 4.86387136 51.80694055 7.5625 46 C8.07466064 44.90921143 8.58682129 43.81842285 9.11450195 42.69458008 C9.59363037 41.66099365 10.07275879 40.62740723 10.56640625 39.5625 C10.98865479 38.65628906 11.41090332 37.75007813 11.84594727 36.81640625 C13.14909114 33.63615076 14.05581386 30.30465149 15 27 C7.74 27 0.48 27 -7 27 C-8.12520008 19.12359942 -8.12520008 19.12359942 -6.85546875 15.95703125 C-6.59056641 15.27576172 -6.32566406 14.59449219 -6.05273438 13.89257812 C-5.76720703 13.20615234 -5.48167969 12.51972656 -5.1875 11.8125 C-4.91357422 11.11447266 -4.63964844 10.41644531 -4.35742188 9.69726562 C-3.04536587 6.39038107 -1.66588007 3.14485652 0 0 Z " fill="#B323CA" transform="translate(87,74)"/>
<path d="M0 0 C4.05035484 0.53775016 5.91026911 2.54125782 8.73681641 5.38037109 C9.67103424 6.31158783 10.60525208 7.24280457 11.56777954 8.20223999 C12.57927437 9.22574144 13.59052962 10.24947972 14.6015625 11.2734375 C15.6442219 12.31915562 16.68747405 13.36428304 17.73129272 14.40884399 C19.91628817 16.59843984 22.09628391 18.79285102 24.27246094 20.99121094 C27.06108302 23.80811498 29.85830847 26.61627051 32.65886879 29.42130089 C34.81263488 31.57922556 36.96355504 33.7399669 39.11344528 35.90175247 C40.14402383 36.9380254 41.17507023 37.97383324 42.20659256 39.00916672 C43.64766945 40.4571247 45.0849099 41.90889785 46.52197266 43.36083984 C47.34041656 44.18611176 48.15886047 45.01138367 49.00210571 45.86166382 C51.83462456 48.89329446 53.28134009 50.86310818 53.25 55 C53.25773437 56.0209375 53.25773437 56.0209375 53.265625 57.0625 C53 59 53 59 51 62 C49.68 61.67 48.36 61.34 47 61 C47.02320313 60.32453125 47.04640625 59.6490625 47.0703125 58.953125 C47.08835938 58.06109375 47.10640625 57.1690625 47.125 56.25 C47.14820313 55.36828125 47.17140625 54.4865625 47.1953125 53.578125 C46.99139502 50.8864142 46.36551721 49.30095026 45 47 C43.35 47 41.7 47 40 47 C40 46.236875 40 45.47375 40 44.6875 C39.29819851 41.8993117 39.29819851 41.8993117 37.15234375 41 C35.11690505 40.25331349 33.08737258 39.58484471 31 39 C31.33 37.68 31.66 36.36 32 35 C31.236875 34.401875 30.47375 33.80375 29.6875 33.1875 C26.27114309 30.40674437 23.47831028 27.65845804 21 24 C21 23.34 21 22.68 21 22 C19.02 22.33 17.04 22.66 15 23 C15.226875 22.4225 15.45375 21.845 15.6875 21.25 C16.24560425 18.91279965 16.24560425 18.91279965 14.75 16.8125 C13.03227745 14.75362911 13.03227745 14.75362911 10 14 C9.01 14 8.02 14 7 14 C7 11.69 7 9.38 7 7 C6.01 7.33 5.02 7.66 4 8 C3.67 7.01 3.34 6.02 3 5 C2.34 5.66 1.68 6.32 1 7 C0.67 6.67 0.34 6.34 0 6 C0 6.99 0 7.98 0 9 C-0.99307821 10.33849671 -1.99357052 11.67151309 -3 13 C-3.35620147 14.32740702 -3.68685211 15.66178205 -4 17 C-4.94685616 19.68848278 -5.97956875 22.33800543 -7 25 C-4.03 24.34 -1.06 23.68 2 23 C2 23.66 2 24.32 2 25 C2.639375 25.12375 3.27875 25.2475 3.9375 25.375 C4.618125 25.58125 5.29875 25.7875 6 26 C6.33 26.66 6.66 27.32 7 28 C6.47921875 27.84660156 5.9584375 27.69320312 5.421875 27.53515625 C2.36721485 26.86017489 -0.63015971 26.65588882 -3.75 26.4375 C-4.92046875 26.35371094 -6.0909375 26.26992187 -7.296875 26.18359375 C-8.18890625 26.12300781 -9.0809375 26.06242187 -10 26 C-9.36053979 22.14918468 -8.2195672 18.83589104 -6.6875 15.25 C-6.2440625 14.2084375 -5.800625 13.166875 -5.34375 12.09375 C-3.58778992 8.0509582 -1.8155059 4.01642647 0 0 Z " fill="#1AE6D2" transform="translate(145,41)"/>
<path d="M0 0 C1.32 0 2.64 0 4 0 C1.48389644 8.39622835 -2.19792113 16.16313244 -5.9375 24.0625 C-6.56488838 25.39888429 -7.19184436 26.73547167 -7.81835938 28.07226562 C-10.28885977 33.33172903 -12.76478468 38.58323926 -15.41015625 43.7578125 C-17.1042746 46.83492798 -17.1042746 46.83492798 -17.5 49.8125 C-18 52 -18 52 -20.0625 53.8125 C-21.0215625 54.4003125 -21.0215625 54.4003125 -22 55 C-21.67 52.03 -21.34 49.06 -21 46 C-22.65 46.66 -24.3 47.32 -26 48 C-24.64907191 42.78541758 -22.82415594 38.10252642 -20.5 33.25 C-20.19191406 32.59128906 -19.88382812 31.93257812 -19.56640625 31.25390625 C-18.19411871 28.35031073 -16.78482081 25.67723121 -15 23 C-14.61500109 21.34450469 -14.27206865 19.6777567 -14 18 C-13.34 18 -12.68 18 -12 18 C-11.731875 17.278125 -11.46375 16.55625 -11.1875 15.8125 C-10 13 -10 13 -8.5 10.5625 C-6.87467861 7.78590929 -5.92875257 5.07202774 -5 2 C-3.68 2 -2.36 2 -1 2 C-0.67 1.34 -0.34 0.68 0 0 Z " fill="#3D14A8" transform="translate(94,112)"/>
<path d="M0 0 C-0.56444934 3.0103965 -1.23740465 5.97248375 -2 8.9375 C-2.84757899 12.270889 -3.48944496 15.59629973 -4 19 C-3.34 19 -2.68 19 -2 19 C-2 19.66 -2 20.32 -2 21 C5.26 21 12.52 21 20 21 C18.8 29.4 18.8 29.4 17 32 C15.515 32.495 15.515 32.495 14 33 C13.34 32.67 12.68 32.34 12 32 C11.67 32.99 11.34 33.98 11 35 C9.515 34.505 9.515 34.505 8 34 C8.33 32.02 8.66 30.04 9 28 C4.05 28 -0.9 28 -6 28 C-6 27.34 -6 26.68 -6 26 C-6.66 26 -7.32 26 -8 26 C-12.01049584 20.22488599 -11.16771752 14.71657067 -10 8 C-9.22289469 5.10269987 -8.28901432 2.73271035 -7 0 C-4.3333581 -1.33332095 -2.83319697 -0.67102033 0 0 Z " fill="#8B0DA3" transform="translate(82,80)"/>
<path d="M0 0 C0.33 0 0.66 0 1 0 C1.21828943 4.71329316 1.41488574 9.42682693 1.59204102 14.1418457 C1.65519564 15.74332433 1.72411651 17.34458695 1.79907227 18.94555664 C1.90623259 21.25633588 1.99214437 23.56711602 2.07421875 25.87890625 C2.11157639 26.58648575 2.14893402 27.29406525 2.18742371 28.02308655 C2.34195831 33.21442691 1.35710323 36.48690191 -1 41 C-3.95990352 43.78579155 -5.80348589 43.98271312 -9.86328125 44.33984375 C-16.98102571 43.43968384 -21.65979736 37.29777121 -26.36010742 32.35327148 C-28.07135076 30.55318975 -29.80857214 28.78182399 -31.55273438 27.01367188 C-32.65262384 25.88695901 -33.75098854 24.7587552 -34.84765625 23.62890625 C-35.36626724 23.09552139 -35.88487823 22.56213654 -36.41920471 22.0125885 C-40 18.23682686 -40 18.23682686 -40 16 C-38.35 16 -36.7 16 -35 16 C-33.68 18.64 -32.36 21.28 -31 24 C-29.35 24 -27.7 24 -26 24 C-25.731875 24.94875 -25.46375 25.8975 -25.1875 26.875 C-24.25013412 30.25267273 -24.25013412 30.25267273 -21 32 C-20.01 32 -19.02 32 -18 32 C-17.34 33.98 -16.68 35.96 -16 38 C-15.401875 37.360625 -14.80375 36.72125 -14.1875 36.0625 C-12 34 -12 34 -9 33 C-8.67 33.66 -8.34 34.32 -8 35 C-6.0998823 36.24174796 -6.0998823 36.24174796 -4 37 C-3.34 36.67 -2.68 36.34 -2 36 C-1.34 24.12 -0.68 12.24 0 0 Z " fill="#232D9E" transform="translate(169,128)"/>
<path d="M0 0 C0.33 0 0.66 0 1 0 C2.13565794 11.75371132 2.32409776 23.51402195 2.5625 35.3125 C2.60579261 37.32487686 2.64940991 39.33724676 2.69335938 41.34960938 C2.79931411 46.23300081 2.90088238 51.1164652 3 56 C3.7425 55.175 4.485 54.35 5.25 53.5 C8 51 8 51 12 51 C11.67 53.64 11.34 56.28 11 59 C11.61875 58.34 12.2375 57.68 12.875 57 C15 55 15 55 17 55 C17.33 55.66 17.66 56.32 18 57 C20.02463255 57.65213292 20.02463255 57.65213292 22 58 C15.8666314 64.70158258 15.8666314 64.70158258 11.60546875 65.3828125 C7.81902911 65.0688457 5.56294579 64.42220934 2.5 62.125 C-0.01688649 58.5594108 -0.12288802 55.66827462 -0.11352539 51.42700195 C-0.11344986 50.28604568 -0.11337433 49.14508942 -0.11329651 47.96955872 C-0.10813522 46.73823715 -0.10297394 45.50691559 -0.09765625 44.23828125 C-0.0962413 42.97735153 -0.09482635 41.71642181 -0.09336853 40.4172821 C-0.08871575 37.06848291 -0.07973342 33.71975189 -0.06866455 30.37097168 C-0.05842687 26.95239857 -0.05386586 23.53381841 -0.04882812 20.11523438 C-0.03779099 13.41013739 -0.02104686 6.70507263 0 0 Z " fill="#421EA8" transform="translate(62,107)"/>
<path d="M0 0 C5.14175305 1.41180338 8.68187413 5.92626692 12.3046875 9.6328125 C13.15160156 10.468125 13.99851563 11.3034375 14.87109375 12.1640625 C17.03423482 14.30289861 19.17447233 16.4612785 21.3046875 18.6328125 C21.9646875 19.2928125 22.6246875 19.9528125 23.3046875 20.6328125 C22.6446875 21.6228125 21.9846875 22.6128125 21.3046875 23.6328125 C20.91968859 25.28830781 20.57675615 26.9550558 20.3046875 28.6328125 C19.6446875 28.6328125 18.9846875 28.6328125 18.3046875 28.6328125 C18.2015625 29.49648438 18.0984375 30.36015625 17.9921875 31.25 C17.25733855 34.86579084 16.0330815 37.50876415 14.3046875 40.7578125 C11.7870215 45.50522673 11.7870215 45.50522673 10.3046875 50.6328125 C9.6446875 50.6328125 8.9846875 50.6328125 8.3046875 50.6328125 C8.2015625 51.3340625 8.0984375 52.0353125 7.9921875 52.7578125 C7.3046875 55.6328125 7.3046875 55.6328125 4.3046875 61.6328125 C12.8846875 61.6328125 21.4646875 61.6328125 30.3046875 61.6328125 C30.7996875 64.1078125 30.7996875 64.1078125 31.3046875 66.6328125 C30.6446875 67.2928125 29.9846875 67.9528125 29.3046875 68.6328125 C29.3046875 66.6528125 29.3046875 64.6728125 29.3046875 62.6328125 C20.7246875 62.6328125 12.1446875 62.6328125 3.3046875 62.6328125 C2.9746875 60.3228125 2.6446875 58.0128125 2.3046875 55.6328125 C3.2946875 55.6328125 4.2846875 55.6328125 5.3046875 55.6328125 C5.2634375 54.7253125 5.2221875 53.8178125 5.1796875 52.8828125 C5.30000306 49.7546079 5.6961583 48.24667244 7.3046875 45.6328125 C7.9646875 45.6328125 8.6246875 45.6328125 9.3046875 45.6328125 C9.9646875 43.6528125 10.6246875 41.6728125 11.3046875 39.6328125 C11.9646875 39.6328125 12.6246875 39.6328125 13.3046875 39.6328125 C13.4284375 38.116875 13.4284375 38.116875 13.5546875 36.5703125 C13.9603307 33.61746861 14.76111921 31.55246313 16.3046875 29.0078125 C18.60970606 25.54285611 18.60970606 25.54285611 19.3046875 20.6328125 C16.3346875 18.9828125 13.3646875 17.3328125 10.3046875 15.6328125 C10.3046875 13.6528125 10.3046875 11.6728125 10.3046875 9.6328125 C9.5415625 9.5503125 8.7784375 9.4678125 7.9921875 9.3828125 C4.75753559 8.48011895 3.95369485 7.49687789 2.3046875 4.6328125 C2.3046875 3.9728125 2.3046875 3.3128125 2.3046875 2.6328125 C-0.56944375 2.29883463 -0.56944375 2.29883463 -3.6953125 2.6328125 C-5.4892041 4.49647484 -5.4892041 4.49647484 -6.6953125 6.6328125 C-7.6853125 7.1278125 -7.6853125 7.1278125 -8.6953125 7.6328125 C-8.8828125 5.2578125 -8.8828125 5.2578125 -8.6953125 2.6328125 C-5.63949456 0.59560054 -3.67162532 -0.09414424 0 0 Z " fill="#F188A5" transform="translate(117.6953125,13.3671875)"/>
<path d="M0 0 C0 0.99 0 1.98 0 3 C-0.33 3.33 -0.66 3.66 -1 4 C-0.95875 5.258125 -0.9175 6.51625 -0.875 7.8125 C-0.82806484 11.58072269 -1.37975882 13.18566688 -4 16 C-4.680625 17.1446875 -4.680625 17.1446875 -5.375 18.3125 C-6.71643024 20.53101925 -8.09458801 22.67735529 -9.5625 24.8125 C-9.97628906 25.41707031 -10.39007813 26.02164063 -10.81640625 26.64453125 C-11.20699219 27.09183594 -11.59757813 27.53914063 -12 28 C-12.66 28 -13.32 28 -14 28 C-14.33 29.32 -14.66 30.64 -15 32 C-16.98 31.34 -18.96 30.68 -21 30 C-20.67 30.99 -20.34 31.98 -20 33 C-20.99 32.67 -21.98 32.34 -23 32 C-21.625 29.5 -21.625 29.5 -20 27 C-19.34 27 -18.68 27 -18 27 C-18.144375 26.195625 -18.28875 25.39125 -18.4375 24.5625 C-17.78717267 19.26697745 -14.68859154 15.75535338 -11 12 C-10.34 12 -9.68 12 -9 12 C-8.566875 11.1028125 -8.566875 11.1028125 -8.125 10.1875 C-7 8 -7 8 -5 5 C-4.34 5 -3.68 5 -3 5 C-2.690625 4.360625 -2.38125 3.72125 -2.0625 3.0625 C-1 1 -1 1 0 0 Z " fill="#136196" transform="translate(145,84)"/>
<path d="M0 0 C0.495 1.485 0.495 1.485 1 3 C0.48050781 3.44730469 -0.03898437 3.89460938 -0.57421875 4.35546875 C-8.15863945 10.24768178 -8.15863945 10.24768178 -13 18.125 C-14.26644644 21.76603352 -15.74963233 22.13103859 -19 24 C-19.72159424 25.64363134 -20.39351421 27.31050386 -21 29 C-24 31 -24 31 -27 31 C-27.226875 31.94875 -27.45375 32.8975 -27.6875 33.875 C-29 37 -29 37 -31.5 38.125 C-32.325 38.41375 -33.15 38.7025 -34 39 C-35.47578409 41.28746533 -36.13467549 43.40402647 -37 46 C-37.99 45.67 -38.98 45.34 -40 45 C-44.28070998 48.77593959 -44.28070998 48.77593959 -46 54 C-46.99 53.01 -47.98 52.02 -49 51 C-46.89008427 47.17788632 -44.5280552 44.28406586 -41.43676758 41.2097168 C-40.51603958 40.28913986 -39.59531158 39.36856293 -38.64668274 38.42008972 C-37.64607281 37.42969105 -36.64535309 36.43940329 -35.64453125 35.44921875 C-34.61705071 34.42547186 -33.59001344 33.4012799 -32.56340027 32.37666321 C-29.87005638 29.69092803 -27.17075916 27.01125547 -24.47015381 24.33282471 C-21.71148921 21.59467817 -18.95853054 18.85080792 -16.20507812 16.10742188 C-10.80893606 10.73268097 -5.40648828 5.36433559 0 0 Z " fill="#DB3C88" transform="translate(108,18)"/>
<path d="M0 0 C0.33 0 0.66 0 1 0 C2.94331984 5.70040486 2.94331984 5.70040486 3.4375 8.3125 C3.623125 8.869375 3.80875 9.42625 4 10 C4.99 10.33 5.98 10.66 7 11 C6.21496094 11.845625 5.42992188 12.69125 4.62109375 13.5625 C3.5596416 14.70809783 2.49846166 15.8539479 1.4375 17 C0.8904541 17.59071289 0.3434082 18.18142578 -0.22021484 18.79003906 C-3.7947334 22.66164124 -7.29489918 26.58301495 -10.6953125 30.609375 C-12 32 -12 32 -14 33 C-13.38781794 29.18857595 -12.25973829 26.11869353 -10.56640625 22.65625 C-10.08236328 21.65722656 -9.59832031 20.65820312 -9.09960938 19.62890625 C-8.33874023 18.08009766 -8.33874023 18.08009766 -7.5625 16.5 C-6.56240832 14.44859556 -5.56366219 12.39653448 -4.56640625 10.34375 C-4.12240479 9.43818359 -3.67840332 8.53261719 -3.22094727 7.59960938 C-2.04617951 5.09832421 -0.99853663 2.57604449 0 0 Z " fill="#A423C9" transform="translate(90,129)"/>
<path d="M0 0 C4.75 0.875 4.75 0.875 7 2 C7.33 1.34 7.66 0.68 8 0 C7.43414727 4.18238974 6.45965847 7.64785814 4.75 11.5 C-0.62683092 23.93209605 -0.62683092 23.93209605 -4 37 C-4.33 37 -4.66 37 -5 37 C-4.66944259 30.05829437 -4.24571282 24.20918975 -1 18 C-2.98 18 -4.96 18 -7 18 C-6.731875 17.21625 -6.46375 16.4325 -6.1875 15.625 C-4.70766479 11.10760831 -3.35097726 6.55729662 -2 2 C-1.34 2 -0.68 2 0 2 C0 1.34 0 0.68 0 0 Z " fill="#C60499" transform="translate(83,62)"/>
<path d="M0 0 C1.32 0 2.64 0 4 0 C1.9770602 6.64766356 -0.65072929 12.81944187 -3.6875 19.0625 C-4.31108398 20.3609082 -4.31108398 20.3609082 -4.94726562 21.68554688 C-5.96010087 23.79270985 -6.9777159 25.8974094 -8 28 C-8.5625 26.0625 -8.5625 26.0625 -9 24 C-8.67 23.67 -8.34 23.34 -8 23 C-7.95936168 21.33382885 -7.957279 19.66611905 -8 18 C-8.99 18.33 -9.98 18.66 -11 19 C-11.68132451 20.66072849 -12.34742127 22.327767 -13 24 C-13.99 24.66 -14.98 25.32 -16 26 C-15.34 23.36 -14.68 20.72 -14 18 C-13.34 18 -12.68 18 -12 18 C-11.5978125 16.9171875 -11.5978125 16.9171875 -11.1875 15.8125 C-10 13 -10 13 -8.5 10.5625 C-6.87467861 7.78590929 -5.92875257 5.07202774 -5 2 C-3.68 2 -2.36 2 -1 2 C-0.67 1.34 -0.34 0.68 0 0 Z " fill="#5712AA" transform="translate(94,112)"/>
<path d="M0 0 C0.66 0 1.32 0 2 0 C0 5 0 5 -1 7.375 C-2.75730605 11.98792837 -4 16.04221232 -4 21 C-4.66 21.33 -5.32 21.66 -6 22 C-6 22.99 -6 23.98 -6 25 C-5.01 24.67 -4.02 24.34 -3 24 C-2.37996094 24.15597656 -1.75992188 24.31195313 -1.12109375 24.47265625 C1.44052994 25.10952402 3.33419718 24.81856898 5.9375 24.4375 C9.84475173 24.00016402 12.58458177 23.75863179 16 26 C18.34899856 29.76002894 18.24784322 32.60399937 17.6875 36.890625 C16.58734373 40.26610447 13.95656276 41.27533839 11 43 C10.03780298 45.62766389 10.03780298 45.62766389 10 48 C9.67 48 9.34 48 9 48 C8.280756 42.53374559 10.23735586 39.1018625 12.80859375 34.46484375 C14.28035469 31.68227814 14.28035469 31.68227814 15 27 C7.74 27 0.48 27 -7 27 C-8.12520008 19.12359942 -8.12520008 19.12359942 -6.85546875 15.95703125 C-6.59056641 15.27576172 -6.32566406 14.59449219 -6.05273438 13.89257812 C-5.76720703 13.20615234 -5.48167969 12.51972656 -5.1875 11.8125 C-4.91357422 11.11447266 -4.63964844 10.41644531 -4.35742188 9.69726562 C-3.04536587 6.39038107 -1.66588007 3.14485652 0 0 Z " fill="#E31FB8" transform="translate(87,74)"/>
<path d="M0 0 C0 0.99 0 1.98 0 3 C-5.445 2.505 -5.445 2.505 -11 2 C-11 2.99 -11 3.98 -11 5 C-7.6828589 6.4216319 -4.55780196 7.39009109 -1 8 C-0.67 9.32 -0.34 10.64 0 12 C-1.13888672 11.98259766 -1.13888672 11.98259766 -2.30078125 11.96484375 C-3.29464844 11.95582031 -4.28851563 11.94679688 -5.3125 11.9375 C-6.29863281 11.92589844 -7.28476562 11.91429688 -8.30078125 11.90234375 C-11.09963849 11.87670138 -11.09963849 11.87670138 -14 13 C-14.33 12.34 -14.66 11.68 -15 11 C-15.969375 10.731875 -16.93875 10.46375 -17.9375 10.1875 C-21 9 -21 9 -22.375 6.375 C-22.684375 5.199375 -22.684375 5.199375 -23 4 C-22.2575 4.2475 -21.515 4.495 -20.75 4.75 C-19.8425 4.8325 -18.935 4.915 -18 5 C-17.4225 4.401875 -16.845 3.80375 -16.25 3.1875 C-12.01457491 -0.93027439 -5.58538356 -1.80173663 0 0 Z " fill="#32383D" transform="translate(420,76)"/>
<path d="M0 0 C1.65 1.32 3.3 2.64 5 4 C5.66 3.01 6.32 2.02 7 1 C8 2 8 2 8.21484375 4.3359375 C7.97294848 7.33543883 7.43267377 8.32402739 5.5625 10.625 C5.02496094 11.29789063 4.48742187 11.97078125 3.93359375 12.6640625 C3.29550781 13.43492188 2.65742188 14.20578125 2 15 C1.20722656 15.97710937 0.41445312 16.95421875 -0.40234375 17.9609375 C-2.59032965 20.6501208 -4.79026747 23.32867889 -7 26 C-7.33 25.34 -7.66 24.68 -8 24 C-7.505 23.505 -7.01 23.01 -6.5 22.5 C-4.88163324 19.80272206 -4.84369995 18.90970734 -4.9375 15.875 C-4.958125 14.59625 -4.97875 13.3175 -5 12 C-4.34 11.34 -3.68 10.68 -3 10 C-2.3574765 7.93125966 -2.3574765 7.93125966 -2 6 C-1.34 6 -0.68 6 0 6 C0 4.02 0 2.04 0 0 Z " fill="#0F8498" transform="translate(148,76)"/>
<path d="M0 0 C15.59546384 13.04926566 15.59546384 13.04926566 16.265625 17.9375 C16.26046875 18.618125 16.2553125 19.29875 16.25 20 C16.25515625 20.680625 16.2603125 21.36125 16.265625 22.0625 C16 24 16 24 14 27 C12.68 26.67 11.36 26.34 10 26 C10.03480469 24.98679687 10.03480469 24.98679687 10.0703125 23.953125 C10.08835938 23.06109375 10.10640625 22.1690625 10.125 21.25 C10.14820313 20.36828125 10.17140625 19.4865625 10.1953125 18.578125 C9.99139502 15.8864142 9.36551721 14.30095026 8 12 C6.35 12 4.7 12 3 12 C2.8046875 10.046875 2.609375 8.09375 2.4140625 6.140625 C1.96467035 3.8173524 1.14225762 2.0616357 0 0 Z " fill="#18D1C9" transform="translate(182,76)"/>
<path d="M0 0 C0.33 0 0.66 0 1 0 C0.99777939 0.57993713 0.99555878 1.15987427 0.99327087 1.75738525 C0.97115208 7.79186385 0.95606579 13.82633094 0.94506836 19.86083984 C0.94003877 22.11312325 0.93321434 24.36540339 0.92456055 26.61767578 C0.91243494 29.85450039 0.90675794 33.09128183 0.90234375 36.328125 C0.89718246 37.33554749 0.89202118 38.34296997 0.88670349 39.38092041 C0.88662796 40.32159363 0.88655243 41.26226685 0.88647461 42.23144531 C0.884254 43.05751282 0.88203339 43.88358032 0.87974548 44.73468018 C0.94472883 47.31942183 0.94472883 47.31942183 2 51 C5.3 51.66 8.6 52.32 12 53 C11.67 53.66 11.34 54.32 11 55 C7.04 54.67 3.08 54.34 -1 54 C-1.20638953 17.53573348 -1.20638953 17.53573348 0 0 Z " fill="#31373C" transform="translate(219,68)"/>
<path d="M0 0 C0 3 0 3 -1.875 5.125 C-4.65308918 8.88359125 -5.24757942 12.45577573 -6 17 C-5.01 17.33 -4.02 17.66 -3 18 C-3 18.66 -3 19.32 -3 20 C4.26 20.33 11.52 20.66 19 21 C18.67 21.99 18.34 22.98 18 24 C14.76954027 23.94791754 11.54171241 23.85279846 8.3125 23.75 C7.40048828 23.73582031 6.48847656 23.72164062 5.54882812 23.70703125 C1.22808616 23.54991336 -1.35008457 23.40527046 -5.08203125 21.078125 C-7.48652145 18.47285252 -7.94137635 17.41874034 -8.4375 13.875 C-7.75916766 7.8669136 -4.1750435 4.1750435 0 0 Z " fill="#8429A7" transform="translate(43,83)"/>
<path d="M0 0 C0.66 0.33 1.32 0.66 2 1 C1.01 4.3 0.02 7.6 -1 11 C-1.66 11 -2.32 11 -3 11 C-3.103125 11.70125 -3.20625 12.4025 -3.3125 13.125 C-4 16 -4 16 -7 22 C1.58 22 10.16 22 19 22 C19.33 23.65 19.66 25.3 20 27 C19.34 27.66 18.68 28.32 18 29 C18 27.02 18 25.04 18 23 C9.42 23 0.84 23 -8 23 C-8.33 20.69 -8.66 18.38 -9 16 C-8.01 16 -7.02 16 -6 16 C-6.04125 15.0925 -6.0825 14.185 -6.125 13.25 C-6.00468444 10.1217954 -5.6085292 8.61385994 -4 6 C-3.34 6 -2.68 6 -2 6 C-1.34 4.02 -0.68 2.04 0 0 Z " fill="#C06BA6" transform="translate(129,53)"/>
<path d="M0 0 C0.33 0.99 0.66 1.98 1 3 C0.38125 3.226875 -0.2375 3.45375 -0.875 3.6875 C-3.69339387 5.42827269 -4.11944786 6.84468818 -5 10 C-5.16798262 12.70886941 -5.16798262 12.70886941 -5 15 C-5.99 15.33 -6.98 15.66 -8 16 C-8.309375 16.99 -8.61875 17.98 -8.9375 19 C-9.288125 19.99 -9.63875 20.98 -10 22 C-12.125 22.875 -12.125 22.875 -14 23 C-14.33 22.01 -14.66 21.02 -15 20 C-15.66 19.67 -16.32 19.34 -17 19 C-16.19175781 18.13117188 -15.38351563 17.26234375 -14.55078125 16.3671875 C-13.47127513 15.20319829 -12.3918525 14.03913165 -11.3125 12.875 C-10.78205078 12.30523437 -10.25160156 11.73546875 -9.70507812 11.1484375 C-6.34790794 7.52351755 -3.13096309 3.82221468 0 0 Z " fill="#3121AE" transform="translate(94,142)"/>
<path d="M0 0 C1.125 3.75 1.125 3.75 0 6 C-0.804375 6.28875 -1.60875 6.5775 -2.4375 6.875 C-5.0990079 7.76254122 -5.0990079 7.76254122 -6.25 9.9375 C-6.86017494 11.6154811 -7.43538207 13.30614622 -8 15 C-8.99 14.67 -9.98 14.34 -11 14 C-15.28070998 17.77593959 -15.28070998 17.77593959 -17 23 C-17.99 22.01 -18.98 21.02 -20 20 C-16.56009524 13.12019048 -10.65747477 7.6985971 -4 4 C-2.63015802 2.70420353 -1.2848951 1.38007251 0 0 Z " fill="#E82BA1" transform="translate(79,49)"/>
<path d="M0 0 C-3.21201499 6.97782567 -8.54467284 12.69211411 -14 18 C-14.99 19.3303125 -14.99 19.3303125 -16 20.6875 C-18.19539877 23.22592982 -19.82770221 24.03068679 -23 25 C-23 24.34 -23 23.68 -23 23 C-22.34 23 -21.68 23 -21 23 C-20.773125 22.071875 -20.54625 21.14375 -20.3125 20.1875 C-18.76574432 16.43109336 -17.47447082 15.8708689 -14 14 C-13.67 13.01 -13.34 12.02 -13 11 C-11 9 -11 9 -8.5 7.125 C-6.09664746 5.08215034 -5.25441438 3.798309 -4 1 C-2 0 -2 0 0 0 Z " fill="#D832B9" transform="translate(133,97)"/>
<path d="M0 0 C0.33 0.66 0.66 1.32 1 2 C0.0126546 3.67419438 -0.98812105 5.34051852 -2 7 C-2 7.99 -2 8.98 -2 10 C-1.34 10 -0.68 10 0 10 C-0.6875 11.9375 -0.6875 11.9375 -2 14 C-4.375 14.6875 -4.375 14.6875 -7 15 C-10.29927985 15.58222586 -11.79249632 16.46137077 -14 19 C-14.66 18.67 -15.32 18.34 -16 18 C-15.06409496 16.8944811 -14.12620142 15.79064547 -13.1875 14.6875 C-12.66542969 14.07261719 -12.14335938 13.45773438 -11.60546875 12.82421875 C-10.12688724 11.14417601 -8.58176553 9.58176553 -7 8 C-5.76122932 6.61268295 -4.53235217 5.2164808 -3.3125 3.8125 C-2.68988281 3.09707031 -2.06726563 2.38164063 -1.42578125 1.64453125 C-0.95527344 1.10183594 -0.48476562 0.55914062 0 0 Z " fill="#262FA9" transform="translate(111,123)"/>
<path d="M0 0 C4.875 3.625 4.875 3.625 6 7 C8.9192476 6.56751887 10.05786193 5.94839341 12.3125 3.9375 C15.72511935 1.47723954 17.88693102 1.67740635 22 2 C21.04578192 3.14926266 20.08647955 4.29430541 19.125 5.4375 C18.59132813 6.07558594 18.05765625 6.71367187 17.5078125 7.37109375 C16 9 16 9 14 10 C9.68475797 10.04165292 6.07430819 9.75201573 2.5 7.25 C0.85779109 4.78668664 0.32502798 2.92525181 0 0 Z " fill="#22219F" transform="translate(62,162)"/>
<path d="M0 0 C0.66 1.32 1.32 2.64 2 4 C1.2884375 4.86625 1.2884375 4.86625 0.5625 5.75 C-1.00885118 8.0127457 -1.38148848 9.37132605 -2 12 C-2.94685616 14.68848278 -3.97956875 17.33800543 -5 20 C-2.03 19.34 0.94 18.68 4 18 C4 18.66 4 19.32 4 20 C4.639375 20.12375 5.27875 20.2475 5.9375 20.375 C6.618125 20.58125 7.29875 20.7875 8 21 C8.33 21.66 8.66 22.32 9 23 C8.47921875 22.84660156 7.9584375 22.69320312 7.421875 22.53515625 C4.36721485 21.86017489 1.36984029 21.65588882 -1.75 21.4375 C-2.92046875 21.35371094 -4.0909375 21.26992187 -5.296875 21.18359375 C-6.18890625 21.12300781 -7.0809375 21.06242187 -8 21 C-7.35064191 17.03818603 -6.13419855 13.626561 -4.5625 9.9375 C-4.13066406 8.91527344 -3.69882813 7.89304687 -3.25390625 6.83984375 C-2.22987589 4.52062233 -1.16140402 2.25258362 0 0 Z " fill="#13CDC3" transform="translate(143,46)"/>
<path d="M0 0 C1.32 0 2.64 0 4 0 C2.36041242 5.23272633 0.61047965 10.15196636 -2 15 C-3.74271938 12.702779 -5.39911152 10.40133271 -7 8 C-6.125 4.8125 -6.125 4.8125 -5 2 C-3.68 2 -2.36 2 -1 2 C-0.67 1.34 -0.34 0.68 0 0 Z " fill="#6A0FA9" transform="translate(94,112)"/>
<path d="M0 0 C0.33 0 0.66 0 1 0 C1.16791607 4.76866395 1.32844326 9.53749838 1.48217773 14.30664062 C1.53549272 15.9284532 1.59081357 17.55020115 1.64819336 19.171875 C1.73039833 21.5050666 1.80534775 23.83839676 1.87890625 26.171875 C1.90594131 26.89493835 1.93297638 27.61800171 1.96083069 28.36297607 C2.06061331 31.74133401 2.08401439 34.77350599 1 38 C0.01 38 -0.98 38 -2 38 C-2 38.66 -2 39.32 -2 40 C-2.99 39.67 -3.98 39.34 -5 39 C-4.52006592 38.67346436 -4.04013184 38.34692871 -3.5456543 38.01049805 C-1.17499134 34.92687627 -1.40680951 31.58153996 -1.26953125 27.83203125 C-1.229384 27.03721848 -1.18923676 26.2424057 -1.14787292 25.42350769 C-1.02280111 22.88693531 -0.91741796 20.34997811 -0.8125 17.8125 C-0.73111356 16.0917351 -0.64844667 14.37103024 -0.56445312 12.65039062 C-0.36144215 8.43414648 -0.17608277 4.2174511 0 0 Z " fill="#1F3F98" transform="translate(169,128)"/>
<path d="M0 0 C1.875 0.3125 1.875 0.3125 4 1 C4.66 1.99 5.32 2.98 6 4 C5.34 4 4.68 4 4 4 C3.896875 4.7425 3.79375 5.485 3.6875 6.25 C2.95746496 9.17014018 1.93210602 10.73187554 0 13 C-0.66 12.34 -1.32 11.68 -2 11 C-2.99 11.495 -2.99 11.495 -4 12 C-4.61528766 6.92387682 -2.61658349 4.17017994 0 0 Z " fill="#09AEA4" transform="translate(141,37)"/>
<path d="M0 0 C3.21490927 2.14327284 4.14609413 3.69521128 6 7 C6.99 8.485 6.99 8.485 8 10 C8 10.99 8 11.98 8 13 C8.66 13 9.32 13 10 13 C9.979375 13.928125 9.95875 14.85625 9.9375 15.8125 C9.84230396 19.02286011 9.84230396 19.02286011 11 22 C10.34 22.66 9.68 23.32 9 24 C7.49115787 20.56631406 5.99446599 17.12746451 4.5 13.6875 C4.07074219 12.71103516 3.64148438 11.73457031 3.19921875 10.72851562 C2.79316406 9.79072266 2.38710938 8.85292969 1.96875 7.88671875 C1.40317383 6.59060669 1.40317383 6.59060669 0.82617188 5.26831055 C0 3 0 3 0 0 Z " fill="#353A3F" transform="translate(551,79)"/>
<path d="M0 0 C0.99 0.33 1.98 0.66 3 1 C-0.30288336 3.20192224 -1.27462727 3.23959968 -5.10546875 3.1953125 C-6.08837891 3.18886719 -7.07128906 3.18242188 -8.08398438 3.17578125 C-9.62022461 3.15064453 -9.62022461 3.15064453 -11.1875 3.125 C-12.22326172 3.11597656 -13.25902344 3.10695313 -14.32617188 3.09765625 C-16.88434685 3.0740786 -19.44205748 3.0411703 -22 3 C-22 5.97 -22 8.94 -22 12 C-22.99 12.495 -22.99 12.495 -24 13 C-24.38897161 11.37828761 -24.76078298 9.75245075 -25.125 8.125 C-25.43824219 6.76761719 -25.43824219 6.76761719 -25.7578125 5.3828125 C-25.83773437 4.59648438 -25.91765625 3.81015625 -26 3 C-24 1 -24 1 -21.67749023 0.78881836 C-20.73075439 0.80565674 -19.78401855 0.82249512 -18.80859375 0.83984375 C-17.26848633 0.8562793 -17.26848633 0.8562793 -15.69726562 0.87304688 C-14.08368164 0.90495117 -14.08368164 0.90495117 -12.4375 0.9375 C-10.31126324 0.97177367 -8.1849551 1.00195037 -6.05859375 1.02734375 C-4.64018188 1.05429321 -4.64018188 1.05429321 -3.19311523 1.08178711 C-1.02310224 1.24985691 -1.02310224 1.24985691 0 0 Z " fill="#1CA6B9" transform="translate(192,103)"/>
<path d="M0 0 C0.66 0.66 1.32 1.32 2 2 C3.31747324 2.69748583 4.64914193 3.36959957 6 4 C5.67 5.32 5.34 6.64 5 8 C0.58937864 9.0257259 -1.92630576 9.03684712 -6 7 C-5.8125 5.1875 -5.8125 5.1875 -5 3 C-2.4375 1.25 -2.4375 1.25 0 0 Z " fill="#1E2BA8" transform="translate(159,161)"/>
<path d="M0 0 C0.99 0.33 1.98 0.66 3 1 C2.98693077 4.42413732 2.83128742 7.669589 2 11 C-1 13.3125 -1 13.3125 -4 15 C-4.96219702 17.62766389 -4.96219702 17.62766389 -5 20 C-5.33 20 -5.66 20 -6 20 C-6.7214682 14.51684165 -4.74365094 11.03539573 -2.19140625 6.3671875 C-1.10947266 4.21750961 -0.47070259 2.34810256 0 0 Z " fill="#C722BE" transform="translate(102,102)"/>
<path d="M0 0 C0.5775 0.165 1.155 0.33 1.75 0.5 C4.26664369 1.14462031 4.26664369 1.14462031 8 1 C9.75 2.5 9.75 2.5 11 4 C10.34 4 9.68 4 9 4 C9 4.763125 9 5.52625 9 6.3125 C9 8.20833333 9 10.10416667 9 12 C4.68717738 9.46856064 2.37641972 7.88003355 1 3 C0.67 2.01 0.34 1.02 0 0 Z " fill="#3A4147" transform="translate(309,106)"/>
<path d="M0 0 C0.33 0 0.66 0 1 0 C1 6.6 1 13.2 1 20 C-2.96 20 -6.92 20 -11 20 C-10.34 18.68 -9.68 17.36 -9 16 C-9 16.66 -9 17.32 -9 18 C-6.69 18 -4.38 18 -2 18 C-0.92974595 13.05007503 -0.95382607 8.32592997 -1.0625 3.29296875 C-1 1 -1 1 0 0 Z " fill="#30363C" transform="translate(434,102)"/>
<path d="M0 0 C1.65 1.32 3.3 2.64 5 4 C4.01 5.485 4.01 5.485 3 7 C2.61500109 8.65549531 2.27206865 10.3222433 2 12 C1.34 12 0.68 12 0 12 C-0.0825 12.825 -0.165 13.65 -0.25 14.5 C-1.16447269 18.76753921 -2.92223178 22.19236894 -5 26 C-6.42034526 23.15930948 -5.52465391 21.11461616 -4.7421875 18.15625 C-4.00509179 16.01479298 -3.10172463 14.25004172 -1.9375 12.3125 C0.25973374 8.5559391 1.37759206 5.99584376 0.5625 1.6875 C0.376875 1.130625 0.19125 0.57375 0 0 Z " fill="#DB89A9" transform="translate(136,30)"/>
<path d="M0 0 C1.04449911 3.13349732 0.93423645 3.98968256 0 7 C0.99 7.33 1.98 7.66 3 8 C0.03 11.3 -2.94 14.6 -6 18 C-7.42600325 13.72199024 -5.45637064 11.13234078 -3.5625 7.3125 C-3.22412109 6.61060547 -2.88574219 5.90871094 -2.53710938 5.18554688 C-1.70018652 3.45276294 -0.85122607 1.72580248 0 0 Z " fill="#9326CD" transform="translate(83,144)"/>
<path d="M0 0 C0.33 1.32 0.66 2.64 1 4 C0.34 4 -0.32 4 -1 4 C-2.94002992 10.44798846 -2.94002992 10.44798846 -2 17 C-2.99 17 -3.98 17 -5 17 C-5.33 13.37 -5.66 9.74 -6 6 C-6.99 5.67 -7.98 5.34 -9 5 C-8.67 4.34 -8.34 3.68 -8 3 C-7.01 3.33 -6.02 3.66 -5 4 C-5 3.34 -5 2.68 -5 2 C-3.35 1.34 -1.7 0.68 0 0 Z " fill="#0BCABE" transform="translate(161,66)"/>
<path d="M0 0 C0.99 0.33 1.98 0.66 3 1 C3.2475 1.66 3.495 2.32 3.75 3 C4.91457205 5.37813249 4.91457205 5.37813249 8.25 5.8125 C11.72753791 5.9863769 14.6120698 5.74369199 18 5 C18 4.34 18 3.68 18 3 C18.66 3.33 19.32 3.66 20 4 C16.25 7.875 16.25 7.875 14 9 C9.65312674 9.04195824 6.06161845 8.76967338 2.5 6.1875 C1.03667332 4.05348193 0.36355191 2.5448634 0 0 Z " fill="#20278E" transform="translate(149,163)"/>
<path d="M0 0 C4.29 0 8.58 0 13 0 C13 4.73711475 12.596387 6.56002457 10.6875 10.6875 C10.25824219 11.64011719 9.82898438 12.59273437 9.38671875 13.57421875 C8 16 8 16 5 18 C6.66666667 13 8.33333333 8 10 3 C8.41727399 1.41727399 6.61965997 1.65264253 4.4375 1.4375 C3.61121094 1.35371094 2.78492187 1.26992187 1.93359375 1.18359375 C1.29550781 1.12300781 0.65742187 1.06242187 0 1 C0 0.67 0 0.34 0 0 Z " fill="#8C1CBD" transform="translate(78,108)"/>
<path d="M0 0 C0.99 0 1.98 0 3 0 C3 1.65 3 3.3 3 5 C2.01 5.33 1.02 5.66 0 6 C-0.60815184 7.84697374 -0.60815184 7.84697374 -1 10 C-1.65140796 11.43362072 -2.3396927 12.85101812 -3.0625 14.25 C-3.42472656 14.95640625 -3.78695312 15.6628125 -4.16015625 16.390625 C-4.43730469 16.92171875 -4.71445313 17.4528125 -5 18 C-6.66201898 13.94507418 -5.20927166 11.22066185 -3.625 7.3125 C-3.16351563 6.15363281 -2.70203125 4.99476562 -2.2265625 3.80078125 C-1 1 -1 1 0 0 Z " fill="#FC66A5" transform="translate(108,22)"/>
<path d="M0 0 C0.33 0.66 0.66 1.32 1 2 C-3.625 7.75 -3.625 7.75 -7 10 C-7 10.99 -7 11.98 -7 13 C-7.99 13.33 -8.98 13.66 -10 14 C-10.33 14.99 -10.66 15.98 -11 17 C-12.32 16.34 -13.64 15.68 -15 15 C-10.05 10.05 -5.1 5.1 0 0 Z " fill="#B336AA" transform="translate(59,67)"/>
<path d="M0 0 C1.65 0.33 3.3 0.66 5 1 C4.58424938 5.85042388 2.58340022 7.84319505 -1 11 C-1.99 11.66 -2.98 12.32 -4 13 C-3.71517632 11.58194169 -3.42181856 10.16559621 -3.125 8.75 C-2.96257812 7.96109375 -2.80015625 7.1721875 -2.6328125 6.359375 C-2.00849925 4.03168856 -1.15161458 2.10968048 0 0 Z " fill="#194EA3" transform="translate(124,114)"/>
<path d="M0 0 C0.33 0 0.66 0 1 0 C1.6875 2.75 1.6875 2.75 2 6 C0.6875 8.0625 0.6875 8.0625 -1 10 C-1.309375 10.86625 -1.61875 11.7325 -1.9375 12.625 C-3 15 -3 15 -5.125 16.3125 C-6.053125 16.6528125 -6.053125 16.6528125 -7 17 C-6.67 15.35 -6.34 13.7 -6 12 C-5.34 12 -4.68 12 -4 12 C-3.896875 11.13375 -3.79375 10.2675 -3.6875 9.375 C-2.96601586 5.83316877 -1.72876739 3.15687958 0 0 Z " fill="#2E838F" transform="translate(132,52)"/>
<path d="M0 0 C2.0625 2.1875 2.0625 2.1875 4 5 C3.6875 7.5625 3.6875 7.5625 3 10 C3.2784375 11.0828125 3.2784375 11.0828125 3.5625 12.1875 C3.706875 12.785625 3.85125 13.38375 4 14 C3.34 14.66 2.68 15.32 2 16 C1.34 15.67 0.68 15.34 0 15 C-1.2194696 9.96306036 -1.16321305 5.0405899 0 0 Z " fill="#303538" transform="translate(306,92)"/>
<path d="M0 0 C2.475 0.99 2.475 0.99 5 2 C3.79618552 4.49361571 2.54571278 6.68143083 1 9 C1.66 9.33 2.32 9.66 3 10 C3 10.66 3 11.32 3 12 C0.525 11.01 0.525 11.01 -2 10 C-1.85950482 8.52031676 -1.71245174 7.04125484 -1.5625 5.5625 C-1.48128906 4.73878906 -1.40007813 3.91507813 -1.31640625 3.06640625 C-1 1 -1 1 0 0 Z M0 2 C1 4 1 4 1 4 Z " fill="#303539" transform="translate(552,125)"/>
<path d="M0 0 C0.61875 0.226875 1.2375 0.45375 1.875 0.6875 C2.535 0.3575 3.195 0.0275 3.875 -0.3125 C2.62622171 3.43383486 0.81452555 5.09791797 -2.125 7.6875 C-3.115 7.6875 -4.105 7.6875 -5.125 7.6875 C-5.875 5.9375 -5.875 5.9375 -6.125 3.6875 C-3.10131012 -0.45607502 -3.10131012 -0.45607502 0 0 Z " fill="#B329C1" transform="translate(110.125,120.3125)"/>
<path d="M0 0 C4.31559985 1.04643749 7.21135667 4.41200616 10.20703125 7.53515625 C7.20703125 7.53515625 7.20703125 7.53515625 4.89453125 5.59765625 C1.89470495 3.29546397 -0.07852644 2.88068577 -3.79296875 2.53515625 C-4.47359375 3.49421875 -4.47359375 3.49421875 -5.16796875 4.47265625 C-6.79296875 6.53515625 -6.79296875 6.53515625 -8.79296875 7.53515625 C-8.98046875 5.16015625 -8.98046875 5.16015625 -8.79296875 2.53515625 C-5.67965687 0.459615 -3.72076097 -0.04832157 0 0 Z " fill="#E991A9" transform="translate(117.79296875,13.46484375)"/>
<path d="M0 0 C0.33 0 0.66 0 1 0 C1.3125 2.3125 1.3125 2.3125 1 5 C-1.375 6.5625 -1.375 6.5625 -4 8 C-5.32793606 10.06700655 -5.32793606 10.06700655 -6 12 C-6.99 12 -7.98 12 -9 12 C-9 12.66 -9 13.32 -9 14 C-9.66 13.67 -10.32 13.34 -11 13 C-9.88266271 11.49428343 -8.75589965 9.99555708 -7.625 8.5 C-6.99851562 7.6646875 -6.37203125 6.829375 -5.7265625 5.96875 C-5.15679687 5.3190625 -4.58703125 4.669375 -4 4 C-3.34 4 -2.68 4 -2 4 C-1.34 2.68 -0.68 1.36 0 0 Z " fill="#47439D" transform="translate(126,106)"/>
<path d="M0 0 C0.66 0 1.32 0 2 0 C0 5 0 5 -1 7.375 C-2.09861404 10.13436163 -2.09861404 10.13436163 -3 13.625 C-4 17 -4 17 -6 20 C-7.07980476 16.78249481 -6.97733906 15.17877268 -5.56640625 12.109375 C-5.24736328 11.40039062 -4.92832031 10.69140625 -4.59960938 9.9609375 C-4.25736328 9.23132813 -3.91511719 8.50171875 -3.5625 7.75 C-3.22412109 7.00492187 -2.88574219 6.25984375 -2.53710938 5.4921875 C-1.70173696 3.65672135 -0.85222033 1.82770445 0 0 Z " fill="#EB21AE" transform="translate(87,74)"/>
<path d="M0 0 C0.33 0.99 0.66 1.98 1 3 C2.65 3.33 4.3 3.66 6 4 C6.103125 4.639375 6.20625 5.27875 6.3125 5.9375 C6.6528125 6.9584375 6.6528125 6.9584375 7 8 C7.99 8.33 8.98 8.66 10 9 C9.67 10.32 9.34 11.64 9 13 C6.72494996 10.83328568 4.76424908 8.60436769 3 6 C3 5.34 3 4.68 3 4 C1.02 4.33 -0.96 4.66 -3 5 C-1.125 1.125 -1.125 1.125 0 0 Z " fill="#0BE5CF" transform="translate(163,59)"/>
<path d="M0 0 C1 2 1 2 0.22265625 4.6015625 C-0.16019531 5.59929688 -0.54304688 6.59703125 -0.9375 7.625 C-1.31777344 8.62789062 -1.69804688 9.63078125 -2.08984375 10.6640625 C-2.39019531 11.43492188 -2.69054687 12.20578125 -3 13 C-4.76462683 9.91190305 -5 8.76687864 -5 5 C-2.5 2.25 -2.5 2.25 0 0 Z " fill="#ED297C" transform="translate(107,21)"/>
<path d="M0 0 C0.66 0.33 1.32 0.66 2 1 C-1.63 4.63 -5.26 8.26 -9 12 C-10 10 -10 10 -9.375 7.5 C-7.64515491 4.3548271 -6.31879924 4.13324852 -3 3 C-1.22722741 1.47992158 -1.22722741 1.47992158 0 0 Z " fill="#2A278E" transform="translate(94,152)"/>
<path d="M0 0 C0.99 0.33 1.98 0.66 3 1 C3.6875 3.8125 3.6875 3.8125 4 7 C2.6875 8.875 2.6875 8.875 1 10 C0.34 10 -0.32 10 -1 10 C-1.08004482 6.4780279 -1.04005702 3.38018531 0 0 Z " fill="#029496" transform="translate(152,71)"/>
<path d="M0 0 C0.66 0.33 1.32 0.66 2 1 C2 1.66 2 2.32 2 3 C2.99 3.33 3.98 3.66 5 4 C4.67 5.32 4.34 6.64 4 8 C3.34 8 2.68 8 2 8 C1.67 7.34 1.34 6.68 1 6 C0.01 6.495 0.01 6.495 -1 7 C-1.66 5.02 -2.32 3.04 -3 1 C-2.01 0.67 -1.02 0.34 0 0 Z " fill="#25282F" transform="translate(572,97)"/>
<path d="M0 0 C0.33 0 0.66 0 1 0 C1.3125 2.1875 1.3125 2.1875 1 5 C-1.3125 7.5625 -1.3125 7.5625 -4 10 C-4.556875 10.763125 -5.11375 11.52625 -5.6875 12.3125 C-6.3371875 13.1478125 -6.3371875 13.1478125 -7 14 C-7.66 14 -8.32 14 -9 14 C-7.5062054 9.3828167 -5.13786273 6.60854214 -2 3 C-1.34 2.01 -0.68 1.02 0 0 Z " fill="#13A6B9" transform="translate(155,83)"/>
<path d="M0 0 C0 0.99 0 1.98 0 3 C-3.63 2.67 -7.26 2.34 -11 2 C-11 1.34 -11 0.68 -11 0 C-6.98195309 -0.84098656 -3.98196457 -1.05404945 0 0 Z " fill="#2D3337" transform="translate(420,76)"/>
<path d="M0 0 C0.66 0.33 1.32 0.66 2 1 C1.52794881 5.24846075 -0.88877522 7.26819288 -4 10 C-4.66 10 -5.32 10 -6 10 C-6 9.34 -6 8.68 -6 8 C-5.34 8 -4.68 8 -4 8 C-3.71125 7.05125 -3.4225 6.1025 -3.125 5.125 C-2 2 -2 2 0 0 Z " fill="#CF28BD" transform="translate(116,112)"/>
<path d="M0 0 C1.16161779 2.86578759 0.9946154 4.01630163 0.00390625 7.015625 C-0.70958984 8.61664063 -0.70958984 8.61664063 -1.4375 10.25 C-1.91058594 11.32765625 -2.38367188 12.4053125 -2.87109375 13.515625 C-3.24363281 14.33546875 -3.61617188 15.1553125 -4 16 C-4.33 16 -4.66 16 -5 16 C-5 14.02 -5 12.04 -5 10 C-4.34 10 -3.68 10 -3 10 C-2.67 7.36 -2.34 4.72 -2 2 C-1.34 2 -0.68 2 0 2 C0 1.34 0 0.68 0 0 Z " fill="#D0078D" transform="translate(90,62)"/>
<path d="M0 0 C0.33 0.66 0.66 1.32 1 2 C0.03600241 3.76732892 -0.93421668 5.53336476 -1.9921875 7.24609375 C-3.15597057 9.13713793 -3.15597057 9.13713793 -4 12 C-4.99 11.01 -5.98 10.02 -7 9 C-5.03681826 5.46627288 -2.95929119 2.75520215 0 0 Z " fill="#CD27A7" transform="translate(66,60)"/>
<path d="M0 0 C1.32 0.66 2.64 1.32 4 2 C3.67 2.66 3.34 3.32 3 4 C3.99 4 4.98 4 6 4 C6.99 5.485 6.99 5.485 8 7 C5.6875 7.6875 5.6875 7.6875 3 8 C0.80133072 6.50804584 0.13151889 5.37263686 -0.75 2.875 C-0.8325 2.25625 -0.915 1.6375 -1 1 C-0.67 0.67 -0.34 0.34 0 0 Z " fill="#3E4449" transform="translate(496,78)"/>
<path d="M0 0 C0.66 0 1.32 0 2 0 C3.44207941 2.88415883 3.09394887 5.41721528 3.0625 8.625 C3.05347656 9.81351563 3.04445313 11.00203125 3.03515625 12.2265625 C3.02355469 13.14179687 3.01195312 14.05703125 3 15 C0.22957891 12.22957891 0.60203894 10.23466195 0.375 6.375 C0.30023438 5.18648438 0.22546875 3.99796875 0.1484375 2.7734375 C0.09945313 1.85820313 0.05046875 0.94296875 0 0 Z " fill="#30363B" transform="translate(265,76)"/>
<path d="M0 0 C0 0.66 0 1.32 0 2 C-5.59306069 4.05459372 -8.40693931 4.05459372 -14 2 C-14 1.67 -14 1.34 -14 1 C-9.32798795 -0.20568053 -4.78503708 -0.09382426 0 0 Z " fill="#2A3038" transform="translate(478,75)"/>
<path d="M0 0 C0.99 0.66 1.98 1.32 3 2 C3.3125 5 3.3125 5 3 8 C2.34 8.66 1.68 9.32 1 10 C1 9.01 1 8.02 1 7 C0.67 6.01 0.34 5.02 0 4 C-1.65 5.32 -3.3 6.64 -5 8 C-4.45773019 4.20411134 -2.79872437 2.52788007 0 0 Z " fill="#EC1479" transform="translate(100,28)"/>
<path d="M0 0 C4.875 3.625 4.875 3.625 6 7 C7.32 7 8.64 7 10 7 C10 7.66 10 8.32 10 9 C10.99 9.33 11.98 9.66 13 10 C5.71653543 9.5144357 5.71653543 9.5144357 2.5625 7.25 C0.84903155 4.78260543 0.32945919 2.9651327 0 0 Z " fill="#2B1E86" transform="translate(62,162)"/>
<path d="M0 0 C0 2.95274099 -0.43891831 4.49058403 -1.5 7.1875 C-1.7784375 7.90292969 -2.056875 8.61835937 -2.34375 9.35546875 C-2.5603125 9.89816406 -2.776875 10.44085938 -3 11 C-3.99 11 -4.98 11 -6 11 C-5.67 9.02 -5.34 7.04 -5 5 C-4.34 5 -3.68 5 -3 5 C-2.5359375 4.0409375 -2.5359375 4.0409375 -2.0625 3.0625 C-1 1 -1 1 0 0 Z " fill="#2F7194" transform="translate(145,84)"/>
<path d="M0 0 C0.66 0.33 1.32 0.66 2 1 C0.89404256 5.88464536 0.18577574 8.23500586 -4 11 C-3.71890887 9.35232753 -3.42481474 7.70686855 -3.125 6.0625 C-2.96257812 5.14597656 -2.80015625 4.22945312 -2.6328125 3.28515625 C-2.42398438 2.53105469 -2.21515625 1.77695313 -2 1 C-1.34 0.67 -0.68 0.34 0 0 Z " fill="#5419B3" transform="translate(76,156)"/>
<path d="M0 0 C0.99 0.99 1.98 1.98 3 3 C2.53980469 3.40863281 2.07960937 3.81726562 1.60546875 4.23828125 C-0.15914771 6.17463654 -0.83971622 7.72488998 -1.6875 10.1875 C-1.93886719 10.90292969 -2.19023437 11.61835937 -2.44921875 12.35546875 C-2.72185547 13.16951172 -2.72185547 13.16951172 -3 14 C-3.66 14 -4.32 14 -5 14 C-4.67 12.02 -4.34 10.04 -4 8 C-3.34 8 -2.68 8 -2 8 C-2.04125 7.236875 -2.0825 6.47375 -2.125 5.6875 C-2 3 -2 3 0 0 Z " fill="#50A19E" transform="translate(140,34)"/>
<path d="M0 0 C1.6254308 0.14095064 3.25034051 0.28792087 4.875 0.4375 C5.77992188 0.51871094 6.68484375 0.59992188 7.6171875 0.68359375 C10 1 10 1 12 2 C11.67 2.66 11.34 3.32 11 4 C7.04 3.67 3.08 3.34 -1 3 C-0.67 2.01 -0.34 1.02 0 0 Z " fill="#2A3036" transform="translate(219,119)"/>
<path d="M0 0 C0.33 0.66 0.66 1.32 1 2 C0.38511719 2.68835938 0.38511719 2.68835938 -0.2421875 3.390625 C-1.05042969 4.31101562 -1.05042969 4.31101562 -1.875 5.25 C-2.40867188 5.85328125 -2.94234375 6.4565625 -3.4921875 7.078125 C-4.9797487 8.97418746 -6.00322436 10.81290005 -7 13 C-7.99 12.67 -8.98 12.34 -10 12 C-8.88266271 10.49428343 -7.75589965 8.99555708 -6.625 7.5 C-5.99851563 6.6646875 -5.37203125 5.829375 -4.7265625 4.96875 C-4.15679687 4.3190625 -3.58703125 3.669375 -3 3 C-2.34 3 -1.68 3 -1 3 C-0.67 2.01 -0.34 1.02 0 0 Z " fill="#555195" transform="translate(137,93)"/>
<path d="M0 0 C0.33 0.99 0.66 1.98 1 3 C-2.3 5.97 -5.6 8.94 -9 12 C-9.66 11.67 -10.32 11.34 -11 11 C-7.37 7.37 -3.74 3.74 0 0 Z " fill="#D33F96" transform="translate(82,44)"/>
<path d="M0 0 C0.33 0.66 0.66 1.32 1 2 C-2.625 7.875 -2.625 7.875 -6 9 C-6 9.66 -6 10.32 -6 11 C-6.66 10.67 -7.32 10.34 -8 10 C-5.83735988 6.01618925 -3.28788824 3.11016455 0 0 Z " fill="#492AA6" transform="translate(111,123)"/>
<path d="M0 0 C1.7492214 -0.08142927 3.49954542 -0.13938541 5.25 -0.1875 C6.22453125 -0.22230469 7.1990625 -0.25710937 8.203125 -0.29296875 C11.37468742 0.03924798 12.67040307 0.88672279 15 3 C13.25 3.625 13.25 3.625 11 4 C9.65753688 3.35191436 8.32567199 2.68177416 7 2 C4.67504723 1.61250787 2.34148732 1.27017161 0 1 C0 0.67 0 0.34 0 0 Z " fill="#04A4A4" transform="translate(137,67)"/>
<path d="M0 0 C0.66 0 1.32 0 2 0 C1.33501617 4.38889325 -0.18757677 7.9811485 -2 12 C-2.66 10.68 -3.32 9.36 -4 8 C-3.34 8 -2.68 8 -2 8 C-1.855625 7.236875 -1.71125 6.47375 -1.5625 5.6875 C-1 3 -1 3 0 0 Z " fill="#DC0F80" transform="translate(95,48)"/>
<path d="M0 0 C0.99 0.33 1.98 0.66 3 1 C2.67 2.65 2.34 4.3 2 6 C1.34 5.67 0.68 5.34 0 5 C-0.33 7.64 -0.66 10.28 -1 13 C-1.33 13 -1.66 13 -2 13 C-2.05391993 11.20866022 -2.09275571 9.41686101 -2.125 7.625 C-2.14820313 6.62726563 -2.17140625 5.62953125 -2.1953125 4.6015625 C-2 2 -2 2 0 0 Z " fill="#292C3A" transform="translate(460,118)"/>
<path d="M0 0 C-1.66751148 3.94139078 -4.22710649 6.7892812 -7 10 C-7.33 9.34 -7.66 8.68 -8 8 C-3.92982456 0 -3.92982456 0 0 0 Z " fill="#D73BAF" transform="translate(133,97)"/>
<path d="M0 0 C0.33 0.66 0.66 1.32 1 2 C-2.96 2.66 -6.92 3.32 -11 4 C-11 3.34 -11 2.68 -11 2 C-7.17679443 0.57741188 -4.08718695 -0.24042276 0 0 Z " fill="#2C3238" transform="translate(389,75)"/>
<path d="M0 0 C0.66 0.33 1.32 0.66 2 1 C-0.10148204 4.98175544 -2.36905358 7.35039045 -6 10 C-6 8.68 -6 7.36 -6 6 C-5.34 6 -4.68 6 -4 6 C-4 5.34 -4 4.68 -4 4 C-2.70766393 2.62689293 -1.37562854 1.28965176 0 0 Z " fill="#A528CA" transform="translate(104,128)"/>
<path d="M0 0 C0.33 0 0.66 0 1 0 C0.30834212 5.41798672 -0.75799248 10.6822785 -2 16 C-2.33 16 -2.66 16 -3 16 C-2.88544319 14.08268082 -2.75793742 12.1661325 -2.625 10.25 C-2.55539063 9.18265625 -2.48578125 8.1153125 -2.4140625 7.015625 C-2.0271777 4.19793568 -1.44313834 2.4169634 0 0 Z " fill="#AD089C" transform="translate(81,83)"/>
<path d="M0 0 C1.98 0 3.96 0 6 0 C6 0.99 6 1.98 6 3 C3.1875 3.625 3.1875 3.625 0 4 C-0.99 3.34 -1.98 2.68 -3 2 C-2.01 2 -1.02 2 0 2 C0 1.34 0 0.68 0 0 Z " fill="#2B3034" transform="translate(327,75)"/>
<path d="M0 0 C0.66 0.33 1.32 0.66 2 1 C2 2.32 2 3.64 2 5 C0.02 5.33 -1.96 5.66 -4 6 C-3.67 4.35 -3.34 2.7 -3 1 C-2.01 1.33 -1.02 1.66 0 2 C0 1.34 0 0.68 0 0 Z " fill="#323639" transform="translate(301,82)"/>
<path d="M0 0 C3.47917182 2.31944788 4.29429766 4.26369964 6 8 C5.01 8.66 4.02 9.32 3 10 C0 3.375 0 3.375 0 0 Z " fill="#2D3237" transform="translate(551,79)"/>
<path d="M0 0 C0.66 0.33 1.32 0.66 2 1 C1.01 4.3 0.02 7.6 -1 11 C-1.66 11 -2.32 11 -3 11 C-3.33 11.99 -3.66 12.98 -4 14 C-4 12.68 -4 11.36 -4 10 C-3.34 10 -2.68 10 -2 10 C-2.04125 9.0925 -2.0825 8.185 -2.125 7.25 C-2.00468444 4.1217954 -1.6085292 2.61385994 0 0 Z " fill="#CA6CA3" transform="translate(129,53)"/>
<path d="M0 0 C0.66 0 1.32 0 2 0 C1.65120368 3.25543229 0.97866739 4.01873107 -1.5625 6.25 C-2.366875 6.8275 -3.17125 7.405 -4 8 C-4.66 7.67 -5.32 7.34 -6 7 C-5.04882866 5.8274869 -4.08882991 4.66212985 -3.125 3.5 C-2.59132813 2.8503125 -2.05765625 2.200625 -1.5078125 1.53125 C-0.76144531 0.77328125 -0.76144531 0.77328125 0 0 Z " fill="#4924AC" transform="translate(101,134)"/>
<path d="M0 0 C0.33 0.66 0.66 1.32 1 2 C-1.34375 8.5625 -1.34375 8.5625 -5 11 C-4.54917531 9.53932801 -4.08906463 8.08151968 -3.625 6.625 C-3.36976562 5.81289062 -3.11453125 5.00078125 -2.8515625 4.1640625 C-2 2 -2 2 0 0 Z " fill="#721BBC" transform="translate(88,115)"/>
<path d="M0 0 C-0.57344937 2.86724686 -0.8614515 3.8614515 -3 6 C-3.66 6 -4.32 6 -5 6 C-5 4.35 -5 2.7 -5 1 C-2 0 -2 0 0 0 Z " fill="#2F3438" transform="translate(488,113)"/>
<path d="M0 0 C1.12894876 0.93274109 2.25300876 1.87140122 3.375 2.8125 C4.00148437 3.33457031 4.62796875 3.85664062 5.2734375 4.39453125 C7 6 7 6 9 9 C7.35 8.67 5.7 8.34 4 8 C3.67 7.01 3.34 6.02 3 5 C2.484375 4.484375 1.96875 3.96875 1.4375 3.4375 C0.963125 2.963125 0.48875 2.48875 0 2 C0 1.34 0 0.68 0 0 Z " fill="#31DCCA" transform="translate(169,63)"/>
<path d="M0 0 C1.98 0 3.96 0 6 0 C5.04882866 1.1725131 4.08882991 2.33787015 3.125 3.5 C2.59132813 4.1496875 2.05765625 4.799375 1.5078125 5.46875 C1.01023437 5.9740625 0.51265625 6.479375 0 7 C-0.66 7 -1.32 7 -2 7 C-1 4 -1 4 1 2 C0.67 1.34 0.34 0.68 0 0 Z " fill="#282289" transform="translate(78,164)"/>
<path d="M0 0 C0 3.57811631 -0.86465142 4.26675381 -3 7 C-3.33 7.99 -3.66 8.98 -4 10 C-4.99 10 -5.98 10 -7 10 C-5.33248852 6.05860922 -2.77289351 3.2107188 0 0 Z " fill="#1B76B1" transform="translate(140,102)"/>
<path d="M0 0 C1.85776765 3.13498292 2.20140476 5.37471432 2 9 C0.68 8.67 -0.64 8.34 -2 8 C-1.34 5.36 -0.68 2.72 0 0 Z " fill="#30363A" transform="translate(523,78)"/>
<path d="M0 0 C1.34262065 0.29369827 2.67696283 0.6278958 4 1 C4.66 0.67 5.32 0.34 6 0 C6.33 0.99 6.66 1.98 7 3 C4.21176345 4.0326802 3.1322726 4.04509293 0.25 3.0625 C-0.4925 2.711875 -1.235 2.36125 -2 2 C-1.34 1.34 -0.68 0.68 0 0 Z " fill="#2B3236" transform="translate(329,83)"/>
<path d="M0 0 C0.33 0.99 0.66 1.98 1 3 C0.04422943 4.36538653 -0.96352976 5.69481525 -2 7 C-2.71162443 8.64797236 -3.39031953 10.31165408 -4 12 C-5.11841676 8.64474971 -4.91538821 8.02910146 -3.6875 4.875 C-3.42324219 4.17117187 -3.15898438 3.46734375 -2.88671875 2.7421875 C-2 1 -2 1 0 0 Z " fill="#AE0DA4" transform="translate(77,79)"/>
<path d="M0 0 C1.14926266 0.95421808 2.29430541 1.91352045 3.4375 2.875 C4.07558594 3.40867187 4.71367187 3.94234375 5.37109375 4.4921875 C7 6 7 6 8 8 C6.35 8 4.7 8 3 8 C1.92474806 5.34771188 0.90543849 2.71631546 0 0 Z " fill="#2CD5C7" transform="translate(182,76)"/>
<path d="M0 0 C0.99 0 1.98 0 3 0 C3 1.65 3 3.3 3 5 C1.68 5.33 0.36 5.66 -1 6 C-1.042721 4.33388095 -1.04063832 2.66617115 -1 1 C-0.67 0.67 -0.34 0.34 0 0 Z " fill="#FC7FAB" transform="translate(108,22)"/>
<path d="M0 0 C0.66 0.33 1.32 0.66 2 1 C0.02 3.31 -1.96 5.62 -4 8 C-4.33 7.01 -4.66 6.02 -5 5 C-3.35 3.35 -1.7 1.7 0 0 Z " fill="#1D2B88" transform="translate(113,132)"/>
<path d="M0 0 C-0.33 0.99 -0.66 1.98 -1 3 C-3.64 3.33 -6.28 3.66 -9 4 C-9 3.34 -9 2.68 -9 2 C-8.401875 1.855625 -7.80375 1.71125 -7.1875 1.5625 C-1.11111111 0 -1.11111111 0 0 0 Z " fill="#33383B" transform="translate(480,119)"/>
<path d="M0 0 C2.475 0.99 2.475 0.99 5 2 C3.35 3.32 1.7 4.64 0 6 C-0.33 5.34 -0.66 4.68 -1 4 C-1.66 3.67 -2.32 3.34 -3 3 C-2.01 2.01 -1.02 1.02 0 0 Z " fill="#303234" transform="translate(377,86)"/>
<path d="M0 0 C-0.33 0.99 -0.66 1.98 -1 3 C-3.375 3.1875 -3.375 3.1875 -6 3 C-6.66 2.01 -7.32 1.02 -8 0 C-4.71303767 -0.79953138 -3.28976808 -1.09658936 0 0 Z " fill="#252A34" transform="translate(377,76)"/>
<path d="M0 0 C0.66 0.99 1.32 1.98 2 3 C1.67 3.99 1.34 4.98 1 6 C-0.65 5.67 -2.3 5.34 -4 5 C-3 2 -3 2 0 0 Z " fill="#E61BAB" transform="translate(70,58)"/>
<path d="M0 0 C0.66 1.32 1.32 2.64 2 4 C0.02 6.97 0.02 6.97 -2 10 C-2.6875 8.375 -2.6875 8.375 -3 6 C-1.5625 2.75 -1.5625 2.75 0 0 Z " fill="#0ED9C6" transform="translate(143,46)"/>
<path d="M0 0 C0.66 0.66 1.32 1.32 2 2 C1.625 4.625 1.625 4.625 1 7 C-0.32 6.34 -1.64 5.68 -3 5 C-2.01 3.35 -1.02 1.7 0 0 Z " fill="#3B4146" transform="translate(347,109)"/>
<path d="M0 0 C0.66 0.66 1.32 1.32 2 2 C1.96712417 4.72869407 1.43602229 7.2966618 1 10 C0.01 10 -0.98 10 -2 10 C-1.34 6.7 -0.68 3.4 0 0 Z " fill="#E01FB9" transform="translate(103,102)"/>
<path d="M0 0 C2.125 0.375 2.125 0.375 4 1 C3.34 2.65 2.68 4.3 2 6 C0.68 4.68 -0.64 3.36 -2 2 C-1.34 1.34 -0.68 0.68 0 0 Z " fill="#3D4146" transform="translate(595,76)"/>
<path d="M0 0 C0.66 0.99 1.32 1.98 2 3 C0.02 5.97 0.02 5.97 -2 9 C-3.33332095 6.3333581 -2.67102033 4.83319697 -2 2 C-1.34 2 -0.68 2 0 2 C0 1.34 0 0.68 0 0 Z " fill="#D70C9B" transform="translate(83,62)"/>
<path d="M0 0 C0.99 0.33 1.98 0.66 3 1 C3 2.65 3 4.3 3 6 C1.68 6.33 0.36 6.66 -1 7 C-0.67 4.69 -0.34 2.38 0 0 Z " fill="#1C9C99" transform="translate(134,48)"/>
<path d="M0 0 C0.33 0.66 0.66 1.32 1 2 C0.22265625 3.9453125 0.22265625 3.9453125 -0.9375 6.125 C-1.31777344 6.84945312 -1.69804687 7.57390625 -2.08984375 8.3203125 C-2.39019531 8.87460937 -2.69054687 9.42890625 -3 10 C-4.46604374 7.06791253 -3.77925574 5.11702298 -3 2 C-2.01 1.34 -1.02 0.68 0 0 Z " fill="#BA82A9" transform="translate(134,46)"/>
<path d="M0 0 C0.33 0.99 0.66 1.98 1 3 C0.360625 3.268125 -0.27875 3.53625 -0.9375 3.8125 C-3.33131686 4.88667752 -3.33131686 4.88667752 -4 8 C-4.66 7.67 -5.32 7.34 -6 7 C-4.02 4.69 -2.04 2.38 0 0 Z " fill="#4821B0" transform="translate(94,142)"/>
<path d="M0 0 C-0.66 1.65 -1.32 3.3 -2 5 C-3.32 3.68 -4.64 2.36 -6 1 C-4 0 -4 0 0 0 Z " fill="#2A2D39" transform="translate(527,111)"/>
<path d="M0 0 C1.98 0 3.96 0 6 0 C6 1.98 6 3.96 6 6 C4.5 4.625 4.5 4.625 3 3 C3 2.34 3 1.68 3 1 C2.01 0.67 1.02 0.34 0 0 Z " fill="#272729" transform="translate(540,59)"/>
<path d="M0 0 C1.65 0 3.3 0 5 0 C4.34 1.32 3.68 2.64 3 4 C2.01 4 1.02 4 0 4 C0 2.68 0 1.36 0 0 Z " fill="#F62B98" transform="translate(83,44)"/>
<path d="M0 0 C0.33 0 0.66 0 1 0 C1 4.29 1 8.58 1 13 C0.67 13 0.34 13 0 13 C0 8.71 0 4.42 0 0 Z " fill="#34343E" transform="translate(436,99)"/>
<path d="M0 0 C0.33 0 0.66 0 1 0 C1 3.63 1 7.26 1 11 C0.67 11 0.34 11 0 11 C0 7.37 0 3.74 0 0 Z " fill="#1D2929" transform="translate(390,94)"/>
<path d="M0 0 C0.33 0 0.66 0 1 0 C1 3.3 1 6.6 1 10 C0.67 10 0.34 10 0 10 C0 6.7 0 3.4 0 0 Z " fill="#222222" transform="translate(269,80)"/>
<path d="M0 0 C0.99 0.495 0.99 0.495 2 1 C1.67 3.64 1.34 6.28 1 9 C0.67 9 0.34 9 0 9 C0 6.03 0 3.06 0 0 Z " fill="#262626" transform="translate(526,78)"/>
<path d="M0 0 C1.98 0 3.96 0 6 0 C6 0.33 6 0.66 6 1 C4.35 1 2.7 1 1 1 C0.67 1.99 0.34 2.98 0 4 C0 2.68 0 1.36 0 0 Z " fill="#122F2F" transform="translate(515,88)"/>
<path d="M0 0 C0.33 0 0.66 0 1 0 C1 2.64 1 5.28 1 8 C0.67 8 0.34 8 0 8 C0 5.36 0 2.72 0 0 Z " fill="#1B1B1B" transform="translate(494,95)"/>
<path d="M0 0 C1.32 0.33 2.64 0.66 4 1 C3.34 1.66 2.68 2.32 2 3 C1.34 2.67 0.68 2.34 0 2 C0 1.34 0 0.68 0 0 Z " fill="#0D1212" transform="translate(399,78)"/>
<path d="M0 0 C0.66 1.32 1.32 2.64 2 4 C1.34 4 0.68 4 0 4 C0 2.68 0 1.36 0 0 Z " fill="#27273C" transform="translate(355,102)"/>
<path d="M0 0 C4 1 4 1 4 1 Z " fill="#000000" transform="translate(429,123)"/>
<path d="M0 0 C1 4 1 4 1 4 Z " fill="#151515" transform="translate(319,96)"/>
<path d="" fill="#000000" transform="translate(0,0)"/>
<path d="" fill="#000000" transform="translate(0,0)"/>
<path d="M0 0 C0.33 0.66 0.66 1.32 1 2 C0.34 1.67 -0.32 1.34 -1 1 C-0.67 0.67 -0.34 0.34 0 0 Z " fill="#1C1C47" transform="translate(443,80)"/>
<path d="M0 0 C2 1 2 1 2 1 Z " fill="#2A2A2A" transform="translate(363,123)"/>
<path d="" fill="#555555" transform="translate(0,0)"/>
<path d="" fill="#000000" transform="translate(0,0)"/>
<path d="M0 0 C2 1 2 1 2 1 Z " fill="#000000" transform="translate(464,110)"/>
<path d="" fill="#000000" transform="translate(0,0)"/>
<path d="" fill="#000000" transform="translate(0,0)"/>
<path d="M0 0 C2 1 2 1 2 1 Z " fill="#000000" transform="translate(354,91)"/>
<path d="" fill="#000000" transform="translate(0,0)"/>
<path d="" fill="#2A2A2A" transform="translate(0,0)"/>
<path d="" fill="#000000" transform="translate(0,0)"/>
<path d="" fill="#000000" transform="translate(0,0)"/>
<path d="" fill="#000000" transform="translate(0,0)"/>
<path d="" fill="#008080" transform="translate(0,0)"/>
<path d="" fill="#000000" transform="translate(0,0)"/>
<path d="" fill="#000000" transform="translate(0,0)"/>
<path d="" fill="#000000" transform="translate(0,0)"/>
<path d="" fill="#000000" transform="translate(0,0)"/>
<path d="" fill="#000000" transform="translate(0,0)"/>
<path d="" fill="#000000" transform="translate(0,0)"/>
<path d="" fill="#000000" transform="translate(0,0)"/>
<path d="" fill="#000000" transform="translate(0,0)"/>
<path d="" fill="#000000" transform="translate(0,0)"/>
<path d="" fill="#555555" transform="translate(0,0)"/>
<path d="" fill="#000000" transform="translate(0,0)"/>
<path d="" fill="#000000" transform="translate(0,0)"/>
<path d="" fill="#000000" transform="translate(0,0)"/>
<path d="" fill="#000000" transform="translate(0,0)"/>
<path d="" fill="#555555" transform="translate(0,0)"/>
<path d="" fill="#000000" transform="translate(0,0)"/>
<path d="" fill="#000000" transform="translate(0,0)"/>
<path d="" fill="#000000" transform="translate(0,0)"/>
<path d="" fill="#000000" transform="translate(0,0)"/>
<path d="" fill="#555555" transform="translate(0,0)"/>
<path d="" fill="#000000" transform="translate(0,0)"/>
<path d="" fill="#000000" transform="translate(0,0)"/>
<path d="" fill="#000000" transform="translate(0,0)"/>
<path d="" fill="#000000" transform="translate(0,0)"/>
<path d="" fill="#000000" transform="translate(0,0)"/>
<path d="" fill="#000000" transform="translate(0,0)"/>
<path d="" fill="#000000" transform="translate(0,0)"/>
<path d="" fill="#000000" transform="translate(0,0)"/>
<path d="" fill="#008080" transform="translate(0,0)"/>
<path d="" fill="#000000" transform="translate(0,0)"/>
<path d="" fill="#555555" transform="translate(0,0)"/>
<path d="" fill="#333333" transform="translate(0,0)"/>
<path d="" fill="#555555" transform="translate(0,0)"/>
<path d="" fill="#000000" transform="translate(0,0)"/>
<path d="" fill="#555555" transform="translate(0,0)"/>
<path d="" fill="#000000" transform="translate(0,0)"/>
</svg>
