<?xml version="1.0" encoding="UTF-8"?>
<svg version="1.1" xmlns="http://www.w3.org/2000/svg" width="235" height="233">
<path d="M0 0 C20.57890888 18.73056555 35.52301635 44.92807485 37.27319336 73.18920898 C37.97826609 107.31641464 30.185064 135.35232765 6.42041016 160.93261719 C-12.41061638 180.36497062 -38.9389995 193.84062759 -66.32177734 194.63183594 C-98.76617416 194.91439472 -126.83567185 186.57535427 -150.90380859 164.33105469 C-151.70173828 163.6259375 -152.49966797 162.92082031 -153.32177734 162.19433594 C-171.65882226 145.15548889 -183.44287258 118.83750335 -185.12695312 94.04614258 C-186.17301767 63.03327227 -179.81947467 34.34380148 -158.34130859 10.95605469 C-156.54607198 9.06335447 -154.72664895 7.19749063 -152.90380859 5.33105469 C-152.23736328 4.60273437 -151.57091797 3.87441406 -150.88427734 3.12402344 C-111.84140058 -38.54911028 -41.34553451 -36.24494408 0 0 Z " fill="#2A3138" transform="translate(187.90380859375,34.6689453125)"/>
<path d="M0 0 C4.90415482 0.94537924 7.20960167 3.18705938 10.62890625 6.6875 C11.23412109 7.24050781 11.83933594 7.79351562 12.46289062 8.36328125 C14.17443371 10.0728593 15.45060884 11.53974629 16.56640625 13.6875 C16.00878833 19.93407374 13.09538569 24.96057829 10.06640625 30.375 C9.26203177 31.83598048 8.45988444 33.29818976 7.66015625 34.76171875 C7.30630859 35.39682373 6.95246094 36.03192871 6.58789062 36.6862793 C5.43231359 38.95020496 4.51040491 41.32750335 3.56640625 43.6875 C9.83640625 43.6875 16.10640625 43.6875 22.56640625 43.6875 C20.99332153 49.97983888 18.07654702 53.17735923 13.56640625 57.6875 C11.45583803 60.32571027 9.38619282 62.9904564 7.3359375 65.67578125 C6.75199219 66.33964844 6.16804688 67.00351563 5.56640625 67.6875 C4.90640625 67.6875 4.24640625 67.6875 3.56640625 67.6875 C3.33566406 68.22503906 3.10492188 68.76257813 2.8671875 69.31640625 C1.18107019 72.38989936 -0.98971302 74.96320182 -3.24609375 77.625 C-3.67212891 78.13740234 -4.09816406 78.64980469 -4.53710938 79.17773438 C-7.34761428 82.52397849 -10.32874735 85.61634961 -13.43359375 88.6875 C-15.27880131 90.6573121 -17.11264645 92.63317949 -18.93359375 94.625 C-19.39378906 95.12451172 -19.85398438 95.62402344 -20.328125 96.13867188 C-23.47220586 99.57059112 -26.47661466 103.09305622 -29.43359375 106.6875 C-29.92859375 105.6975 -29.92859375 105.6975 -30.43359375 104.6875 C-29.5627162 102.8625211 -28.60960258 101.07653684 -27.62109375 99.3125 C-24.84250682 93.97992323 -23.53549153 89.32910556 -22.85546875 83.37890625 C-22.41607018 80.57570614 -21.57916289 78.27442048 -20.43359375 75.6875 C-20.76359375 75.3575 -21.09359375 75.0275 -21.43359375 74.6875 C-21.82683838 75.56486816 -21.82683838 75.56486816 -22.22802734 76.45996094 C-23.42066917 79.1195364 -24.61461793 81.77852317 -25.80859375 84.4375 C-26.22109375 85.35789062 -26.63359375 86.27828125 -27.05859375 87.2265625 C-27.45820312 88.11601562 -27.8578125 89.00546875 -28.26953125 89.921875 C-28.6361084 90.73881836 -29.00268555 91.55576172 -29.38037109 92.39746094 C-30.35563832 94.51800025 -31.37650502 96.60674826 -32.43359375 98.6875 C-33.09359375 98.6875 -33.75359375 98.6875 -34.43359375 98.6875 C-34.76359375 100.0075 -35.09359375 101.3275 -35.43359375 102.6875 C-36.09359375 102.6875 -36.75359375 102.6875 -37.43359375 102.6875 C-38.3294698 90.3372088 -38.54882331 78.06827633 -38.43359375 65.6875 C-39.56539062 65.62691406 -40.6971875 65.56632812 -41.86328125 65.50390625 C-43.3450652 65.41950083 -44.82683535 65.33485283 -46.30859375 65.25 C-47.05496094 65.21068359 -47.80132812 65.17136719 -48.5703125 65.13085938 C-54.20703125 64.80078125 -54.20703125 64.80078125 -56.43359375 63.6875 C-56.43359375 63.0275 -56.43359375 62.3675 -56.43359375 61.6875 C-57.09359375 61.6875 -57.75359375 61.6875 -58.43359375 61.6875 C-58.87836874 57.7890096 -58.79384533 56.16851355 -56.40161133 52.97436523 C-55.46986084 52.07403564 -54.53811035 51.17370605 -53.578125 50.24609375 C-52.830149 49.51085228 -52.830149 49.51085228 -52.06706238 48.76075745 C-50.47364688 47.20080382 -48.86070932 45.66297014 -47.24609375 44.125 C-46.17896752 43.08799753 -45.11319673 42.0495983 -44.04882812 41.00976562 C-42.07819094 39.08796299 -40.09905382 37.17681671 -38.11254883 35.27124023 C-34.04234585 31.34569953 -30.10239989 27.37394398 -26.37109375 23.125 C-22.7662294 19.09816156 -19.05951077 15.20267945 -15.24609375 11.375 C-14.75939209 10.88378662 -14.27269043 10.39257324 -13.77124023 9.88647461 C-12.34446997 8.46549735 -10.89290793 7.07495588 -9.43359375 5.6875 C-8.9545459 5.20361816 -8.47549805 4.71973633 -7.98193359 4.22119141 C-5.36770738 1.75763606 -3.53723217 0.70825127 0 0 Z " fill="#F445A3" transform="translate(112.43359375,58.3125)"/>
<path d="M0 0 C7.72421315 6.48904486 14.87815902 13.51051671 22.05444336 20.59448242 C23.64864133 22.16189538 25.2499589 23.72209848 26.8581543 25.27514648 C29.19196822 27.53006557 31.50216845 29.8069587 33.80859375 32.08984375 C34.53034286 32.77860092 35.25209198 33.46735809 35.99571228 34.17698669 C39.32458875 37.51951519 40.87211358 39.08585107 41.54223633 43.87597656 C41 47 41 47 39.515625 48.89453125 C35.98735043 50.44499973 32.54418508 50.57018862 28.75 50.6875 C28.00492188 50.72166016 27.25984375 50.75582031 26.4921875 50.79101562 C24.66197508 50.87314054 22.83101331 50.93825653 21 51 C21.01160156 52.258125 21.02320313 53.51625 21.03515625 54.8125 C21.10286667 65.59750086 20.78632625 76.24418021 20 87 C20 87.66 20 88.32 20 89 C19.625 91.0625 19.625 91.0625 19 93 C16.50907189 94.24546405 15.58919267 93.7767578 13 93 C12.67 93.99 12.34 94.98 12 96 C11.3709375 95.43152344 10.741875 94.86304688 10.09375 94.27734375 C9.2378125 93.50519531 8.381875 92.73304688 7.5 91.9375 C6.59378906 91.11894531 5.68757813 90.30039063 4.75390625 89.45703125 C1.7169365 86.74745115 -1.37684753 84.11264612 -4.50390625 81.5078125 C-6 80 -6 80 -7 77 C-8.3153341 76.29848848 -9.65117592 75.63474075 -11 75 C-12.75 73.5 -12.75 73.5 -14 72 C-14 71.34 -14 70.68 -14 70 C-14.66 70 -15.32 70 -16 70 C-15.42906273 66.18510094 -13.73941063 64.32534786 -11.125 61.5625 C-5.49437762 55.58905375 -1.2616666 48.4158331 1 40.5 C2 37 2 37 6 29 C-0.27 29 -6.54 29 -13 29 C-12.2018957 25.00947848 -11.63105436 22.92856298 -9.78515625 19.53125 C-9.34623047 18.71269531 -8.90730469 17.89414063 -8.45507812 17.05078125 C-7.99552734 16.20902344 -7.53597656 15.36726563 -7.0625 14.5 C-3.15960462 7.42439718 -3.15960462 7.42439718 0 0 Z " fill="#1879B8" transform="translate(129,73)"/>
<path d="M0 0 C0.66 0 1.32 0 2 0 C1.40234442 3.38261122 0.55611847 6.40424399 -0.7421875 9.58203125 C-1.08636719 10.43216797 -1.43054688 11.28230469 -1.78515625 12.15820312 C-2.14480469 13.03412109 -2.50445312 13.91003906 -2.875 14.8125 C-4.2565761 18.20571164 -5.63149352 21.60149695 -7 25 C-7.46744629 26.14214966 -7.46744629 26.14214966 -7.94433594 27.30737305 C-9.7366253 31.82694666 -9.84144227 34.26688725 -9 39 C-10.13779872 41.32731556 -11.16840714 43.16840714 -13 45 C-13.36760731 47.32817964 -13.70241581 49.6618385 -14 52 C-8.6913151 51.41825155 -8.6913151 51.41825155 -4 49 C-1 50.5625 -1 50.5625 2 53 C2.5625 56.625 2.5625 56.625 2 60 C1.01 60.66 0.02 61.32 -1 62 C-1.67084112 65.44579041 -1.67084112 65.44579041 -2 69 C-2.495 70.485 -2.495 70.485 -3 72 C-3 73.32 -3 74.64 -3 76 C-2.34 76 -1.68 76 -1 76 C-2.62761003 79.9786023 -5.39922402 82.80309944 -8.3125 85.875 C-12.01581044 89.81512077 -15.57196184 93.81641973 -19 98 C-19.495 97.01 -19.495 97.01 -20 96 C-19.12912245 94.1750211 -18.17600883 92.38903684 -17.1875 90.625 C-14.40891307 85.29242323 -13.10189778 80.64160556 -12.421875 74.69140625 C-11.98247643 71.88820614 -11.14556914 69.58692048 -10 67 C-10.33 66.67 -10.66 66.34 -11 66 C-11.39324463 66.87736816 -11.39324463 66.87736816 -11.79443359 67.77246094 C-12.98707542 70.4320364 -14.18102418 73.09102317 -15.375 75.75 C-15.7875 76.67039062 -16.2 77.59078125 -16.625 78.5390625 C-17.02460937 79.42851562 -17.42421875 80.31796875 -17.8359375 81.234375 C-18.20251465 82.05131836 -18.5690918 82.86826172 -18.94677734 83.70996094 C-19.92204457 85.83050025 -20.94291127 87.91924826 -22 90 C-22.66 90 -23.32 90 -24 90 C-24.33 91.32 -24.66 92.64 -25 94 C-25.66 94 -26.32 94 -27 94 C-27.89587605 81.6497088 -28.11522956 69.38077633 -28 57 C-29.13179687 56.93941406 -30.26359375 56.87882812 -31.4296875 56.81640625 C-32.91147145 56.73200083 -34.3932416 56.64735283 -35.875 56.5625 C-36.62136719 56.52318359 -37.36773437 56.48386719 -38.13671875 56.44335938 C-43.7734375 56.11328125 -43.7734375 56.11328125 -46 55 C-46 54.34 -46 53.68 -46 53 C-46.66 53 -47.32 53 -48 53 C-48.44477499 49.1015096 -48.36025158 47.48101355 -45.96801758 44.28686523 C-45.03626709 43.38653564 -44.1045166 42.48620605 -43.14453125 41.55859375 C-42.39655525 40.82335228 -42.39655525 40.82335228 -41.63346863 40.07325745 C-40.04005313 38.51330382 -38.42711557 36.97547014 -36.8125 35.4375 C-35.74537377 34.40049753 -34.67960298 33.3620983 -33.61523438 32.32226562 C-31.64459719 30.40046299 -29.66546007 28.48931671 -27.67895508 26.58374023 C-23.86625614 22.90655142 -20.10367309 19.23924018 -16.6875 15.1875 C-15.91986328 14.28064453 -15.91986328 14.28064453 -15.13671875 13.35546875 C-14.76160156 12.90816406 -14.38648438 12.46085937 -14 12 C-13.505 13.98 -13.505 13.98 -13 16 C-14.32 16.33 -15.64 16.66 -17 17 C-16.34 18.65 -15.68 20.3 -15 22 C-13.01713509 21.44244333 -13.01713509 21.44244333 -11 20 C-9.54827266 16.78453227 -8.5280757 13.51872846 -7.44140625 10.1640625 C-5.81691649 6.59810937 -4.10540699 5.29244679 -1 3 C-0.67 2.01 -0.34 1.02 0 0 Z " fill="#C020B8" transform="translate(102,67)"/>
<path d="M0 0 C0.66 0 1.32 0 2 0 C2.125 2.375 2.125 2.375 2 5 C1.34 5.66 0.68 6.32 0 7 C-0.391875 7.99 -0.78375 8.98 -1.1875 10 C-3.78260386 16.29674947 -7.97079605 22.21862934 -12.875 26.9375 C-15.22212194 28.89884588 -15.22212194 28.89884588 -16 32 C-15.1028125 32.0928125 -15.1028125 32.0928125 -14.1875 32.1875 C-12 33 -12 33 -10.75 35.125 C-8.60022124 38.65677939 -5.93261122 40.76883853 -2.7421875 43.3515625 C-1 45 -1 45 0 48 C1.31454221 48.70299431 2.65171818 49.36410822 4 50 C5.4493154 51.16897337 6.86599231 52.37939308 8.25 53.625 C8.95640625 54.25664062 9.6628125 54.88828125 10.390625 55.5390625 C11.18726563 56.26222656 11.18726563 56.26222656 12 57 C12.495 56.01 12.495 56.01 13 55 C14.65 55 16.3 55 18 55 C19.10844919 51.67465243 18.84454356 49.37817425 18 46 C18.33 46 18.66 46 19 46 C19.33 41.71 19.66 37.42 20 33 C20.33 33 20.66 33 21 33 C21.05814085 36.58326501 21.09364357 40.16640838 21.125 43.75 C21.14175781 44.76578125 21.15851563 45.7815625 21.17578125 46.828125 C21.18222656 47.8078125 21.18867188 48.7875 21.1953125 49.796875 C21.20578613 50.69760742 21.21625977 51.59833984 21.22705078 52.52636719 C20.97981049 55.21995713 20.55721043 56.78852553 19 59 C13.62784091 60.49715909 13.62784091 60.49715909 11 60 C8.734375 57.9609375 8.734375 57.9609375 7.46166992 56.57543945 C5.79021149 54.77388254 4.02339489 53.1136636 2.22265625 51.44140625 C1.54396484 50.80783203 0.86527344 50.17425781 0.16601562 49.52148438 C-1.23228802 48.2192573 -2.63072476 46.91717312 -4.02929688 45.61523438 C-4.70927734 44.98037109 -5.38925781 44.34550781 -6.08984375 43.69140625 C-6.7535498 43.07539551 -7.41725586 42.45938477 -8.10107422 41.82470703 C-9.89749 40.09850344 -11.56865967 38.29833697 -13.25390625 36.46484375 C-14.16011719 35.65144531 -15.06632812 34.83804688 -16 34 C-19.86383836 34.42450139 -21.35885243 36.27631657 -24 39 C-24.680625 39.309375 -25.36125 39.61875 -26.0625 39.9375 C-28.70599186 41.38715683 -29.51495952 43.43493009 -31 46 C-31.66 46 -32.32 46 -33 46 C-33.08378906 46.60714844 -33.16757813 47.21429688 -33.25390625 47.83984375 C-34.22619721 50.65490606 -35.36185791 51.15125307 -37.9375 52.5625 C-40.99398709 54.25438487 -41.98340303 54.97510454 -44 58 C-50.87077974 58.7757332 -50.87077974 58.7757332 -54.10498047 56.55395508 C-56.94639591 52.72452362 -56.50009682 49.2866091 -56.390625 44.640625 C-56.38496521 43.73624695 -56.37930542 42.8318689 -56.37347412 41.90008545 C-56.35111248 39.01618147 -56.30091686 36.13352739 -56.25 33.25 C-56.22993471 31.29298671 -56.21168399 29.33595392 -56.1953125 27.37890625 C-56.15124839 22.58545711 -56.08222252 17.79294035 -56 13 C-55.67 13 -55.34 13 -55 13 C-54.28488027 25.34858538 -53.85579614 37.63051353 -54 50 C-53.01 49.505 -53.01 49.505 -52 49 C-51.67 48.01 -51.34 47.02 -51 46 C-50.34 46 -49.68 46 -49 46 C-48.89300781 45.48050781 -48.78601563 44.96101563 -48.67578125 44.42578125 C-46.40923341 36.2897916 -42.43669643 28.16697116 -38 21 C-37.34 22.32 -36.68 23.64 -36 25 C-36.66 25.99 -37.32 26.98 -38 28 C-38.30565967 29.78301475 -38.54758205 31.57733584 -38.75 33.375 C-39.822586 40.56660121 -42.70444743 46.57470883 -46 53 C-40.25839087 46.73138327 -34.73670236 40.34279423 -29.359375 33.76171875 C-27 31 -27 31 -24.49609375 28.5078125 C-21.00313718 24.99845707 -18.04476855 21.11914251 -14.98828125 17.23046875 C-14.33214844 16.49441406 -13.67601562 15.75835937 -13 15 C-12.34 15 -11.68 15 -11 15 C-10.7628125 14.45859375 -10.525625 13.9171875 -10.28125 13.359375 C-8.65652243 10.36749863 -6.6498123 7.88840601 -4.5 5.25 C-3.7059375 4.26515625 -2.911875 3.2803125 -2.09375 2.265625 C-1.4028125 1.51796875 -0.711875 0.7703125 0 0 Z " fill="#412592" transform="translate(129,111)"/>
<path d="M0 0 C2 3 2 3 1.625 5.6875 C1.41875 6.450625 1.2125 7.21375 1 8 C1.66 7.67 2.32 7.34 3 7 C3.33 6.01 3.66 5.02 4 4 C4.99 4 5.98 4 7 4 C7 5.32 7 6.64 7 8 C8.43725871 8.16873478 9.87481838 8.33490737 11.3125 8.5 C12.11300781 8.5928125 12.91351563 8.685625 13.73828125 8.78125 C16.11896555 9.04813463 16.11896555 9.04813463 19 9 C19.99 9.33 20.98 9.66 22 10 C22 9.01 22 8.02 22 7 C22.66 7 23.32 7 24 7 C24.103125 6.21625 24.20625 5.4325 24.3125 4.625 C25 2 25 2 28 0 C28.144375 1.134375 28.28875 2.26875 28.4375 3.4375 C28.61171478 6.80777201 28.61171478 6.80777201 30 8 C32.52596259 8.23653523 35.03107207 8.42173692 37.5625 8.5625 C38.27341797 8.60568359 38.98433594 8.64886719 39.71679688 8.69335938 C41.47761912 8.79971777 43.2387832 8.90038846 45 9 C42.05961133 18.28543791 38.55154633 27.37601748 34 36 C32.52205197 32.15733512 33.59397674 29.74939537 35 26 C35.69579454 23.80869466 35.69579454 23.80869466 36 22 C35.67 21.67 35.34 21.34 35 21 C34.60675537 21.87736816 34.60675537 21.87736816 34.20556641 22.77246094 C33.01292458 25.4320364 31.81897582 28.09102317 30.625 30.75 C30.2125 31.67039063 29.8 32.59078125 29.375 33.5390625 C28.97539063 34.42851562 28.57578125 35.31796875 28.1640625 36.234375 C27.79748535 37.05131836 27.4309082 37.86826172 27.05322266 38.70996094 C26.07795543 40.83050025 25.05708873 42.91924826 24 45 C23.34 45 22.68 45 22 45 C21.67 46.32 21.34 47.64 21 49 C20.34 49 19.68 49 19 49 C18.10412395 36.6497088 17.88477044 24.38077633 18 12 C16.86820313 11.93941406 15.73640625 11.87882812 14.5703125 11.81640625 C13.08852855 11.73200083 11.6067584 11.64735283 10.125 11.5625 C9.37863281 11.52318359 8.63226563 11.48386719 7.86328125 11.44335938 C2.2265625 11.11328125 2.2265625 11.11328125 0 10 C0 9.34 0 8.68 0 8 C-0.66 8 -1.32 8 -2 8 C-2.125 5.125 -2.125 5.125 -2 2 C-1.34 1.34 -0.68 0.68 0 0 Z " fill="#7225C4" transform="translate(56,112)"/>
<path d="M0 0 C2.99363121 1.34947146 5.13188953 2.86165853 7.48339844 5.14526367 C8.14378113 5.78320358 8.80416382 6.42114349 9.48455811 7.07841492 C10.18574768 7.76796768 10.88693726 8.45752045 11.609375 9.16796875 C12.69958954 10.23752556 12.69958954 10.23752556 13.81182861 11.32868958 C15.34440698 12.83801865 16.87402451 14.35035926 18.40087891 15.86547852 C20.73991409 18.17753044 23.10180911 20.46447062 25.46484375 22.75195312 C26.95200345 24.22246044 28.43772998 25.69441886 29.921875 27.16796875 C30.6311615 27.84740036 31.340448 28.52683197 32.07122803 29.22685242 C35.3700712 32.55587763 36.87723165 34.1086928 37.53320312 38.87109375 C37 42 37 42 35.546875 43.89453125 C31.82006297 45.51215058 28.27574501 45.5706666 24.25 45.6875 C23.45722656 45.72166016 22.66445312 45.75582031 21.84765625 45.79101562 C19.89892496 45.87319104 17.94948638 45.93828045 16 46 C16 47.32 16 48.64 16 50 C14.68 49.67 13.36 49.34 12 49 C11.505 46.525 11.505 46.525 11 44 C17.66071488 41.86354428 23.10163546 42.06161953 30 43 C30 42.01 30 41.02 30 40 C31.98 39.505 31.98 39.505 34 39 C33.42618522 35.67187429 32.40619252 34.30157545 30 32 C30 31.34 30 30.68 30 30 C26.98968256 29.06576355 26.13349732 28.95550089 23 30 C23 28.35 23 26.7 23 25 C22.01 24.67 21.02 24.34 20 24 C18.8125 20.9375 18.8125 20.9375 18 18 C15.03 18 12.06 18 9 18 C9 19.98 9 21.96 9 24 C9.66 24 10.32 24 11 24 C11.125 27.375 11.125 27.375 11 31 C10.34 31.66 9.68 32.32 9 33 C6 33 6 33 4 32 C4.515625 31.484375 5.03125 30.96875 5.5625 30.4375 C7.32334363 27.95063662 7.32334363 27.95063662 6.875 24.375 C6.33269236 20.74064082 6.33269236 20.74064082 3 19 C0.49103314 18.54398739 0.49103314 18.54398739 -2.1875 18.375 C-3.08855469 18.30023438 -3.98960937 18.22546875 -4.91796875 18.1484375 C-5.60503906 18.09945312 -6.29210937 18.05046875 -7 18 C-6.54166025 12.34714306 -4.13078822 4.13078822 0 0 Z " fill="#09DCCC" transform="translate(133,78)"/>
<path d="M0 0 C1.65 1.65 3.3 3.3 5 5 C4.56042969 5.68449219 4.12085938 6.36898437 3.66796875 7.07421875 C1.86212171 10.24185208 0.58837548 13.39867101 -0.6875 16.8125 C-1.12449219 17.97394531 -1.56148437 19.13539062 -2.01171875 20.33203125 C-2.33785156 21.21246094 -2.66398437 22.09289062 -3 23 C-1.98679687 22.94779297 -1.98679687 22.94779297 -0.953125 22.89453125 C-0.06109375 22.86746094 0.8309375 22.84039062 1.75 22.8125 C3.07257813 22.76029297 3.07257813 22.76029297 4.421875 22.70703125 C7.62243042 23.07073073 8.8387758 23.60026232 11 26 C12.046875 29.26171875 12.046875 29.26171875 12 33 C10.49579885 35.62050791 9.1738467 37.56012757 7.25 39.8125 C6.56550781 40.67004883 6.56550781 40.67004883 5.8671875 41.54492188 C3.729255 44.17408453 1.83589761 46.10940159 -1 48 C-0.67925956 46.66358148 -0.34135927 45.33130115 0 44 C0.268125 42.9275 0.53625 41.855 0.8125 40.75 C2 37 2 37 6 29 C-0.27 29 -6.54 29 -13 29 C-12.2018957 25.00947848 -11.63105436 22.92856298 -9.78515625 19.53125 C-9.34623047 18.71269531 -8.90730469 17.89414063 -8.45507812 17.05078125 C-7.99552734 16.20902344 -7.53597656 15.36726563 -7.0625 14.5 C-3.15960462 7.42439718 -3.15960462 7.42439718 0 0 Z " fill="#2A7C8E" transform="translate(129,73)"/>
<path d="M0 0 C0.66 0 1.32 0 2 0 C2.125 2.375 2.125 2.375 2 5 C1.34 5.66 0.68 6.32 0 7 C-0.391875 7.99 -0.78375 8.98 -1.1875 10 C-3.78260386 16.29674947 -7.97079605 22.21862934 -12.875 26.9375 C-15.22212194 28.89884588 -15.22212194 28.89884588 -16 32 C-15.1028125 32.0928125 -15.1028125 32.0928125 -14.1875 32.1875 C-12 33 -12 33 -10.75 35.125 C-8.60022124 38.65677939 -5.93261122 40.76883853 -2.7421875 43.3515625 C-1 45 -1 45 0 48 C1.31454221 48.70299431 2.65171818 49.36410822 4 50 C5.4493154 51.16897337 6.86599231 52.37939308 8.25 53.625 C8.95640625 54.25664062 9.6628125 54.88828125 10.390625 55.5390625 C10.92171875 56.02117187 11.4528125 56.50328125 12 57 C12.495 56.01 12.495 56.01 13 55 C14.65 55 16.3 55 18 55 C19.10844919 51.67465243 18.84454356 49.37817425 18 46 C18.33 46 18.66 46 19 46 C19.33 41.71 19.66 37.42 20 33 C20.33 33 20.66 33 21 33 C21.05814085 36.58326501 21.09364357 40.16640838 21.125 43.75 C21.14175781 44.76578125 21.15851563 45.7815625 21.17578125 46.828125 C21.18544922 48.29765625 21.18544922 48.29765625 21.1953125 49.796875 C21.21102295 51.14797363 21.21102295 51.14797363 21.22705078 52.52636719 C20.97981049 55.21995713 20.55721043 56.78852553 19 59 C13.62784091 60.49715909 13.62784091 60.49715909 11 60 C8.734375 57.9609375 8.734375 57.9609375 7.46166992 56.57543945 C5.79021149 54.77388254 4.02339489 53.1136636 2.22265625 51.44140625 C1.54396484 50.80783203 0.86527344 50.17425781 0.16601562 49.52148438 C-1.23228802 48.2192573 -2.63072476 46.91717312 -4.02929688 45.61523438 C-4.70927734 44.98037109 -5.38925781 44.34550781 -6.08984375 43.69140625 C-7.08540283 42.76739014 -7.08540283 42.76739014 -8.10107422 41.82470703 C-9.89749 40.09850344 -11.56865967 38.29833697 -13.25390625 36.46484375 C-14.61322266 35.24474609 -14.61322266 35.24474609 -16 34 C-19.87699887 34.42078525 -22.10121424 36.50382337 -25 39 C-24.69964844 38.43539062 -24.39929688 37.87078125 -24.08984375 37.2890625 C-22.66285346 34.29187143 -21.80381043 31.20510789 -20.87890625 28.0234375 C-20 26 -20 26 -17 24 C-15.77803891 21.82389333 -15.77803891 21.82389333 -14.8125 19.375 C-14.46832031 18.55773437 -14.12414062 17.74046875 -13.76953125 16.8984375 C-13.51558594 16.27195312 -13.26164062 15.64546875 -13 15 C-12.34 15 -11.68 15 -11 15 C-10.7628125 14.45859375 -10.525625 13.9171875 -10.28125 13.359375 C-8.65652243 10.36749863 -6.6498123 7.88840601 -4.5 5.25 C-3.7059375 4.26515625 -2.911875 3.2803125 -2.09375 2.265625 C-1.4028125 1.51796875 -0.711875 0.7703125 0 0 Z " fill="#212F88" transform="translate(129,111)"/>
<path d="M0 0 C0.33 0 0.66 0 1 0 C1.33 1.98 1.66 3.96 2 6 C7.32170494 6.29562367 7.32170494 6.29562367 12 4 C15 5.5625 15 5.5625 18 8 C18.5625 11.625 18.5625 11.625 18 15 C17.01 15.66 16.02 16.32 15 17 C14.32915888 20.44579041 14.32915888 20.44579041 14 24 C13.67 24.99 13.34 25.98 13 27 C13 28.32 13 29.64 13 31 C13.66 31 14.32 31 15 31 C13.37238997 34.9786023 10.60077598 37.80309944 7.6875 40.875 C3.98418956 44.81512077 0.42803816 48.81641973 -3 53 C-3.33 52.34 -3.66 51.68 -4 51 C-2.99609375 48.671875 -2.99609375 48.671875 -1.4375 45.75 C1.50221551 40.067911 4.06695944 34.29962249 6.55078125 28.40625 C8.2680505 24.36997295 10.08150502 20.38367748 11.921875 16.40234375 C13.01814027 13.95957875 14.0225816 11.49241691 15 9 C13.92878906 9.01160156 12.85757813 9.02320312 11.75390625 9.03515625 C10.35677257 9.04453299 8.95963701 9.05363331 7.5625 9.0625 C6.85544922 9.07087891 6.14839844 9.07925781 5.41992188 9.08789062 C3.61306441 9.09653588 1.80612397 9.05220011 0 9 C-0.33 8.67 -0.66 8.34 -1 8 C-0.82364548 5.30917128 -0.38164079 2.67148554 0 0 Z " fill="#C322B6" transform="translate(86,112)"/>
<path d="M0 0 C0.144375 1.134375 0.28875 2.26875 0.4375 3.4375 C0.61171478 6.80777201 0.61171478 6.80777201 2 8 C4.52596259 8.23653523 7.03107207 8.42173692 9.5625 8.5625 C10.27341797 8.60568359 10.98433594 8.64886719 11.71679688 8.69335938 C13.47761912 8.79971777 15.2387832 8.90038846 17 9 C14.05961133 18.28543791 10.55154633 27.37601748 6 36 C4.52205197 32.15733512 5.59397674 29.74939537 7 26 C8.32606461 22.02180616 8.06926839 18.15610343 8 14 C6.7625 14.061875 5.525 14.12375 4.25 14.1875 C1.57952703 14.16382559 0.01270486 14.00508194 -2.5 13 C-4.53967779 10.28042962 -4.49532899 8.20996037 -4.3359375 4.875 C-4 3 -4 3 -2.5625 1 C-1 0 -1 0 0 0 Z " fill="#8814AB" transform="translate(84,112)"/>
<path d="M0 0 C0 3.1819944 -0.41086442 4.32356113 -2 7 C-2.495 7.433125 -2.99 7.86625 -3.5 8.3125 C-5.29162275 10.07006017 -5.29162275 10.07006017 -5.875 13.375 C-7.17740275 17.57163107 -8.82096348 19.04803752 -12 22 C-12.721875 23.093125 -13.44375 24.18625 -14.1875 25.3125 C-14.785625 26.199375 -15.38375 27.08625 -16 28 C-16.66 28 -17.32 28 -18 28 C-18.08378906 28.60714844 -18.16757813 29.21429688 -18.25390625 29.83984375 C-19.22619721 32.65490606 -20.36185791 33.15125307 -22.9375 34.5625 C-25.99398709 36.25438487 -26.98340303 36.97510454 -29 40 C-29.66 40 -30.32 40 -31 40 C-31 39.34 -31 38.68 -31 38 C-30.34 38 -29.68 38 -29 38 C-28.86464844 37.43152344 -28.72929688 36.86304688 -28.58984375 36.27734375 C-27.05145471 30.75940941 -25.11801482 27.6481991 -20.8984375 23.8203125 C-18.80749214 21.81541427 -17.12078558 19.68492589 -15.375 17.375 C-12.79009592 13.96867085 -10.06596401 10.98931491 -7 8 C-4.63411076 5.36131431 -2.31241166 2.68559625 0 0 Z " fill="#2423A1" transform="translate(114,129)"/>
<path d="M0 0 C0.66 0 1.32 0 2 0 C1.40234442 3.38261122 0.55611847 6.40424399 -0.7421875 9.58203125 C-1.25845703 10.85723633 -1.25845703 10.85723633 -1.78515625 12.15820312 C-2.14480469 13.03412109 -2.50445312 13.91003906 -2.875 14.8125 C-4.2565761 18.20571164 -5.63149352 21.60149695 -7 25 C-7.31163086 25.76143311 -7.62326172 26.52286621 -7.94433594 27.30737305 C-9.7366253 31.82694666 -9.84144227 34.26688725 -9 39 C-10.3125 41.4375 -10.3125 41.4375 -12 44 C-12.72166191 46.31691454 -13.40059529 48.64848923 -14 51 C-14.33 51 -14.66 51 -15 51 C-15.18309406 45.69027217 -14.81180536 42.03279267 -13 37 C-12.2600555 33.68024898 -11.62118462 30.34382357 -11 27 C-11.99 27.33 -12.98 27.66 -14 28 C-13.67 26.02 -13.34 24.04 -13 22 C-12.34 22 -11.68 22 -11 22 C-10.7525 20.845 -10.505 19.69 -10.25 18.5 C-8.65532357 12.17744485 -6.60170846 6.67008485 -1 3 C-0.67 2.01 -0.34 1.02 0 0 Z " fill="#E21B94" transform="translate(102,67)"/>
<path d="M0 0 C0.98120464 3.05263664 0.98120464 4.94736336 0 8 C0.99 8.33 1.98 8.66 3 9 C3 8.34 3 7.68 3 7 C3.99 7 4.98 7 6 7 C4.37238997 10.9786023 1.60077598 13.80309944 -1.3125 16.875 C-5.01581044 20.81512077 -8.57196184 24.81641973 -12 29 C-12.33 28.34 -12.66 27.68 -13 27 C-11.99609375 24.671875 -11.99609375 24.671875 -10.4375 21.75 C-7.37698001 15.8506332 -4.75143795 9.86762657 -2.19921875 3.73828125 C-1 1 -1 1 0 0 Z " fill="#AC23C2" transform="translate(95,136)"/>
<path d="M0 0 C2.73443217 1.64344543 4.84156771 3.72636762 7.0625 6 C7.66771484 6.55300781 8.27292969 7.10601562 8.89648438 7.67578125 C10.61610115 9.39342372 11.89755343 10.83140141 13 13 C12.99015639 18.33523844 10.59061913 22.17000626 7 26 C7.11351517 24.18674449 7.24112961 22.37436643 7.375 20.5625 C7.44460937 19.55316406 7.51421875 18.54382813 7.5859375 17.50390625 C7.72257812 16.67761719 7.85921875 15.85132812 8 15 C8.66 14.67 9.32 14.34 10 14 C9.01 13.236875 8.02 12.47375 7 11.6875 C5.3125 10.38671875 5.3125 10.38671875 4 9 C4 8.01 4 7.02 4 6 C0.45793787 4.32735955 -1.27362519 3.88208756 -5 5 C-5.99 4.67 -6.98 4.34 -8 4 C-8 4.99 -8 5.98 -8 7 C-7.34 7 -6.68 7 -6 7 C-6 7.66 -6 8.32 -6 9 C-7.32 8.67 -8.64 8.34 -10 8 C-10.21917317 5.29686424 -10.32851983 3.56041618 -8.9375 1.1875 C-5.81186568 -0.72821136 -3.60837299 -0.42429744 0 0 Z " fill="#E8A0B3" transform="translate(116,59)"/>
<path d="M0 0 C0.125 2.375 0.125 2.375 0 5 C-0.66 5.66 -1.32 6.32 -2 7 C-2.391875 7.99 -2.78375 8.98 -3.1875 10 C-5.89303209 16.57057794 -10.07587626 22.98982393 -16 27 C-14.34832443 23.4213696 -12.21713508 20.25179812 -10 17 C-10.66 17 -11.32 17 -12 17 C-10.9984674 11.79203046 -6.34612061 0 0 0 Z " fill="#1D4F9E" transform="translate(131,111)"/>
<path d="M0 0 C0.66 0 1.32 0 2 0 C0.92779007 8.74697572 -0.93270682 16.73617613 -4 25 C-4.33 25 -4.66 25 -5 25 C-5.33 23.02 -5.66 21.04 -6 19 C-7.32 19.99 -8.64 20.98 -10 22 C-9.01 19.03 -8.02 16.06 -7 13 C-6.34 13 -5.68 13 -5 13 C-4.9175 12.34 -4.835 11.68 -4.75 11 C-3.75240209 7.00960837 -1.92833317 3.61450357 0 0 Z " fill="#B812A3" transform="translate(89,94)"/>
<path d="M0 0 C1.65 1.65 3.3 3.3 5 5 C4.56042969 5.68449219 4.12085938 6.36898437 3.66796875 7.07421875 C1.86212171 10.24185208 0.58837548 13.39867101 -0.6875 16.8125 C-1.12449219 17.97394531 -1.56148438 19.13539062 -2.01171875 20.33203125 C-2.33785156 21.21246094 -2.66398437 22.09289062 -3 23 C-4.97093516 19.26173868 -5.85482681 16.28260916 -6 12 C-5.19195922 10.05655832 -4.20761643 8.40583591 -3.05859375 6.64453125 C-1.70731191 4.54530743 -0.85082572 2.33977074 0 0 Z " fill="#07B4A8" transform="translate(129,73)"/>
<path d="M0 0 C0.33 0 0.66 0 1 0 C1.25 3.3125 1.25 3.3125 1 7 C-1.39238585 9.74869864 -3.62318106 10.2170505 -7.109375 10.51171875 C-8.65565179 10.58440698 -10.20266715 10.64259399 -11.75 10.6875 C-12.54277344 10.72166016 -13.33554688 10.75582031 -14.15234375 10.79101562 C-16.10107504 10.87319104 -18.05051362 10.93828045 -20 11 C-20 12.32 -20 13.64 -20 15 C-21.32 14.67 -22.64 14.34 -24 14 C-24.33 12.35 -24.66 10.7 -25 9 C-18.33928512 6.86354428 -12.89836454 7.06161953 -6 8 C-6 7.01 -6 6.02 -6 5 C-4.02 4.67 -2.04 4.34 0 4 C0 2.68 0 1.36 0 0 Z " fill="#1BBDB8" transform="translate(169,113)"/>
<path d="M0 0 C2.31243792 -0.02685412 4.6249627 -0.04632841 6.9375 -0.0625 C8.22527344 -0.07410156 9.51304688 -0.08570312 10.83984375 -0.09765625 C14 0 14 0 15 1 C15.1232639 3.99306109 15.18615703 6.96660175 15.2109375 9.9609375 C15.23900571 11.81250885 15.26767018 13.66407123 15.296875 15.515625 C15.33817026 18.44758866 15.37503937 21.37938498 15.40136719 24.31152344 C15.42892152 27.13251717 15.47479447 29.95273929 15.5234375 32.7734375 C15.52669037 33.65164154 15.52994324 34.52984558 15.53329468 35.43466187 C15.54986115 36.25205841 15.56642761 37.06945496 15.58349609 37.91162109 C15.59562637 38.98964493 15.59562637 38.98964493 15.60800171 40.08944702 C16.1220293 42.59475629 16.97439924 43.46996438 19 45 C22.61023099 45.73041853 22.61023099 45.73041853 26 46 C25.34 46.66 24.68 47.32 24 48 C20.69241606 47.856192 18.59120898 47.4027929 15.84277344 45.53027344 C13.07554745 41.73065366 13.39706501 38.23319408 13.390625 33.640625 C13.37408875 32.73624695 13.35755249 31.8318689 13.34051514 30.90008545 C13.29200021 28.01665479 13.27065656 25.13375166 13.25 22.25 C13.22184322 20.29294216 13.19191621 18.33590893 13.16015625 16.37890625 C13.08624031 11.58598092 13.03668702 6.79334904 13 2 C9.04 2 5.08 2 1 2 C0.67 1.34 0.34 0.68 0 0 Z " fill="#2A2157" transform="translate(58,123)"/>
<path d="M0 0 C0.66 1.32 1.32 2.64 2 4 C1.01 5.485 1.01 5.485 0 7 C-0.37525889 8.92632896 -0.68052824 10.86685666 -0.9375 12.8125 C-1.64560326 17.48598149 -2.54329289 20.97993382 -5 25 C-7.0625 23.3125 -7.0625 23.3125 -9 21 C-8.7134248 16.12822152 -6.13791041 11.94010665 -3.9375 7.6875 C-3.37192383 6.57665039 -3.37192383 6.57665039 -2.79492188 5.44335938 C-1.86871843 3.62612478 -0.93509371 1.81267596 0 0 Z " fill="#4D15AE" transform="translate(91,132)"/>
<path d="M0 0 C0.99 0.33 1.98 0.66 3 1 C1.94068042 10.18797596 -1.92828001 17.83478612 -6 26 C-7.21881834 22.01738233 -6.46199417 19.89865112 -5 16 C-4.17665834 13.09126012 -3.74686021 10.25521345 -3.4375 7.25 C-3.35371094 6.45078125 -3.26992187 5.6515625 -3.18359375 4.828125 C-3.12300781 4.22484375 -3.06242187 3.6215625 -3 3 C-2.34 3 -1.68 3 -1 3 C-0.67 2.01 -0.34 1.02 0 0 Z " fill="#7113A7" transform="translate(96,122)"/>
<path d="M0 0 C2 3 2 3 1.625 5.6875 C1.41875 6.450625 1.2125 7.21375 1 8 C1.66 7.67 2.32 7.34 3 7 C3.33 6.01 3.66 5.02 4 4 C4.99 4 5.98 4 7 4 C7 5.32 7 6.64 7 8 C7.62648438 8.03738281 8.25296875 8.07476562 8.8984375 8.11328125 C9.71570313 8.17902344 10.53296875 8.24476562 11.375 8.3125 C12.59316406 8.39951172 12.59316406 8.39951172 13.8359375 8.48828125 C16 9 16 9 18 12 C15.37461716 11.85946128 12.74982573 11.71281053 10.125 11.5625 C9.37863281 11.52318359 8.63226563 11.48386719 7.86328125 11.44335938 C2.2265625 11.11328125 2.2265625 11.11328125 0 10 C0 9.34 0 8.68 0 8 C-0.66 8 -1.32 8 -2 8 C-2.125 5.125 -2.125 5.125 -2 2 C-1.34 1.34 -0.68 0.68 0 0 Z " fill="#9227B1" transform="translate(56,112)"/>
<path d="M0 0 C4.67001832 3.82092408 9.09365002 7.87772781 13.4375 12.0625 C13.98180664 12.5687793 14.52611328 13.07505859 15.08691406 13.59667969 C17.54465827 16.00123274 18.92661116 17.39392359 19.34765625 20.87109375 C19.23292969 21.57363281 19.11820313 22.27617188 19 23 C13.42857143 17.85714286 13.42857143 17.85714286 13 14 C9.98968256 13.06576355 9.13349732 12.95550089 6 14 C6 12.35 6 10.7 6 9 C5.01 8.67 4.02 8.34 3 8 C0 2.77777778 0 2.77777778 0 0 Z " fill="#1BD2BB" transform="translate(150,94)"/>
<path d="M0 0 C0 3 0 3 -1 6 C-0.34 6 0.32 6 1 6 C-0.38160868 10.02969199 -2.35680598 12.69600747 -5 16 C-6.24016669 18.6794645 -6.24016669 18.6794645 -7 21 C-10 17.375 -10 17.375 -10 14 C-9.34 13.67 -8.68 13.34 -8 13 C-6.87293294 10.88984046 -6.87293294 10.88984046 -5.875 8.4375 C-5.34519531 7.19806641 -5.34519531 7.19806641 -4.8046875 5.93359375 C-4.53914063 5.29550781 -4.27359375 4.65742187 -4 4 C-3.34 4 -2.68 4 -2 4 C-1.34 2.68 -0.68 1.36 0 0 Z " fill="#2A4194" transform="translate(120,122)"/>
<path d="M0 0 C0.99 0.33 1.98 0.66 3 1 C2.04956626 2.33897583 1.08940853 3.67105427 0.125 5 C-0.40867187 5.7425 -0.94234375 6.485 -1.4921875 7.25 C-2.23855469 8.11625 -2.23855469 8.11625 -3 9 C-3.66 9 -4.32 9 -5 9 C-5.24492188 9.56203125 -5.48984375 10.1240625 -5.7421875 10.703125 C-7.22926539 13.41865854 -9.04062782 15.46391438 -11.125 17.75 C-11.84945312 18.54921875 -12.57390625 19.3484375 -13.3203125 20.171875 C-13.87460938 20.77515625 -14.42890625 21.3784375 -15 22 C-15.66 21.67 -16.32 21.34 -17 21 C-17 20.34 -17 19.68 -17 19 C-15.35 18.34 -13.7 17.68 -12 17 C-12.020625 15.989375 -12.04125 14.97875 -12.0625 13.9375 C-11.54586013 9.98197599 -9.6311165 8.47215078 -6.5625 6.0625 C-2.36923077 3 -2.36923077 3 0 3 C0 2.01 0 1.02 0 0 Z " fill="#D831AF" transform="translate(121,117)"/>
<path d="M0 0 C2.93230193 1.32120828 4.98664899 2.74638197 7.234375 5.0390625 C8.09482422 5.90917969 8.09482422 5.90917969 8.97265625 6.796875 C9.55917969 7.40015625 10.14570313 8.0034375 10.75 8.625 C11.35199219 9.23601562 11.95398438 9.84703125 12.57421875 10.4765625 C14.05405305 11.97988624 15.52764676 13.48934856 17 15 C15.68 15.33 14.36 15.66 13 16 C12.67 14.68 12.34 13.36 12 12 C11.236875 11.87625 10.47375 11.7525 9.6875 11.625 C7 11 7 11 4 9 C4.33 8.01 4.66 7.02 5 6 C4.01 6 3.02 6 2 6 C2 4.68 2 3.36 2 2 C1.34 2 0.68 2 0 2 C-0.33 2.99 -0.66 3.98 -1 5 C-0.67 3.35 -0.34 1.7 0 0 Z " fill="#18E6CB" transform="translate(133,78)"/>
<path d="M0 0 C-0.33 2.31 -0.66 4.62 -1 7 C-1.99 7.33 -2.98 7.66 -4 8 C-4 8.66 -4 9.32 -4 10 C-4.66 10 -5.32 10 -6 10 C-6.33 11.32 -6.66 12.64 -7 14 C-7.66 14 -8.32 14 -9 14 C-9.48218104 9.08175339 -9.76231598 6.03759675 -6.75 1.9375 C-4 0 -4 0 0 0 Z " fill="#A921BD" transform="translate(66,106)"/>
<path d="M0 0 C0.33 0 0.66 0 1 0 C1.33 1.98 1.66 3.96 2 6 C7.32170494 6.29562367 7.32170494 6.29562367 12 4 C13.32 4.99 14.64 5.98 16 7 C15.67 8.32 15.34 9.64 15 11 C15 10.34 15 9.68 15 9 C13.39318359 9.01740234 13.39318359 9.01740234 11.75390625 9.03515625 C10.35677257 9.04453299 8.95963701 9.05363331 7.5625 9.0625 C6.85544922 9.07087891 6.14839844 9.07925781 5.41992188 9.08789062 C3.61306441 9.09653588 1.80612397 9.05220011 0 9 C-0.33 8.67 -0.66 8.34 -1 8 C-0.82364548 5.30917128 -0.38164079 2.67148554 0 0 Z " fill="#AC19AA" transform="translate(86,112)"/>
<path d="M0 0 C0.66 0.33 1.32 0.66 2 1 C1.46321216 2.82028056 0.89465259 4.63121628 0.3125 6.4375 C-0.15736328 7.95150391 -0.15736328 7.95150391 -0.63671875 9.49609375 C-2 12 -2 12 -4.64453125 12.84765625 C-5.42183594 12.89792969 -6.19914062 12.94820312 -7 13 C-7 12.01 -7 11.02 -7 10 C-7.66 9.67 -8.32 9.34 -9 9 C-8 7 -8 7 -5 6 C-4.26676204 3.98491642 -4.26676204 3.98491642 -4 2 C-2.68 2 -1.36 2 0 2 C0 1.34 0 0.68 0 0 Z " fill="#F036A5" transform="translate(93,77)"/>
<path d="M0 0 C1.13199353 0.9080162 2.25532363 1.82683826 3.375 2.75 C4.00148438 3.26046875 4.62796875 3.7709375 5.2734375 4.296875 C7.13682028 6.13496299 8.14241932 7.52786799 9 10 C7.56670516 14.22444796 5.72018571 17.5059023 3 21 C3.11351517 19.18674449 3.24112961 17.37436643 3.375 15.5625 C3.44460937 14.55316406 3.51421875 13.54382813 3.5859375 12.50390625 C3.72257812 11.67761719 3.85921875 10.85132812 4 10 C4.66 9.67 5.32 9.34 6 9 C5.01 8.2575 4.02 7.515 3 6.75 C1.3125 5.484375 1.3125 5.484375 0 4 C0 2.68 0 1.36 0 0 Z " fill="#D591A9" transform="translate(120,64)"/>
<path d="M0 0 C0.33 0 0.66 0 1 0 C2.0735426 9.26995516 2.0735426 9.26995516 -0.55859375 13.51171875 C-2.29362612 15.45621177 -4.054275 17.26770912 -6 19 C-6.33 18.01 -6.66 17.02 -7 16 C-6.34 15.34 -5.68 14.68 -5 14 C-4.43139494 11.96912993 -4.43139494 11.96912993 -4.0625 9.6875 C-3.30202559 5.94548304 -2.31043887 3.11406978 0 0 Z " fill="#0A6F8E" transform="translate(135,102)"/>
<path d="M0 0 C0.33 0 0.66 0 1 0 C1.05814085 3.58326501 1.09364357 7.16640838 1.125 10.75 C1.14175781 11.76578125 1.15851563 12.7815625 1.17578125 13.828125 C1.18222656 14.8078125 1.18867188 15.7875 1.1953125 16.796875 C1.20578613 17.69760742 1.21625977 18.59833984 1.22705078 19.52636719 C0.98721676 22.13926856 0.32312064 23.75664666 -1 26 C-2.98 26 -4.96 26 -7 26 C-7 24.68 -7 23.36 -7 22 C-5.35 22 -3.7 22 -2 22 C-0.89155081 18.67465243 -1.15545644 16.37817425 -2 13 C-1.67 13 -1.34 13 -1 13 C-0.67 8.71 -0.34 4.42 0 0 Z " fill="#243A9D" transform="translate(149,144)"/>
<path d="M0 0 C0.33 0.66 0.66 1.32 1 2 C0.01 3.485 0.01 3.485 -1 5 C-1.66 5 -2.32 5 -3 5 C-3.0825 5.61875 -3.165 6.2375 -3.25 6.875 C-4 9 -4 9 -5.9375 10.0625 C-6.9584375 10.5265625 -6.9584375 10.5265625 -8 11 C-8.99 12.485 -8.99 12.485 -10 14 C-10.66 14 -11.32 14 -12 14 C-12 14.66 -12 15.32 -12 16 C-13.32 15.67 -14.64 15.34 -16 15 C-13.71240451 12.68344197 -11.41925113 10.37246517 -9.125 8.0625 C-8.47402344 7.40314453 -7.82304688 6.74378906 -7.15234375 6.06445312 C-6.52714844 5.43603516 -5.90195313 4.80761719 -5.2578125 4.16015625 C-4.6817627 3.57886963 -4.10571289 2.99758301 -3.51220703 2.39868164 C-2 1 -2 1 0 0 Z " fill="#C83E7F" transform="translate(105,63)"/>
<path d="M0 0 C0.66 0 1.32 0 2 0 C2.33 0.66 2.66 1.32 3 2 C3.66 1.67 4.32 1.34 5 1 C4.67 3.31 4.34 5.62 4 8 C4.66 8.33 5.32 8.66 6 9 C5.67 9.99 5.34 10.98 5 12 C3.02 12.33 1.04 12.66 -1 13 C-1.33 12.34 -1.66 11.68 -2 11 C-1.34 10.01 -0.68 9.02 0 8 C0.24055468 5.94290404 0.24055468 5.94290404 0.125 3.8125 C0.08375 2.554375 0.0425 1.29625 0 0 Z " fill="#20373F" transform="translate(169,112)"/>
<path d="M0 0 C1.9375 0.875 1.9375 0.875 3.9375 3.875 C3.40125 3.6275 2.865 3.38 2.3125 3.125 C-1.39459622 2.73477935 -3.19134406 4.67581672 -6.0625 6.875 C-6.64 7.4525 -7.2175 8.03 -7.8125 8.625 C-8.225 9.0375 -8.6375 9.45 -9.0625 9.875 C-9.7225 9.875 -10.3825 9.875 -11.0625 9.875 C-11.7225 11.195 -12.3825 12.515 -13.0625 13.875 C-14.0525 13.545 -15.0425 13.215 -16.0625 12.875 C-15.0725 12.215 -14.0825 11.555 -13.0625 10.875 C-12.60875 10.070625 -12.155 9.26625 -11.6875 8.4375 C-9.8102025 5.47714625 -8.09663654 4.5437751 -5.0625 2.875 C-4.546875 2.2975 -4.03125 1.72 -3.5 1.125 C-2.0625 -0.125 -2.0625 -0.125 0 0 Z " fill="#1E2846" transform="translate(112.0625,144.125)"/>
<path d="M0 0 C0 1.98 0 3.96 0 6 C0.66 6 1.32 6 2 6 C2.125 9.375 2.125 9.375 2 13 C1.34 13.66 0.68 14.32 0 15 C-3 15 -3 15 -5 14 C-4.484375 13.484375 -3.96875 12.96875 -3.4375 12.4375 C-1.411321 9.00180517 -2.15511762 6.80197069 -3 3 C-3.33 2.34 -3.66 1.68 -4 1 C-2 0 -2 0 0 0 Z " fill="#0DC2BB" transform="translate(142,96)"/>
<path d="M0 0 C6.27 0 12.54 0 19 0 C18.0816323 3.67347079 17.1301794 5.93254166 15 9 C14.34 9 13.68 9 13 9 C13.33 6.36 13.66 3.72 14 1 C9.38 1 4.76 1 0 1 C0 0.67 0 0.34 0 0 Z " fill="#D05AA1" transform="translate(116,102)"/>
<path d="M0 0 C2.04049422 1.2704964 4.05017465 2.59431196 6 4 C5.67 5.32 5.34 6.64 5 8 C4.319375 7.175 3.63875 6.35 2.9375 5.5 C0.17481934 2.68261758 0.17481934 2.68261758 -3.625 2.5625 C-7.12399479 2.76262186 -7.12399479 2.76262186 -10 5 C-10 3.68 -10 2.36 -10 1 C-6.20867469 -0.84150087 -4.02401912 -1.37405531 0 0 Z " fill="#473C45" transform="translate(116,57)"/>
<path d="M0 0 C0.66 0 1.32 0 2 0 C1.68762196 2.88949684 1.35661121 4.58633099 -0.5625 6.8125 C-5.03839676 8.99306509 -10.31931822 8.56022726 -15 7 C-15 6.01 -15 5.02 -15 4 C-14.29875 4.350625 -13.5975 4.70125 -12.875 5.0625 C-9.35533802 6.21021586 -7.52168615 6.12394239 -4 5 C-1.75149517 2.52338502 -1.75149517 2.52338502 0 0 Z " fill="#212442" transform="translate(88,164)"/>
<path d="M0 0 C0.99 1.32 1.98 2.64 3 4 C2.731875 4.515625 2.46375 5.03125 2.1875 5.5625 C0.87523423 8.17196625 0.87523423 8.17196625 -0.4375 11.6875 C-0.953125 12.780625 -1.46875 13.87375 -2 15 C-2.99 15.33 -3.98 15.66 -5 16 C-3.90301833 10.30860098 -2.45946923 5.25432063 0 0 Z " fill="#FB669D" transform="translate(105,65)"/>
<path d="M0 0 C0.66 0 1.32 0 2 0 C2.25 2.3125 2.25 2.3125 2 5 C-0.04424538 6.97610386 -1.1176825 8 -4 8 C-4 8.66 -4 9.32 -4 10 C-5.32 10.33 -6.64 10.66 -8 11 C-5.71094117 6.90378947 -3.14344452 3.46584909 0 0 Z " fill="#3A588B" transform="translate(129,111)"/>
<path d="M0 0 C2.31243792 -0.02685412 4.6249627 -0.04632841 6.9375 -0.0625 C8.22527344 -0.07410156 9.51304688 -0.08570312 10.83984375 -0.09765625 C14 0 14 0 15 1 C15.07179964 2.51928038 15.08392007 4.04167482 15.0625 5.5625 C15.05347656 6.38878906 15.04445313 7.21507812 15.03515625 8.06640625 C15.02355469 8.70449219 15.01195313 9.34257812 15 10 C14.67 10 14.34 10 14 10 C13.67 7.36 13.34 4.72 13 2 C9.04 2 5.08 2 1 2 C0.67 1.34 0.34 0.68 0 0 Z " fill="#45215C" transform="translate(58,123)"/>
<path d="M0 0 C7.176781 -0.35883905 7.176781 -0.35883905 10.4375 1.0625 C12.692054 3.85814696 12.73499386 6.48866866 13 10 C12.67 9.01 12.34 8.02 12 7 C11.01 7 10.02 7 9 7 C9 6.34 9 5.68 9 5 C8.01 5 7.02 5 6 5 C6 4.01 6 3.02 6 2 C3.03 1.505 3.03 1.505 0 1 C0 0.67 0 0.34 0 0 Z " fill="#0C9599" transform="translate(128,96)"/>
<path d="M0 0 C0.66 0.33 1.32 0.66 2 1 C0.84826645 3.46800047 -0.04783565 5.04783565 -2 7 C-2.99 7 -3.98 7 -5 7 C-5 7.66 -5 8.32 -5 9 C-5.66 9 -6.32 9 -7 9 C-7 9.66 -7 10.32 -7 11 C-7.66 11 -8.32 11 -9 11 C-9.33 9.35 -9.66 7.7 -10 6 C-8.72125 5.7525 -7.4425 5.505 -6.125 5.25 C-2.73252682 4.48009414 -2.73252682 4.48009414 -0.5 1.875 C-0.335 1.25625 -0.17 0.6375 0 0 Z " fill="#202635" transform="translate(150,165)"/>
<path d="M0 0 C0 3.19633438 -0.33810135 4.34096216 -2 7 C-3.32848691 8.00642948 -4.66150329 9.00692179 -6 10 C-6.33 10.99 -6.66 11.98 -7 13 C-8.31647119 13.69937532 -9.65022151 14.36729133 -11 15 C-11.33 15.66 -11.66 16.32 -12 17 C-12.66 16.67 -13.32 16.34 -14 16 C-9.33333333 10.66666667 -4.66666667 5.33333333 0 0 Z " fill="#46269D" transform="translate(114,129)"/>
<path d="M0 0 C0 1.65 0 3.3 0 5 C-0.99 5 -1.98 5 -3 5 C-3.33 6.32 -3.66 7.64 -4 9 C-6.31 9.66 -8.62 10.32 -11 11 C-1.73033708 0 -1.73033708 0 0 0 Z " fill="#B52AA5" transform="translate(74,95)"/>
<path d="M0 0 C0.99 0 1.98 0 3 0 C0.66918786 5.72108435 -4.22850416 9.31913178 -9 13 C-8.70100785 9.41209425 -8.23013399 8.21833224 -5.5625 5.6875 C-3 4 -3 4 -1 4 C-0.67 2.68 -0.34 1.36 0 0 Z " fill="#4E2D55" transform="translate(81,83)"/>
<path d="M0 0 C0 0.99 0 1.98 0 3 C0.3062434 4.33981486 0.63451555 5.67511887 1 7 C0.34 7 -0.32 7 -1 7 C-1 7.66 -1 8.32 -1 9 C-1.99 9 -2.98 9 -4 9 C-4.33 9.66 -4.66 10.32 -5 11 C-5.99 10.34 -6.98 9.68 -8 9 C-5.36 6.03 -2.72 3.06 0 0 Z " fill="#3E474C" transform="translate(31,44)"/>
<path d="M0 0 C0 3 0 3 -1 5 C-2.11375 5.474375 -3.2275 5.94875 -4.375 6.4375 C-7.43357217 7.75585007 -8.96872183 8.49077403 -11 11 C-11.66 10.34 -12.32 9.68 -13 9 C-11.20966193 7.68568828 -9.41768797 6.3736047 -7.625 5.0625 C-6.62726562 4.33160156 -5.62953125 3.60070312 -4.6015625 2.84765625 C-2 1 -2 1 0 0 Z " fill="#434B50" transform="translate(58,22)"/>
<path d="M0 0 C1.32 0 2.64 0 4 0 C4 0.99 4 1.98 4 3 C5.65 2.34 7.3 1.68 9 1 C10.43088528 3.86177057 9.59991697 5.93375773 9 9 C7.87105124 8.06725891 6.74699124 7.12859878 5.625 6.1875 C4.99851563 5.66542969 4.37203125 5.14335938 3.7265625 4.60546875 C2 3 2 3 0 0 Z " fill="#173C40" transform="translate(153,96)"/>
<path d="M0 0 C0.33 1.32 0.66 2.64 1 4 C0.071875 4.12375 0.071875 4.12375 -0.875 4.25 C-3.1346633 4.77905978 -3.1346633 4.77905978 -3.9375 6.75 C-4.288125 7.4925 -4.63875 8.235 -5 9 C-7.75777835 12.04807081 -10.16657065 14.43823249 -14 16 C-10.94873605 11.55387253 -7.9283512 7.72689729 -4 4 C-3.236875 3.236875 -2.47375 2.47375 -1.6875 1.6875 C-1.130625 1.130625 -0.57375 0.57375 0 0 Z " fill="#C33E97" transform="translate(88,79)"/>
<path d="M0 0 C1.31602523 0.61754259 2.62773556 1.24428742 3.9375 1.875 C4.66839844 2.22304688 5.39929688 2.57109375 6.15234375 2.9296875 C8 4 8 4 9 6 C2.25 7.125 2.25 7.125 0 6 C0 4.02 0 2.04 0 0 Z " fill="#424C52" transform="translate(169,22)"/>
<path d="M0 0 C-0.639375 0.2475 -1.27875 0.495 -1.9375 0.75 C-2.9584375 1.36875 -2.9584375 1.36875 -4 2 C-4.144375 2.639375 -4.28875 3.27875 -4.4375 3.9375 C-5 6 -5 6 -7.5625 7.75 C-8.7690625 8.36875 -8.7690625 8.36875 -10 9 C-9.01 6.03 -8.02 3.06 -7 0 C-2.25 -1.125 -2.25 -1.125 0 0 Z " fill="#242280" transform="translate(100,155)"/>
<path d="M0 0 C0.99 0.99 1.98 1.98 3 3 C2.01 3 1.02 3 0 3 C0 5.64 0 8.28 0 11 C-0.99 11.33 -1.98 11.66 -3 12 C-3.33 12.66 -3.66 13.32 -4 14 C-4.66 14 -5.32 14 -6 14 C-4.50829734 9.0276578 -2.39542583 4.58154261 0 0 Z " fill="#2C9F9C" transform="translate(129,73)"/>
<path d="M0 0 C-0.268125 0.515625 -0.53625 1.03125 -0.8125 1.5625 C-2.32349407 4.66401415 -3.65572726 7.82262806 -5 11 C-8 7.375 -8 7.375 -8 4 C-2.74285714 0 -2.74285714 0 0 0 Z " fill="#1C389D" transform="translate(118,132)"/>
<path d="M0 0 C0.99 1.32 1.98 2.64 3 4 C2.54625 4.680625 2.0925 5.36125 1.625 6.0625 C-0.16836486 9.30435186 -1.08753869 12.4203441 -2 16 C-2.33 16 -2.66 16 -3 16 C-3.33266291 9.79029227 -2.45029331 5.71735105 0 0 Z " fill="#E522AA" transform="translate(90,102)"/>
<path d="M0 0 C0.70703125 1.734375 0.70703125 1.734375 1 4 C-0.36328125 6.140625 -0.36328125 6.140625 -2.3125 8.25 C-2.94800781 8.95640625 -3.58351563 9.6628125 -4.23828125 10.390625 C-6 12 -6 12 -8 12 C-8 11.34 -8 10.68 -8 10 C-7.34 10 -6.68 10 -6 10 C-5.7525 9.0925 -5.505 8.185 -5.25 7.25 C-3.96018658 3.89648511 -2.68028958 2.32291764 0 0 Z " fill="#241B96" transform="translate(91,157)"/>
<path d="M0 0 C2 3 2 3 1.75 6.5625 C1 10 1 10 -1 12 C-1.77321882 9.01758453 -2.41196203 6.02419525 -3 3 C-2.01 2.67 -1.02 2.34 0 2 C0 1.34 0 0.68 0 0 Z " fill="#3E15A6" transform="translate(83,151)"/>
<path d="M0 0 C1 3 1 3 1 5 C0.01 5.33 -0.98 5.66 -2 6 C-2.33 6.99 -2.66 7.98 -3 9 C-5.92079805 11.07530387 -7.37546731 12 -11 12 C-10.54109375 11.55269531 -10.0821875 11.10539063 -9.609375 10.64453125 C-6.16447701 7.25029352 -2.92744915 3.86423288 0 0 Z " fill="#3D16AA" transform="translate(99,146)"/>
<path d="M0 0 C1.24546405 2.49092811 0.7767578 3.41080733 0 6 C-0.66 6 -1.32 6 -2 6 C-2.2475 7.11375 -2.495 8.2275 -2.75 9.375 C-4 13 -4 13 -6.125 14.4375 C-6.74375 14.623125 -7.3625 14.80875 -8 15 C-6.51194289 9.19657726 -3.40902445 4.82409121 0 0 Z " fill="#4C5257" transform="translate(22,55)"/>
<path d="M0 0 C0.66 0 1.32 0 2 0 C2 0.66 2 1.32 2 2 C2.99 2 3.98 2 5 2 C5.25 4.25 5.25 4.25 5 7 C3 9.3125 3 9.3125 1 11 C0.67 7.37 0.34 3.74 0 0 Z " fill="#0C808D" transform="translate(135,101)"/>
<path d="M0 0 C0.66 0 1.32 0 2 0 C1.27991594 4.60853797 -0.31295939 8.67237409 -2 13 C-3.36118461 10.75804887 -4.06138028 9.52173238 -3.75 6.875 C-3 5 -3 5 -1 3 C-0.67 2.01 -0.34 1.02 0 0 Z " fill="#E52680" transform="translate(102,67)"/>
<path d="M0 0 C0.33 2.31 0.66 4.62 1 7 C-0.32 7.33 -1.64 7.66 -3 8 C-3.99 6.68 -4.98 5.36 -6 4 C-2.25 0 -2.25 0 0 0 Z " fill="#3F484F" transform="translate(45,32)"/>
<path d="M0 0 C0.33 0.66 0.66 1.32 1 2 C1.99 2.33 2.98 2.66 4 3 C1.36 5.97 -1.28 8.94 -4 12 C-4.33 11.34 -4.66 10.68 -5 10 C-4.00390625 7.6171875 -4.00390625 7.6171875 -2.5625 4.875 C-1.85287109 3.50988281 -1.85287109 3.50988281 -1.12890625 2.1171875 C-0.75636719 1.41851562 -0.38382812 0.71984375 0 0 Z " fill="#8224BB" transform="translate(87,153)"/>
<path d="M0 0 C2 3 2 3 1.625 6.1875 C1.41875 7.115625 1.2125 8.04375 1 9 C-0.32 9 -1.64 9 -3 9 C-2.44271087 5.65626525 -1.64826111 2.96687001 0 0 Z " fill="#C71EBF" transform="translate(97,136)"/>
<path d="M0 0 C1.078125 1.828125 1.078125 1.828125 2 4 C0.75 6.75 0.75 6.75 -1 9 C-1.66 9 -2.32 9 -3 9 C-3.33 9.99 -3.66 10.98 -4 12 C-5 9 -5 9 -4.00390625 6.73828125 C-3.52824219 5.93777344 -3.05257812 5.13726562 -2.5625 4.3125 C-2.08941406 3.50425781 -1.61632812 2.69601563 -1.12890625 1.86328125 C-0.75636719 1.24839844 -0.38382812 0.63351563 0 0 Z " fill="#5C17B3" transform="translate(91,132)"/>
<path d="M0 0 C0.33 0 0.66 0 1 0 C1 1.98 1 3.96 1 6 C1.66 6 2.32 6 3 6 C3 6.66 3 7.32 3 8 C3.66 8 4.32 8 5 8 C5 8.66 5 9.32 5 10 C3.02 10.99 3.02 10.99 1 12 C0.34 11.34 -0.32 10.68 -1 10 C-0.9765625 7.6171875 -0.9765625 7.6171875 -0.625 4.875 C-0.51414063 3.96492188 -0.40328125 3.05484375 -0.2890625 2.1171875 C-0.19367187 1.41851562 -0.09828125 0.71984375 0 0 Z " fill="#372C47" transform="translate(53,114)"/>
<path d="M0 0 C0.93045933 2.55144824 1.08564091 3.74006478 0.22265625 6.359375 C-0.16019531 7.14828125 -0.54304688 7.9371875 -0.9375 8.75 C-1.50791016 9.94882813 -1.50791016 9.94882813 -2.08984375 11.171875 C-2.39019531 11.77515625 -2.69054687 12.3784375 -3 13 C-4.20930281 9.02902696 -3.56147135 6.86258703 -2 3 C-1.34 2.01 -0.68 1.02 0 0 Z " fill="#6011A8" transform="translate(93,135)"/>
<path d="M0 0 C2 3 2 3 1.625 5.1875 C1.41875 5.785625 1.2125 6.38375 1 7 C-0.32 6.67 -1.64 6.34 -3 6 C-3.33 4.35 -3.66 2.7 -4 1 C-2.68 0.67 -1.36 0.34 0 0 Z " fill="#0FA0C0" transform="translate(148,121)"/>
<path d="M0 0 C1.1875 1.5 1.1875 1.5 2 4 C1.27101296 6.78824238 0.1843275 9.37665092 -1 12 C-1.66 12 -2.32 12 -3 12 C-2.49202991 7.6822542 -1.80317221 3.96697886 0 0 Z " fill="#F230A7" transform="translate(94,92)"/>
<path d="M0 0 C0.66 0.33 1.32 0.66 2 1 C1.34 4.63 0.68 8.26 0 12 C-1.64350079 8.71299843 -2.41321669 6.52069985 -3 3 C-2.34 3 -1.68 3 -1 3 C-0.67 2.01 -0.34 1.02 0 0 Z " fill="#09989D" transform="translate(126,84)"/>
<path d="M0 0 C2.475 0.99 2.475 0.99 5 2 C4.67 2.66 4.34 3.32 4 4 C1.03 3.505 1.03 3.505 -2 3 C-1.34 2.01 -0.68 1.02 0 0 Z M-4 2 C-3.01 2.495 -3.01 2.495 -2 3 C-2 3.99 -2 4.98 -2 6 C-1.34 6 -0.68 6 0 6 C0 6.66 0 7.32 0 8 C-1.32 7.67 -2.64 7.34 -4 7 C-4 5.35 -4 3.7 -4 2 Z " fill="#F48EA8" transform="translate(110,60)"/>
<path d="M0 0 C0.66 0.33 1.32 0.66 2 1 C0.75023244 4.65316671 0.32901247 5.78065836 -3 8 C-3.99 7.34 -4.98 6.68 -6 6 C-4.02 4.02 -2.04 2.04 0 0 Z " fill="#394348" transform="translate(38,37)"/>
<path d="M0 0 C0.33 0.66 0.66 1.32 1 2 C-0.125 5.0625 -0.125 5.0625 -2 8 C-4.6875 8.875 -4.6875 8.875 -7 9 C-6.6875 7.0625 -6.6875 7.0625 -6 5 C-5.01 4.67 -4.02 4.34 -3 4 C-1.31461399 2.00334686 -1.31461399 2.00334686 0 0 Z " fill="#3D15A2" transform="translate(87,159)"/>
<path d="M0 0 C2.49415272 0.99766109 3.78740335 1.68616685 5.3125 3.9375 C6 6 6 6 5 9 C3.02 6.69 1.04 4.38 -1 2 C-0.67 1.34 -0.34 0.68 0 0 Z " fill="#1B4048" transform="translate(163,103)"/>
<path d="M0 0 C0.99 0 1.98 0 3 0 C4.13643966 3.40931897 3.86747764 4.00335456 2.5625 7.1875 C2.27503906 7.90292969 1.98757812 8.61835937 1.69140625 9.35546875 C1.46324219 9.89816406 1.23507813 10.44085938 1 11 C0.67 11 0.34 11 0 11 C0.33 8.36 0.66 5.72 1 3 C0.34 2.67 -0.32 2.34 -1 2 C-0.67 1.34 -0.34 0.68 0 0 Z " fill="#D21297" transform="translate(90,91)"/>
<path d="M0 0 C0.66 0 1.32 0 2 0 C1.61479436 2.53910197 1.29902057 3.72751123 -0.62890625 5.484375 C-1.26699219 5.90203125 -1.90507813 6.3196875 -2.5625 6.75 C-3.20316406 7.17796875 -3.84382813 7.6059375 -4.50390625 8.046875 C-5.24447266 8.51867187 -5.24447266 8.51867187 -6 9 C-6 6 -6 6 -3.5625 3.375 C-2.716875 2.59125 -1.87125 1.8075 -1 1 C-0.67 0.67 -0.34 0.34 0 0 Z " fill="#DF2AAF" transform="translate(80,89)"/>
<path d="M0 0 C0.33 0 0.66 0 1 0 C1.3125 3.3125 1.3125 3.3125 1 7 C-1.5 8.9375 -1.5 8.9375 -4 10 C-3.52449439 8.51965236 -3.04448784 7.04074979 -2.5625 5.5625 C-2.29566406 4.73878906 -2.02882813 3.91507812 -1.75390625 3.06640625 C-1 1 -1 1 0 0 Z " fill="#E82290" transform="translate(97,73)"/>
<path d="M0 0 C0.99 0.66 1.98 1.32 3 2 C2.1875 3.9375 2.1875 3.9375 1 6 C0.01 6.33 -0.98 6.66 -2 7 C-2.125 4.625 -2.125 4.625 -2 2 C-1.34 1.34 -0.68 0.68 0 0 Z " fill="#25272F" transform="translate(70,169)"/>
<path d="M0 0 C0.99 0.33 1.98 0.66 3 1 C0.69 3.64 -1.62 6.28 -4 9 C-4.66 8.67 -5.32 8.34 -6 8 C-6 7.34 -6 6.68 -6 6 C-5.195625 5.7525 -4.39125 5.505 -3.5625 5.25 C-0.828919 4.27761141 -0.828919 4.27761141 -0.1875 1.875 C-0.125625 1.25625 -0.06375 0.6375 0 0 Z " fill="#BE2BB8" transform="translate(110,130)"/>
<path d="M0 0 C0.33 0 0.66 0 1 0 C0.67 2.31 0.34 4.62 0 7 C-0.99 6.67 -1.98 6.34 -3 6 C-3.99 6 -4.98 6 -6 6 C-4 4 -2 2 0 0 Z " fill="#10B1B8" transform="translate(143,104)"/>
<path d="M0 0 C0.33 0.66 0.66 1.32 1 2 C0.00390625 4.3828125 0.00390625 4.3828125 -1.4375 7.125 C-1.91058594 8.03507812 -2.38367188 8.94515625 -2.87109375 9.8828125 C-3.24363281 10.58148438 -3.61617188 11.28015625 -4 12 C-4.33 10.68 -4.66 9.36 -5 8 C-4.34 8 -3.68 8 -3 8 C-3.061875 7.05125 -3.12375 6.1025 -3.1875 5.125 C-3.125625 4.09375 -3.06375 3.0625 -3 2 C-2.01 1.34 -1.02 0.68 0 0 Z " fill="#C86C9F" transform="translate(122,85)"/>
<path d="M0 0 C0.75 1.75 0.75 1.75 1 4 C-0.9375 6.25 -0.9375 6.25 -3 8 C-3.33 6.35 -3.66 4.7 -4 3 C-3.34 3 -2.68 3 -2 3 C-2 2.34 -2 1.68 -2 1 C-1.34 0.67 -0.68 0.34 0 0 Z " fill="#125B93" transform="translate(127,118)"/>
<path d="M0 0 C1.68496298 0.96885372 3.35178756 1.96986723 5 3 C5 3.33 5 3.66 5 4 C1.37 4 -2.26 4 -6 4 C-5.67 3.34 -5.34 2.68 -5 2 C-3.67696283 1.6278958 -2.34262065 1.29369827 -1 1 C-0.67 0.67 -0.34 0.34 0 0 Z " fill="#E520B2" transform="translate(97,116)"/>
<path d="M0 0 C2 2 2 2 2 4 C1.68521554 5.33783393 1.35412344 6.67203709 1 8 C-0.32 8.33 -1.64 8.66 -3 9 C-2.01 6.03 -1.02 3.06 0 0 Z " fill="#474C52" transform="translate(13,70)"/>
<path d="M0 0 C2.96175123 0.61277612 4.38058783 1.25372522 7 3 C7.6875 5.625 7.6875 5.625 8 8 C6.85073734 7.04578192 5.70569459 6.08647955 4.5625 5.125 C3.92441406 4.59132813 3.28632813 4.05765625 2.62890625 3.5078125 C1 2 1 2 0 0 Z " fill="#11484C" transform="translate(140,83)"/>
<path d="M0 0 C0.33 1.32 0.66 2.64 1 4 C0.01 4.33 -0.98 4.66 -2 5 C-2 5.66 -2 6.32 -2 7 C-3.32 6.67 -4.64 6.34 -6 6 C-4.02 4.02 -2.04 2.04 0 0 Z " fill="#C84A8E" transform="translate(95,72)"/>
<path d="M0 0 C0.66 0 1.32 0 2 0 C1.45276317 3.37462715 0.9451 5.08235 -1 8 C-1.66 8 -2.32 8 -3 8 C-3 6.68 -3 5.36 -3 4 C-2.34 3.67 -1.68 3.34 -1 3 C-0.67 2.01 -0.34 1.02 0 0 Z " fill="#371EAD" transform="translate(78,157)"/>
<path d="M0 0 C4.2742558 1.5830577 6.26531794 4.50568404 9 8 C8.01 8.495 8.01 8.495 7 9 C6.1028125 7.7934375 6.1028125 7.7934375 5.1875 6.5625 C3.19052724 3.77672016 3.19052724 3.77672016 0 3 C0 2.01 0 1.02 0 0 Z " fill="#1F2649" transform="translate(128,160)"/>
<path d="M0 0 C0.66 0 1.32 0 2 0 C2 2.31 2 4.62 2 7 C1.01 7.33 0.02 7.66 -1 8 C-0.67 5.36 -0.34 2.72 0 0 Z " fill="#E124B6" transform="translate(102,120)"/>
<path d="M0 0 C0.78375 0.185625 1.5675 0.37125 2.375 0.5625 C4.97089775 1.25962266 4.97089775 1.25962266 7 0 C7 2.31 7 4.62 7 7 C5.83040013 6.02433888 4.66438823 5.044375 3.5 4.0625 C2.8503125 3.51722656 2.200625 2.97195312 1.53125 2.41015625 C1.0259375 1.94480469 0.520625 1.47945313 0 1 C0 0.67 0 0.34 0 0 Z " fill="#244446" transform="translate(127,70)"/>
<path d="M0 0 C0.33 0 0.66 0 1 0 C1.1546875 1.423125 1.1546875 1.423125 1.3125 2.875 C1.68539295 6.29107501 1.68539295 6.29107501 5 8 C3.02 8 1.04 8 -1 8 C-0.67 5.36 -0.34 2.72 0 0 Z " fill="#C61AAE" transform="translate(86,112)"/>
<path d="M0 0 C0.33 0 0.66 0 1 0 C1 1.98 1 3.96 1 6 C0.01 6.33 -0.98 6.66 -2 7 C-2 7.66 -2 8.32 -2 9 C-2.66 8.67 -3.32 8.34 -4 8 C-2.68 5.36 -1.36 2.72 0 0 Z " fill="#406C88" transform="translate(135,102)"/>
<path d="M0 0 C0.99 0 1.98 0 3 0 C3 1.65 3 3.3 3 5 C1.68 5 0.36 5 -1 5 C-0.67 3.35 -0.34 1.7 0 0 Z " fill="#0F7C8A" transform="translate(120,95)"/>
<path d="M0 0 C1.65 1.65 3.3 3.3 5 5 C4.01 5 3.02 5 2 5 C1.67 5.66 1.34 6.32 1 7 C0.34 6.67 -0.32 6.34 -1 6 C-0.67 4.02 -0.34 2.04 0 0 Z " fill="#3B434B" transform="translate(193,41)"/>
<path d="M0 0 C3.465 1.485 3.465 1.485 7 3 C5.68 3.99 4.36 4.98 3 6 C0 2.25 0 2.25 0 0 Z " fill="#4C5459" transform="translate(160,17)"/>
<path d="M0 0 C-0.6875 1.9375 -0.6875 1.9375 -2 4 C-4.5 4.875 -4.5 4.875 -7 5 C-7.66 4.34 -8.32 3.68 -9 3 C-2.25 0 -2.25 0 0 0 Z " fill="#4D565A" transform="translate(74,15)"/>
<path d="M0 0 C3.82097239 0.53069061 6.06171403 1.49701566 9 4 C5.625 3.6875 5.625 3.6875 2 3 C1.34 2.01 0.68 1.02 0 0 Z " fill="#24287C" transform="translate(136,167)"/>
<path d="M0 0 C1.98 0.99 1.98 0.99 4 2 C3.625 3.9375 3.625 3.9375 3 6 C2.01 6.495 2.01 6.495 1 7 C0.67 4.69 0.34 2.38 0 0 Z " fill="#9323C1" transform="translate(74,121)"/>
<path d="M0 0 C1.98 1.65 3.96 3.3 6 5 C4.68 5.33 3.36 5.66 2 6 C1.34 4.02 0.68 2.04 0 0 Z " fill="#1CD1BC" transform="translate(144,88)"/>
<path d="M0 0 C1.32 0.33 2.64 0.66 4 1 C2.75 3 2.75 3 1 5 C-0.32 5 -1.64 5 -3 5 C-2.67 4.34 -2.34 3.68 -2 3 C-1.34 3.33 -0.68 3.66 0 4 C0 2.68 0 1.36 0 0 Z " fill="#36374B" transform="translate(84,78)"/>
<path d="M0 0 C0.66 0 1.32 0 2 0 C2 0.66 2 1.32 2 2 C2.66 2 3.32 2 4 2 C4.33 3.65 4.66 5.3 5 7 C3.02 5.35 1.04 3.7 -1 2 C-0.67 1.34 -0.34 0.68 0 0 Z " fill="#15494E" transform="translate(135,76)"/>
<path d="M0 0 C0 0.33 0 0.66 0 1 C-1.11375 1.309375 -2.2275 1.61875 -3.375 1.9375 C-6.7945155 2.82326483 -6.7945155 2.82326483 -9 4 C-9 2.68 -9 1.36 -9 0 C-5.93109813 -1.53445094 -3.29905734 -0.54984289 0 0 Z " fill="#564850" transform="translate(115,58)"/>
</svg>
